<?xml version="1.0" encoding="utf-8"?>
<!-- Generator: Adobe Illustrator 27.9.0, SVG Export Plug-In . SVG Version: 6.00 Build 0)  -->
<svg version="1.1" id="레이어_1" xmlns="http://www.w3.org/2000/svg" xmlns:xlink="http://www.w3.org/1999/xlink" x="0px"
	 y="0px" viewBox="0 0 537.27 224.34" style="enable-background:new 0 0 537.27 224.34;" xml:space="preserve">
<style type="text/css">
	.st0{fill:url(#SVGID_1_);}
	.st1{fill:#CC4617;}
	
		.st2{clip-path:url(#SVGID_00000038407240790512384830000004170341412715776648_);fill:url(#SVGID_00000067223245399751600470000013614563396646955684_);}
	.st3{fill:url(#SVGID_00000161591886145270449070000009439060119838939808_);}
	.st4{fill:#282828;}
	.st5{opacity:0.4;}
</style>
<g>
	<g>
		
			<linearGradient id="SVGID_1_" gradientUnits="userSpaceOnUse" x1="112.165" y1="18.2651" x2="112.165" y2="207.0163" gradientTransform="matrix(1 0 0 -1 0 224.3298)">
			<stop  offset="0" style="stop-color:#EF4C25"/>
			<stop  offset="0.1461" style="stop-color:#EF5423"/>
			<stop  offset="0.3724" style="stop-color:#F06A1F"/>
			<stop  offset="0.6507" style="stop-color:#F28D18"/>
			<stop  offset="0.9676" style="stop-color:#F4BF0F"/>
			<stop  offset="1" style="stop-color:#F4C40E"/>
		</linearGradient>
		<path class="st0" d="M168.62,0H55.71C24.94,0,0,24.94,0,55.71v58.25l51.23-53.41L75,136.88l7.48,34.18l4.7,3.63l11.96,5.77h13.02
			l42.1-3.63l20.72,2.88l-47.96,44.62h41.6c30.77,0,55.71-24.94,55.71-55.71V55.71C224.33,24.94,199.39,0,168.62,0z"/>
		<path class="st1" d="M154.26,176.83l-42.1,3.63H99.14l-11.96-5.77l-4.7-3.63L75,136.88L51.23,60.55L0,113.96v54.67
			c0,30.77,24.94,55.71,55.71,55.71h11.71h59.61l47.96-44.62L154.26,176.83z"/>
		<g>
			<g>
				<defs>
					<rect id="SVGID_00000150814123468143302340000007729712656107908225_" x="82.48" y="58.47" width="104.79" height="53.7"/>
				</defs>
				<clipPath id="SVGID_00000051361492185696897530000006306711683830764470_">
					<use xlink:href="#SVGID_00000150814123468143302340000007729712656107908225_"  style="overflow:visible;"/>
				</clipPath>
				
					<linearGradient id="SVGID_00000171677259843869657300000011031392290274471592_" gradientUnits="userSpaceOnUse" x1="16.4885" y1="99.1299" x2="190.62" y2="99.1299" gradientTransform="matrix(1 0 0 -1 0 224.3298)">
					<stop  offset="0" style="stop-color:#200897"/>
					<stop  offset="0.4319" style="stop-color:#4F2CBE"/>
					<stop  offset="1" style="stop-color:#8A59EE"/>
				</linearGradient>
				
					<path style="clip-path:url(#SVGID_00000051361492185696897530000006306711683830764470_);fill:url(#SVGID_00000171677259843869657300000011031392290274471592_);" d="
					M190.62,158.24l-9.04,11.68c-0.55-12.55-11.06-22.61-23.93-22.61c-9.18,0-15,5-18.5,8.68c-6.78,6.72-15.38,10.93-24.67,12.27
					c-7.47,16.13-36.03,19.08-36.03,19.08c9.6-6.1,11.12-15.71,10.68-22.83c-13.01-6.22-22.56-18.75-24.55-33.4
					c-0.07-0.62-0.64-6.16-0.11-11.17c2.42-19.05,17.24-34.54,36.03-37.65c2.57-0.42,5.14-0.64,7.63-0.64
					c11.68,0,22.64,4.48,30.79,12.54c3.65,3.83,9.56,8.91,18.72,8.91c6.68,0,12.72-2.71,17.07-7.06v0.01
					c0.01-0.01,0.05-0.06,0.08-0.09c1.09-1.1,2.89-2.93,4.37-4.7c3.6-4.45,7.69-10.22,7.69-10.22l-5.3-3.04
					c-0.38-6.01-3.01-11.73-7.26-15.53c-17.48-18.28-40.96-28.35-66.16-28.35c-3.59,0-7.24,0.21-10.87,0.63
					c-38.76,4.5-71.22,34.43-78.9,72.62c-0.02,0.06-0.06,0.27-0.07,0.33c-0.25,1.28-0.74,3.96-1.17,7.61
					c-0.74,6.37-1.2,15.91,0.8,25.06c6.82,39.7,39.44,70.65,79.34,75.28c3.59,0.42,7.25,0.63,10.88,0.63h0.01
					c24.13,0,46.52-9.11,63.26-25.5c0.89-0.81,1.92-1.84,3.13-3.13c0.57-0.56,1.11-1.15,1.62-1.76c0.11-0.12,0.21-0.23,0.32-0.35
					C190.35,170.06,190.62,158.24,190.62,158.24z"/>
			</g>
		</g>
		
			<linearGradient id="SVGID_00000011730715227017124030000011282516059413134765_" gradientUnits="userSpaceOnUse" x1="112.1586" y1="36.2115" x2="112.1586" y2="181.1547" gradientTransform="matrix(1 0 0 -1 0 224.3298)">
			<stop  offset="0" style="stop-color:#046DDD"/>
			<stop  offset="0.2069" style="stop-color:#1780E3"/>
			<stop  offset="0.6256" style="stop-color:#48B2F1"/>
			<stop  offset="0.9999" style="stop-color:#79E4FF"/>
		</linearGradient>
		<path style="fill:url(#SVGID_00000011730715227017124030000011282516059413134765_);" d="M167.83,133.17
			c-8.73,0-14.25,4.75-17.58,8.25c-6.45,6.39-14.62,10.39-23.44,11.66c-7.1,15.33-34.24,18.13-34.24,18.13
			c9.12-5.79,10.57-14.93,10.15-21.7c-12.36-5.91-21.44-17.81-23.33-31.74c-0.06-0.59-0.61-5.86-0.1-10.61
			c2.3-18.1,16.38-32.82,34.24-35.78c2.44-0.4,4.88-0.61,7.25-0.61c11.1,0,21.52,4.26,29.26,11.92c3.46,3.64,9.08,8.47,17.79,8.47
			c12.57,0,22.79-10.07,22.79-22.46c0-6.22-2.6-12.25-6.97-16.15c-16.61-17.37-38.93-26.94-62.87-26.94c-3.41,0-6.88,0.2-10.33,0.6
			c-36.83,4.27-67.68,32.72-74.97,69.01c-0.02,0.06-0.06,0.26-0.07,0.32c-0.24,1.21-0.7,3.76-1.11,7.23
			c-0.71,6.05-1.14,15.12,0.76,23.81c6.48,37.72,37.48,67.14,75.39,71.53c3.41,0.4,6.89,0.6,10.34,0.6h0.01
			c23.99,0,46.19-9.46,62.3-26.42c4.77-4.25,7.51-10.32,7.51-16.67C190.62,143.24,180.4,133.17,167.83,133.17z"/>
	</g>
	<g>
		<path class="st4" d="M284.84,117.88c-3.74,1.05-8.79,1.11-13.47-0.21c-2.63-0.9-6.89-3.37-9.21-5.95l6.21-6.73
			c5.26,3.68,9.36,5.26,12.37,4.52c2.73-0.68,3.31-3.84,0.95-5.36c-2.69-1.84-5.37-2.42-10.1-4.95c-6.68-3.74-8.37-9.36-6.05-13.89
			c2.37-5,7.47-7.63,13.47-7.63c5.95,0,10.89,2.21,14.31,5.89l-6.1,6.79c-2.58-2.21-6.42-3.79-8.94-3.79
			c-1.47,0-2.89,0.84-2.89,2.57c0,1.68,2.05,3,7.73,5.79c7.15,3.26,9.84,6.52,10.37,10.47
			C294.42,111.04,291.42,116.03,284.84,117.88z"/>
		<path class="st4" d="M313.74,117.67l-7.05-25.3h-0.26l-0.21,25.3h-9.63l2.42-39.03h10.79l8.26,27.09h0.26l8.31-27.09h10.78
			l2.42,39.03h-9.63l-0.21-25.3h-0.27l-7.05,25.3H313.74z"/>
		<path class="st4" d="M379.1,117.67h-10.2l-2.79-7.1h-11.89l-2.57,7.1h-10.16l14.47-39.03h8.26L379.1,117.67z M360.27,90.05
			l-3.53,12.1h6.84L360.27,90.05z"/>
		<path class="st4" d="M406.95,102.52l6.58,15.15h-10.2l-5.53-13.1h-6.42v13.1h-9.31V78.64h14.89c10.68,0,16.47,4.47,16.47,13.15
			C413.42,96.36,411,100.36,406.95,102.52z M391.38,96.25h7.05c4,0,5.89-2.1,5.89-4.68c0-2.84-2.05-4.52-5.79-4.52h-7.15V96.25z"/>
		<path class="st4" d="M415.44,78.63h29.72v8.63h-10.31v30.41h-9.36V87.26h-10.05L415.44,78.63L415.44,78.63z"/>
		<path class="st4" d="M460.49,98.2c0-8.73,3.37-14.73,9.1-18.31c3.47-2.1,9.73-2.68,13.68-1.84c3.42,0.69,6.73,2.58,10.31,6.52
			l-5.68,5.89c-3.42-3.84-7.68-4.68-11.31-3.47c-4.42,1.42-6.94,5.21-6.94,11.21c0,6.05,3.63,10.41,6.99,11.26
			c3.79,0.9,8.63,0,11.26-3.58l5.68,6c-3.42,4-6.68,5.84-10.31,6.52c-3.95,0.74-10.21,0.21-13.68-1.84
			C463.86,112.98,460.49,106.99,460.49,98.2z"/>
		<path class="st4" d="M494.7,78.63h29.72v8.63h-10.31v30.41h-9.36V87.26H494.7V78.63z"/>
		<path class="st4" d="M527.91,78.63h9.36v39.03h-9.36V78.63z"/>
	</g>
	<g class="st5">
		<path class="st4" d="M268.47,145.03c-0.88,0-1.71-0.34-2.2-0.88v0.76h-2.64v-11.4h2.64v3.74c0.45-0.49,1.26-0.91,2.28-0.94
			c2.24-0.11,3.9,1.54,3.93,4.42C272.52,143.71,270.74,145.03,268.47,145.03z M267.96,142.68c0.95,0.06,1.94-0.48,1.94-2.03
			c0-1.4-0.92-2-1.75-2c-1.03,0-1.78,0.88-1.78,2.23C266.36,141.83,266.95,142.62,267.96,142.68z"/>
		<path class="st4" d="M275.88,142.95l-3.3-6.5h3.04l1.66,3.47l1.44-3.47h2.98l-4.78,10.76l-2.67-0.76L275.88,142.95z"/>
		<path class="st4" d="M286.32,129.38h4.46l2.6,4.75l2.62-4.75h4.42l-4.46,7.67l4.63,7.67h-4.44l-2.77-4.75l-2.79,4.75h-4.46
			l4.42-7.67L286.32,129.38z"/>
		<path class="st4" d="M300.72,137.07c0-3.43,1.32-5.79,3.58-7.19c1.36-0.83,3.82-1.06,5.37-0.73c1.34,0.27,2.64,1.01,4.05,2.56
			l-2.23,2.31c-1.34-1.51-3.02-1.84-4.44-1.36c-1.73,0.56-2.73,2.04-2.73,4.4c0,2.38,1.43,4.09,2.75,4.42c1.49,0.35,3.39,0,4.42-1.4
			l2.23,2.35c-1.34,1.57-2.63,2.29-4.05,2.56c-1.55,0.29-4.01,0.08-5.37-0.73C302.04,142.88,300.72,140.52,300.72,137.07z"/>
		<path class="st4" d="M328.2,144.71h-4.01l-1.1-2.79h-4.67l-1.01,2.79h-3.99l5.68-15.33h3.24L328.2,144.71z M320.8,133.87
			l-1.39,4.75h2.69L320.8,133.87z"/>
		<path class="st4" d="M335.34,144.71h-6.51v-15.33h3.68v12h3.3c1.53,0,2.32-0.1,3.29-0.23v3.27
			C338.19,144.65,336.52,144.71,335.34,144.71z"/>
		<path class="st4" d="M346.45,144.71h-6.51v-15.33h3.68v12h3.3c1.53,0,2.32-0.1,3.29-0.23v3.27
			C349.31,144.65,347.63,144.71,346.45,144.71z"/>
		<path class="st4" d="M359.16,138.77v5.95h-3.76v-5.95l-5.27-9.38h4.26l2.87,5.83l2.87-5.83h4.26L359.16,138.77z"/>
		<path class="st4" d="M373.29,141.62v3.1h-3.62v-15.33h3.62v6.83l4.9-6.84h4.01l-4.59,6.51l4.75,8.82h-3.92l-3.2-5.72
			L373.29,141.62z"/>
		<path class="st4" d="M391.22,145.11c-4.63,0-7.32-3.08-7.32-8.04c0-4.96,2.69-8.04,7.32-8.04c4.67,0,7.4,3.08,7.4,8.04
			C398.61,142.03,395.89,145.11,391.22,145.11z M391.26,141.59c2.17,0,3.64-1.76,3.64-4.52c0-2.63-1.51-4.53-3.64-4.53
			s-3.64,1.9-3.64,4.53C387.62,139.84,389.09,141.59,391.26,141.59z"/>
		<path class="st4" d="M410.84,138.77l2.58,5.95h-4.01l-2.17-5.15h-2.52v5.15h-3.66v-15.33h5.85c4.2,0,6.47,1.76,6.47,5.16
			C413.39,136.35,412.44,137.92,410.84,138.77z M404.73,136.31h2.77c1.57,0,2.31-0.83,2.31-1.84c0-1.12-0.81-1.78-2.27-1.78h-2.81
			V136.31z"/>
		<path class="st4" d="M426.07,132.65h-8.08v2.79l7.69-0.02v3.2h-7.69v2.83h4.9c1.51,0,2.31-0.1,3.28-0.23v3.2
			c-0.91,0.22-2.58,0.29-3.76,0.29h-8.04v-15.33h11.7V132.65z"/>
		<path class="st4" d="M441.38,144.71h-4.01l-1.1-2.79h-4.67l-1.01,2.79h-3.99l5.68-15.33h3.24L441.38,144.71z M433.98,133.87
			l-1.39,4.75h2.69L433.98,133.87z"/>
	</g>
</g>
</svg>
