<?xml version="1.0" encoding="UTF-8"?>
<!DOCTYPE svg PUBLIC "-//W3C//DTD SVG 1.1//EN" "http://www.w3.org/Graphics/SVG/1.1/DTD/svg11.dtd">
<svg xmlns="http://www.w3.org/2000/svg" version="1.1" width="1000px" height="413px" style="shape-rendering:geometricPrecision; text-rendering:geometricPrecision; image-rendering:optimizeQuality; fill-rule:evenodd; clip-rule:evenodd" xmlns:xlink="http://www.w3.org/1999/xlink">
<g><path style="opacity:0.987" fill="#f2c20d" d="M 446.5,128.5 C 446.565,128.938 446.399,129.272 446,129.5C 445.626,128.584 445.126,127.75 444.5,127C 386.665,126.833 328.999,126.333 271.5,125.5C 278.65,116.561 287.983,111.061 299.5,109C 338.5,108.333 377.5,108.333 416.5,109C 424.599,110.717 431.932,114.05 438.5,119C 441.777,121.766 444.443,124.933 446.5,128.5 Z"/></g>
<g><path style="opacity:1" fill="#f2ba12" d="M 271.5,125.5 C 328.999,126.333 386.665,126.833 444.5,127C 445.126,127.75 445.626,128.584 446,129.5C 446.399,129.272 446.565,128.938 446.5,128.5C 450.115,132.059 452.449,136.393 453.5,141.5C 453.649,142.552 453.483,143.552 453,144.5C 452.187,142.564 451.687,140.564 451.5,138.5C 434.325,138.17 417.325,138.503 400.5,139.5C 385.012,131.948 368.679,129.448 351.5,132C 339.468,134.687 328.468,139.52 318.5,146.5C 299.764,145.169 280.931,145.169 262,146.5C 261.517,145.552 261.351,144.552 261.5,143.5C 262.775,136.276 266.109,130.276 271.5,125.5 Z"/></g>
<g><path style="opacity:1" fill="#7ae3fc" d="M 400.5,139.5 C 406.071,142.446 411.071,146.112 415.5,150.5C 382.543,149.514 349.543,149.181 316.5,149.5C 317.167,148.5 317.833,147.5 318.5,146.5C 328.468,139.52 339.468,134.687 351.5,132C 368.679,129.448 385.012,131.948 400.5,139.5 Z"/></g>
<g><path style="opacity:1" fill="#f1ad14" d="M 400.5,139.5 C 417.325,138.503 434.325,138.17 451.5,138.5C 451.687,140.564 452.187,142.564 453,144.5C 453.483,143.552 453.649,142.552 453.5,141.5C 454.913,144.219 455.58,147.219 455.5,150.5C 455.5,153.833 455.5,157.167 455.5,160.5C 454.523,157.713 454.19,154.713 454.5,151.5C 442.322,151.172 430.322,151.505 418.5,152.5C 417.5,151.833 416.5,151.167 415.5,150.5C 411.071,146.112 406.071,142.446 400.5,139.5 Z"/></g>
<g><path style="opacity:1" fill="#f0a616" d="M 261.5,143.5 C 261.351,144.552 261.517,145.552 262,146.5C 280.931,145.169 299.764,145.169 318.5,146.5C 317.833,147.5 317.167,148.5 316.5,149.5C 312.833,152.833 309.167,156.167 305.5,159.5C 290.676,158.504 275.676,158.171 260.5,158.5C 260.823,164.69 260.49,170.69 259.5,176.5C 259.5,169.833 259.5,163.167 259.5,156.5C 259.156,151.878 259.823,147.545 261.5,143.5 Z"/></g>
<g><path style="opacity:1" fill="#f2a416" d="M 455.5,160.5 C 455.5,164.5 455.5,168.5 455.5,172.5C 454.527,170.052 454.194,167.385 454.5,164.5C 445.083,164.805 435.75,164.472 426.5,163.5C 424.668,159.319 422.002,155.652 418.5,152.5C 430.322,151.505 442.322,151.172 454.5,151.5C 454.19,154.713 454.523,157.713 455.5,160.5 Z"/></g>
<g><path style="opacity:1" fill="#6fd9fa" d="M 316.5,149.5 C 349.543,149.181 382.543,149.514 415.5,150.5C 416.5,151.167 417.5,151.833 418.5,152.5C 422.002,155.652 424.668,159.319 426.5,163.5C 426.815,167.371 426.482,171.038 425.5,174.5C 425.979,170.089 425.312,165.922 423.5,162C 384.168,161.5 344.835,161.333 305.5,161.5C 305.5,160.833 305.5,160.167 305.5,159.5C 309.167,156.167 312.833,152.833 316.5,149.5 Z"/></g>
<g><path style="opacity:1" fill="#f19916" d="M 305.5,159.5 C 305.5,160.167 305.5,160.833 305.5,161.5C 303.413,162.585 302.08,164.251 301.5,166.5C 295.892,170.439 290.892,175.106 286.5,180.5C 277.887,179.558 269.221,179.225 260.5,179.5C 260.81,182.713 260.477,185.713 259.5,188.5C 259.5,184.5 259.5,180.5 259.5,176.5C 260.49,170.69 260.823,164.69 260.5,158.5C 275.676,158.171 290.676,158.504 305.5,159.5 Z"/></g>
<g><path style="opacity:1" fill="#5fc7f6" d="M 305.5,161.5 C 344.835,161.333 384.168,161.5 423.5,162C 425.312,165.922 425.979,170.089 425.5,174.5C 425.107,176.284 424.441,177.95 423.5,179.5C 422.197,181.142 420.864,182.809 419.5,184.5C 413.967,187.839 407.967,189.006 401.5,188C 393.854,183.031 386.187,178.031 378.5,173C 362.468,167.591 348.802,171.091 337.5,183.5C 336.066,186.047 334.4,188.381 332.5,190.5C 332.286,188.856 332.62,187.356 333.5,186C 319.758,185.186 306.092,185.353 292.5,186.5C 293.877,179.081 296.877,172.415 301.5,166.5C 302.08,164.251 303.413,162.585 305.5,161.5 Z"/></g>
<g><path style="opacity:1" fill="#f29417" d="M 426.5,163.5 C 435.75,164.472 445.083,164.805 454.5,164.5C 454.194,167.385 454.527,170.052 455.5,172.5C 455.5,177.167 455.5,181.833 455.5,186.5C 454.532,184.393 454.198,182.059 454.5,179.5C 444.167,179.5 433.833,179.5 423.5,179.5C 424.441,177.95 425.107,176.284 425.5,174.5C 426.482,171.038 426.815,167.371 426.5,163.5 Z"/></g>
<g><path style="opacity:0.973" fill="#262626" d="M 497.5,172.5 C 503.769,171.576 509.436,172.909 514.5,176.5C 515.614,177.723 515.781,179.056 515,180.5C 513.833,181.667 512.667,182.833 511.5,184C 508.839,183.592 506.173,182.759 503.5,181.5C 502.263,181.556 501.263,182.056 500.5,183C 505.079,185.525 509.746,187.859 514.5,190C 518.924,198.062 516.924,204.062 508.5,208C 500.37,210.092 493.704,207.925 488.5,201.5C 490.202,198.963 492.369,196.963 495,195.5C 497.897,198.363 501.397,199.697 505.5,199.5C 505.762,198.022 505.429,196.689 504.5,195.5C 498.84,194.097 494.34,191.097 491,186.5C 489.17,179.832 491.337,175.165 497.5,172.5 Z"/></g>
<g><path style="opacity:0.959" fill="#262626" d="M 683.5,172.5 C 689.276,171.705 694.276,173.205 698.5,177C 697.428,180.07 695.595,182.57 693,184.5C 685.856,180.657 681.356,182.657 679.5,190.5C 681.098,198.549 685.598,200.882 693,197.5C 695.643,198.936 697.477,201.103 698.5,204C 697.48,206.026 695.813,207.359 693.5,208C 679.518,210.516 671.184,204.849 668.5,191C 669.741,181.609 674.741,175.442 683.5,172.5 Z"/></g>
<g><path style="opacity:0.973" fill="#252525" d="M 521.5,173.5 C 525.5,173.5 529.5,173.5 533.5,173.5C 535.022,179.585 536.855,185.585 539,191.5C 540.667,185.833 542.333,180.167 544,174.5C 548,173.167 552,173.167 556,174.5C 557.071,185.21 558.404,195.877 560,206.5C 564,195.833 568,185.167 572,174.5C 575.455,173.209 578.955,173.209 582.5,174.5C 586.544,185.47 590.878,196.303 595.5,207C 591.984,208.748 588.317,208.915 584.5,207.5C 583.926,205.941 583.26,204.441 582.5,203C 578.848,202.501 575.182,202.335 571.5,202.5C 571.528,204.582 570.861,206.416 569.5,208C 562.833,208.667 556.167,208.667 549.5,208C 548.709,203.867 547.876,199.7 547,195.5C 545.673,199.809 544.506,204.142 543.5,208.5C 540.223,208.784 537.057,208.451 534,207.5C 532.667,202.833 531.333,198.167 530,193.5C 529.589,198.519 529.089,203.519 528.5,208.5C 525.167,208.5 521.833,208.5 518.5,208.5C 519.133,196.8 520.133,185.134 521.5,173.5 Z M 576.5,188.5 C 578.043,189.736 579.043,191.402 579.5,193.5C 578.311,194.429 576.978,194.762 575.5,194.5C 575.833,192.5 576.167,190.5 576.5,188.5 Z"/></g>
<g><path style="opacity:0.97" fill="#262626" d="M 625.5,181.5 C 626.198,186.928 624.531,191.428 620.5,195C 622.11,199.054 624.11,202.887 626.5,206.5C 626.291,207.086 625.957,207.586 625.5,208C 622.167,208.667 618.833,208.667 615.5,208C 613.041,204.25 610.708,200.417 608.5,196.5C 607.675,200.122 607.175,203.789 607,207.5C 603.606,208.456 600.106,208.789 596.5,208.5C 596.5,196.833 596.5,185.167 596.5,173.5C 603.841,173.334 611.174,173.5 618.5,174C 621.746,175.742 624.079,178.242 625.5,181.5 Z M 607.5,181.5 C 610.885,180.79 613.219,181.956 614.5,185C 613.219,188.044 610.885,189.21 607.5,188.5C 607.5,186.167 607.5,183.833 607.5,181.5 Z"/></g>
<g><path style="opacity:0.954" fill="#252525" d="M 625.5,181.5 C 625.5,178.833 625.5,176.167 625.5,173.5C 635.167,173.5 644.833,173.5 654.5,173.5C 654.664,176.187 654.497,178.854 654,181.5C 651.281,182.444 648.448,182.777 645.5,182.5C 645.666,190.84 645.5,199.173 645,207.5C 641.667,208.833 638.333,208.833 635,207.5C 634.5,199.173 634.334,190.84 634.5,182.5C 631.391,182.736 628.391,182.403 625.5,181.5 Z"/></g>
<g><path style="opacity:0.963" fill="#252525" d="M 699.5,173.5 C 709.167,173.5 718.833,173.5 728.5,173.5C 728.664,176.187 728.497,178.854 728,181.5C 725.281,182.444 722.448,182.777 719.5,182.5C 719.666,190.84 719.5,199.173 719,207.5C 715.667,208.833 712.333,208.833 709,207.5C 708.5,199.173 708.334,190.84 708.5,182.5C 705.813,182.664 703.146,182.497 700.5,182C 699.556,179.281 699.223,176.448 699.5,173.5 Z"/></g>
<g><path style="opacity:0.966" fill="#252525" d="M 730.5,173.5 C 734.167,173.5 737.833,173.5 741.5,173.5C 741.5,185.167 741.5,196.833 741.5,208.5C 737.894,208.789 734.394,208.456 731,207.5C 730.5,196.172 730.333,184.838 730.5,173.5 Z"/></g>
<g><path style="opacity:0.999" fill="#c84517" d="M 259.5,156.5 C 259.5,163.167 259.5,169.833 259.5,176.5C 259.5,180.5 259.5,184.5 259.5,188.5C 259.17,194.868 259.504,201.202 260.5,207.5C 269.16,198.506 277.827,189.506 286.5,180.5C 290.892,175.106 295.892,170.439 301.5,166.5C 296.877,172.415 293.877,179.081 292.5,186.5C 289.491,195.68 288.824,205.013 290.5,214.5C 290.205,216.735 290.539,218.735 291.5,220.5C 291.742,224.479 292.742,228.146 294.5,231.5C 296.061,236.95 298.394,241.95 301.5,246.5C 306.45,255.783 313.45,263.116 322.5,268.5C 344.517,283.697 368.183,286.53 393.5,277C 397.472,275.681 401.139,273.847 404.5,271.5C 404.631,272.239 404.464,272.906 404,273.5C 392.968,283.7 382.135,294.033 371.5,304.5C 347.164,304.667 322.831,304.5 298.5,304C 282.183,300.01 270.35,290.51 263,275.5C 260.719,269.71 259.386,263.71 259,257.5C 258.169,223.664 258.336,189.998 259.5,156.5 Z"/></g>
<g><path style="opacity:1" fill="#6e44d4" d="M 419.5,184.5 C 413.146,195.177 403.812,199.677 391.5,198C 385.221,194.054 379.221,189.721 373.5,185C 361.693,179.629 349.693,179.129 337.5,183.5C 348.802,171.091 362.468,167.591 378.5,173C 386.187,178.031 393.854,183.031 401.5,188C 407.967,189.006 413.967,187.839 419.5,184.5 Z"/></g>
<g><path style="opacity:1" fill="#f1861a" d="M 286.5,180.5 C 277.827,189.506 269.16,198.506 260.5,207.5C 259.504,201.202 259.17,194.868 259.5,188.5C 260.477,185.713 260.81,182.713 260.5,179.5C 269.221,179.225 277.887,179.558 286.5,180.5 Z"/></g>
<g><path style="opacity:1" fill="#49b0ee" d="M 332.5,190.5 C 331.833,192.833 331.167,195.167 330.5,197.5C 329.559,202.07 329.226,206.737 329.5,211.5C 328.677,208.023 328.177,204.356 328,200.5C 327.506,202.134 327.34,203.801 327.5,205.5C 315.495,205.333 303.495,205.5 291.5,206C 290.556,208.719 290.223,211.552 290.5,214.5C 288.824,205.013 289.491,195.68 292.5,186.5C 306.092,185.353 319.758,185.186 333.5,186C 332.62,187.356 332.286,188.856 332.5,190.5 Z"/></g>
<g><path style="opacity:1" fill="#f0831c" d="M 423.5,179.5 C 433.833,179.5 444.167,179.5 454.5,179.5C 454.198,182.059 454.532,184.393 455.5,186.5C 455.5,190.833 455.5,195.167 455.5,199.5C 414.386,201.486 373.053,202.152 331.5,201.5C 331.768,199.901 331.434,198.568 330.5,197.5C 331.167,195.167 331.833,192.833 332.5,190.5C 334.4,188.381 336.066,186.047 337.5,183.5C 349.693,179.129 361.693,179.629 373.5,185C 379.221,189.721 385.221,194.054 391.5,198C 403.812,199.677 413.146,195.177 419.5,184.5C 420.864,182.809 422.197,181.142 423.5,179.5 Z"/></g>
<g><path style="opacity:1" fill="#f1751d" d="M 330.5,197.5 C 331.434,198.568 331.768,199.901 331.5,201.5C 373.053,202.152 414.386,201.486 455.5,199.5C 455.866,207.894 455.533,214.227 454.5,218.5C 413.5,218.5 372.5,218.5 331.5,218.5C 331.443,217.391 331.11,216.391 330.5,215.5C 330.768,213.901 330.434,212.568 329.5,211.5C 329.226,206.737 329.559,202.07 330.5,197.5 Z"/></g>
<g><path style="opacity:1" fill="#39a0ea" d="M 329.5,211.5 C 330.434,212.568 330.768,213.901 330.5,215.5C 328.797,214.34 328.131,215.007 328.5,217.5C 316.495,217.333 304.495,217.5 292.5,218C 291.748,218.671 291.414,219.504 291.5,220.5C 290.539,218.735 290.205,216.735 290.5,214.5C 290.223,211.552 290.556,208.719 291.5,206C 303.495,205.5 315.495,205.333 327.5,205.5C 327.34,203.801 327.506,202.134 328,200.5C 328.177,204.356 328.677,208.023 329.5,211.5 Z"/></g>
<g><path style="opacity:0.393" fill="#252525" d="M 518.5,218.5 C 521.999,216.764 524.999,217.43 527.5,220.5C 529.795,217.61 532.795,216.777 536.5,218C 534.577,220.515 532.91,223.182 531.5,226C 532.951,228.953 534.618,231.787 536.5,234.5C 532.981,235.969 529.981,235.302 527.5,232.5C 525.019,235.302 522.019,235.969 518.5,234.5C 520.382,231.787 522.049,228.953 523.5,226C 522.188,223.193 520.521,220.693 518.5,218.5 Z"/></g>
<g><path style="opacity:0.374" fill="#242424" d="M 540.5,217.5 C 543.187,217.336 545.854,217.503 548.5,218C 551.003,219.549 551.003,221.216 548.5,223C 541.921,221.25 539.921,223.583 542.5,230C 544.035,230.496 545.535,230.33 547,229.5C 548.653,229.82 549.653,230.82 550,232.5C 552.381,228.032 554.381,223.365 556,218.5C 558.041,217.577 560.208,217.244 562.5,217.5C 563.698,222.238 565.198,226.905 567,231.5C 567.499,226.845 567.666,222.179 567.5,217.5C 569.792,217.244 571.959,217.577 574,218.5C 574.499,222.486 574.666,226.486 574.5,230.5C 576.5,230.5 578.5,230.5 580.5,230.5C 580.5,226.167 580.5,221.833 580.5,217.5C 582.792,217.244 584.959,217.577 587,218.5C 587.499,222.486 587.666,226.486 587.5,230.5C 589.5,230.5 591.5,230.5 593.5,230.5C 593.5,232.167 593.5,233.833 593.5,235.5C 583.161,235.666 572.828,235.5 562.5,235C 561.774,233.603 560.607,232.769 559,232.5C 557.161,234.141 554.994,235.141 552.5,235.5C 548.641,235.292 544.641,235.126 540.5,235C 532.581,229.173 532.581,223.34 540.5,217.5 Z"/></g>
<g><path style="opacity:0.377" fill="#242424" d="M 591.5,217.5 C 595.49,216.616 598.323,217.949 600,221.5C 601.751,217.756 604.585,216.756 608.5,218.5C 604.681,223.14 602.848,228.473 603,234.5C 600.959,235.423 598.792,235.756 596.5,235.5C 596.664,232.813 596.497,230.146 596,227.5C 594.214,224.264 592.714,220.93 591.5,217.5 Z"/></g>
<g><path style="opacity:0.377" fill="#242424" d="M 614.5,217.5 C 616.833,217.5 619.167,217.5 621.5,217.5C 621.343,218.873 621.51,220.207 622,221.5C 624.106,217.542 627.273,216.542 631.5,218.5C 629.588,220.657 627.921,222.991 626.5,225.5C 628.375,228.751 630.375,231.918 632.5,235C 627.572,236.643 624.072,235.143 622,230.5C 621.506,232.134 621.34,233.801 621.5,235.5C 619.167,235.5 616.833,235.5 614.5,235.5C 614.5,229.5 614.5,223.5 614.5,217.5 Z"/></g>
<g><path style="opacity:0.385" fill="#252525" d="M 636.5,217.5 C 647.157,215.658 651.657,219.991 650,230.5C 646.746,235.223 642.246,236.723 636.5,235C 631.845,232.103 630.345,227.937 632,222.5C 633.025,220.313 634.525,218.646 636.5,217.5 Z M 639.5,222.5 C 642.352,222.352 644.019,223.686 644.5,226.5C 642.167,231.833 639.833,231.833 637.5,226.5C 637.752,224.927 638.418,223.594 639.5,222.5 Z"/></g>
<g><path style="opacity:0.375" fill="#252525" d="M 651.5,217.5 C 655.514,217.334 659.514,217.501 663.5,218C 664.701,218.903 665.535,220.069 666,221.5C 666.49,220.207 666.657,218.873 666.5,217.5C 671.179,217.334 675.845,217.501 680.5,218C 681.833,219.333 681.833,220.667 680.5,222C 678.1,222.186 675.766,222.686 673.5,223.5C 675.396,224.466 677.396,224.799 679.5,224.5C 679.5,225.833 679.5,227.167 679.5,228.5C 677.396,228.201 675.396,228.534 673.5,229.5C 676.027,230.214 678.527,230.88 681,231.5C 682.922,227.242 684.756,222.908 686.5,218.5C 688.5,217.167 690.5,217.167 692.5,218.5C 695.3,223.9 697.3,229.566 698.5,235.5C 695.016,235.672 692.016,234.672 689.5,232.5C 688,232.453 687,233.119 686.5,234.5C 677.853,235.665 669.186,235.832 660.5,235C 658.217,228.909 657.217,229.075 657.5,235.5C 655.5,235.5 653.5,235.5 651.5,235.5C 651.5,229.5 651.5,223.5 651.5,217.5 Z M 657.5,221.5 C 659.476,222.427 659.809,223.76 658.5,225.5C 657.571,224.311 657.238,222.978 657.5,221.5 Z M 665.5,225.5 C 666.629,227.628 666.796,229.961 666,232.5C 664.193,230.26 664.026,227.927 665.5,225.5 Z"/></g>
<g><path style="opacity:1" fill="#2d93e7" d="M 330.5,215.5 C 331.11,216.391 331.443,217.391 331.5,218.5C 333.132,221.814 334.799,225.147 336.5,228.5C 322.568,230.131 308.568,231.131 294.5,231.5C 292.742,228.146 291.742,224.479 291.5,220.5C 291.414,219.504 291.748,218.671 292.5,218C 304.495,217.5 316.495,217.333 328.5,217.5C 328.131,215.007 328.797,214.34 330.5,215.5 Z"/></g>
<g><path style="opacity:0.375" fill="#242424" d="M 489.5,220.5 C 490.833,220.5 492.167,220.5 493.5,220.5C 493.5,221.5 493.5,222.5 493.5,223.5C 496.365,223.055 498.865,223.722 501,225.5C 502.153,223.503 503.653,223.17 505.5,224.5C 506.098,225.795 506.598,227.128 507,228.5C 507.707,226.919 508.54,225.419 509.5,224C 510.944,223.219 512.277,223.386 513.5,224.5C 511.569,229.127 509.735,233.794 508,238.5C 506.644,239.38 505.144,239.714 503.5,239.5C 504.989,235.77 504.822,232.103 503,228.5C 502.934,231.276 501.768,233.442 499.5,235C 496.183,235.498 492.85,235.665 489.5,235.5C 489.5,230.5 489.5,225.5 489.5,220.5 Z M 495.5,226.5 C 499.211,228.242 499.377,230.242 496,232.5C 492.924,230.699 492.758,228.699 495.5,226.5 Z"/></g>
<g><path style="opacity:1" fill="#ea651f" d="M 455.5,150.5 C 456.833,187.833 456.833,225.167 455.5,262.5C 455.803,254.111 455.47,245.778 454.5,237.5C 444.94,236.821 435.44,236.155 426,235.5C 425.601,235.728 425.435,236.062 425.5,236.5C 418.029,224.844 408.029,222.011 395.5,228C 388.589,235.45 380.256,240.283 370.5,242.5C 363.544,251.773 354.21,256.607 342.5,257C 345.945,254.727 347.945,251.56 348.5,247.5C 351.947,242.07 350.613,238.237 344.5,236C 341.964,233.295 339.297,230.795 336.5,228.5C 334.799,225.147 333.132,221.814 331.5,218.5C 372.5,218.5 413.5,218.5 454.5,218.5C 455.533,214.227 455.866,207.894 455.5,199.5C 455.5,195.167 455.5,190.833 455.5,186.5C 455.5,181.833 455.5,177.167 455.5,172.5C 455.5,168.5 455.5,164.5 455.5,160.5C 455.5,157.167 455.5,153.833 455.5,150.5 Z"/></g>
<g><path style="opacity:1" fill="#2887e2" d="M 336.5,228.5 C 339.297,230.795 341.964,233.295 344.5,236C 350.613,238.237 351.947,242.07 348.5,247.5C 348.66,245.801 348.494,244.134 348,242.5C 332.578,243.491 317.078,243.824 301.5,243.5C 301.5,244.5 301.5,245.5 301.5,246.5C 298.394,241.95 296.061,236.95 294.5,231.5C 308.568,231.131 322.568,230.131 336.5,228.5 Z"/></g>
<g><path style="opacity:1" fill="#2c87e0" d="M 425.5,236.5 C 426.726,240.633 426.726,244.633 425.5,248.5C 425.664,245.813 425.497,243.146 425,240.5C 424.517,241.448 424.351,242.448 424.5,243.5C 406.453,243.807 388.453,243.473 370.5,242.5C 380.256,240.283 388.589,235.45 395.5,228C 408.029,222.011 418.029,224.844 425.5,236.5 Z"/></g>
<g><path style="opacity:1" fill="#ee5623" d="M 455.5,262.5 C 455.568,266.57 454.568,270.237 452.5,273.5C 452.5,272.5 452.5,271.5 452.5,270.5C 437.5,270.5 422.5,270.5 407.5,270.5C 407.833,269.833 408.167,269.167 408.5,268.5C 413.428,265.44 417.928,261.774 422,257.5C 424.287,254.928 425.453,251.928 425.5,248.5C 426.726,244.633 426.726,240.633 425.5,236.5C 425.435,236.062 425.601,235.728 426,235.5C 435.44,236.155 444.94,236.821 454.5,237.5C 455.47,245.778 455.803,254.111 455.5,262.5 Z"/></g>
<g><path style="opacity:1" fill="#1777de" d="M 425.5,248.5 C 425.453,251.928 424.287,254.928 422,257.5C 417.928,261.774 413.428,265.44 408.5,268.5C 379.833,267.167 351.167,267.167 322.5,268.5C 313.45,263.116 306.45,255.783 301.5,246.5C 301.5,245.5 301.5,244.5 301.5,243.5C 317.078,243.824 332.578,243.491 348,242.5C 348.494,244.134 348.66,245.801 348.5,247.5C 347.945,251.56 345.945,254.727 342.5,257C 354.21,256.607 363.544,251.773 370.5,242.5C 388.453,243.473 406.453,243.807 424.5,243.5C 424.351,242.448 424.517,241.448 425,240.5C 425.497,243.146 425.664,245.813 425.5,248.5 Z"/></g>
<g><path style="opacity:1" fill="#1a6cd8" d="M 408.5,268.5 C 408.167,269.167 407.833,269.833 407.5,270.5C 406.391,270.557 405.391,270.89 404.5,271.5C 401.139,273.847 397.472,275.681 393.5,277C 368.183,286.53 344.517,283.697 322.5,268.5C 351.167,267.167 379.833,267.167 408.5,268.5 Z"/></g>
<g><path style="opacity:0.998" fill="#ed4c24" d="M 407.5,270.5 C 422.5,270.5 437.5,270.5 452.5,270.5C 452.5,271.5 452.5,272.5 452.5,273.5C 446.338,289.819 434.672,299.986 417.5,304C 402.17,304.5 386.837,304.667 371.5,304.5C 382.135,294.033 392.968,283.7 404,273.5C 404.464,272.906 404.631,272.239 404.5,271.5C 405.391,270.89 406.391,270.557 407.5,270.5 Z"/></g>
</svg>
