<?xml version="1.0" encoding="UTF-8"?><svg id="_레이어_2" xmlns="http://www.w3.org/2000/svg" viewBox="0 0 195.3 195.3"><defs><style>.cls-1{fill:#393939;opacity:.09;}.cls-2,.cls-3{fill:#fffffe;}.cls-4{fill:#e74b3c;}.cls-5{fill:#0a0a0a;opacity:.13;}.cls-3{opacity:.2;}</style></defs><g id="_레이어_1-2"><g><circle class="cls-1" cx="97.65" cy="97.65" r="97.65"/><g><path class="cls-4" d="M79.47,75.79c-10.98,1.91-23.09,3.17-36.11,3.29h-.92c-7.52,.07-13.56,5.95-13.5,13.15l.06,6.38,.06,6.39c.06,6.6,5.26,12.01,11.93,12.79,.59,.07,1.19,.11,1.8,.1h1.12c6.42-.06,12.61,.17,18.56,.63,0,0,10.1,1.05,11.85,1.23,2.22,.22,0,0,0,0,1.88,.25,3.73,.51,5.55,.79l-.2-22.37-.2-22.36Z"/><path class="cls-4" d="M141.14,142.33l-.29-32.4,3.78-12.58-.73-4.73-3.27-7.31-.29-32.4c-.02-2.23-1.85-4.02-4.07-4h0c-2.22,.02-4.02,1.85-4,4.08l-11.46,33.97,.56,17.74,11.69,37.7h0c.02,2.24,1.85,4.02,4.07,4h0c2.22-.02,4.02-1.84,4-4.07Z"/><path class="cls-3" d="M39.39,93.86l-4.19,.04c-.76,0-1.38-.6-1.39-1.36v-1.19c-.02-.76,.59-1.38,1.35-1.39l4.19-.04c.76,0,1.38,.6,1.39,1.36v1.19c.02,.76-.59,1.38-1.35,1.39Zm-5.64-7.96v-1.19c-.02-.76,.59-1.38,1.35-1.39l4.19-.04c.76,0,1.38,.6,1.39,1.36v1.19c.02,.76-.59,1.38-1.35,1.39l-4.19,.04c-.76,0-1.38-.6-1.39-1.36Zm9.6-6.82h-.92c-7.52,.07-13.56,5.95-13.5,13.15l.06,6.38,4.87-.04v-.59c-.01-.76,.6-1.38,1.36-1.39l4.19-.04c.76,0,1.38,.6,1.39,1.36v.59s38.86-.34,38.86-.34l-.2-22.36c-10.98,1.91-23.09,3.17-36.11,3.29Z"/><path class="cls-3" d="M140.64,85.31l-.29-32.4c-.02-2.23-1.85-4.02-4.07-4h0c-2.22,.02-4.02,1.85-4,4.08l.29,33.1,.1,11.6,8.07-.07-.11-12.31Z"/><path class="cls-2" d="M150.43,97.53c-.05-5.97-4.22-10.93-9.79-12.23l.11,12.31h0s.11,12.31,.11,12.31c5.54-1.39,9.62-6.43,9.57-12.4Z"/><path class="cls-2" d="M39.45,100.49c.76,0,1.37-.63,1.36-1.39v-.6s-.01-.59-.01-.59c0-.76-.63-1.37-1.39-1.36l-4.19,.04c-.76,0-1.37,.63-1.36,1.39v.59s.01,.6,.01,.6c0,.76,.63,1.37,1.39,1.36l4.19-.04Z"/><path class="cls-2" d="M35.3,103.2h4.19c.76,0,1.38,.62,1.38,1.38v1.19c0,.76-.62,1.38-1.38,1.38h-4.19c-.76,0-1.38-.62-1.38-1.38v-1.19c0-.76,.62-1.38,1.38-1.38Z" transform="translate(-.91 .33) rotate(-.5)"/><path class="cls-2" d="M35.36,109.83h4.19c.76,0,1.38,.62,1.38,1.38v1.19c0,.76-.62,1.38-1.38,1.38h-4.19c-.76,0-1.38-.62-1.38-1.38v-1.19c0-.76,.62-1.38,1.38-1.38Z" transform="translate(-.98 .33) rotate(-.5)"/><rect class="cls-2" x="33.75" y="83.3" width="6.95" height="3.94" rx="1.38" ry="1.38" transform="translate(-.74 .33) rotate(-.5)"/><path class="cls-2" d="M35.19,89.93h4.19c.76,0,1.38,.62,1.38,1.38v1.19c0,.76-.62,1.38-1.38,1.38h-4.19c-.76,0-1.38-.62-1.38-1.38v-1.19c0-.76,.62-1.38,1.38-1.38Z" transform="translate(-.8 .33) rotate(-.5)"/><path class="cls-2" d="M132.57,86.08l-.29-33.1s-20.29,15.84-52.81,22.81l.2,22.36,.2,22.37c32.64,6.39,53.21,21.87,53.21,21.87l-.4-44.71-.1-11.6Z"/><path class="cls-5" d="M150.43,97.53l-9.68,.09,.11,12.31c5.54-1.39,9.62-6.43,9.57-12.4Z"/><path class="cls-5" d="M79.67,98.16l.2,22.37c32.64,6.39,53.21,21.87,53.21,21.87l-.4-44.71-53.01,.47Z"/></g></g></g></svg>