<?xml version="1.0" encoding="UTF-8"?><svg id="_레이어_2" xmlns="http://www.w3.org/2000/svg" viewBox="0 0 145.59 145.59"><defs><style>.cls-1{fill:#f0f0f0;}.cls-2,.cls-3{fill:#fffffe;}.cls-4{fill:#ffd740;}.cls-5{fill:#cfd8dc;}.cls-6{fill:#c6ae97;}.cls-7{fill:#2979ff;}.cls-8{fill:#393939;}.cls-3{opacity:.15;}.cls-9{fill:#333;opacity:.2;}</style></defs><g id="_레이어_1-2"><g><circle class="cls-1" cx="72.79" cy="72.79" r="72.79"/><g><path class="cls-6" d="M88.49,27.95h-15.7l-7.05,4.22-6.03-4.22h-2.62c-2.89,0-5.23,2.34-5.23,5.23v20.93s-4.63,5.11-1.74,5.11l17.27,9.59,29.3-5.65c2.89,0-2.97-9.05-2.97-9.05v-20.93c0-2.89-2.34-5.23-5.23-5.23Z"/><polygon class="cls-4" points="66.25 41.03 72.8 43.65 72.8 27.95 59.71 27.95 59.71 43.65 66.25 41.03"/><path class="cls-5" d="M106.81,98.59V61.96c0-4.32-3.53-7.85-7.85-7.85h-5.23c0,2.89-2.34,5.23-5.23,5.23l-17.96,8.91-13.43-8.91c-2.89,0-5.23-2.34-5.23-5.23h-5.23c-4.32,0-7.85,3.53-7.85,7.85v36.63h-7.85v6.32l1.54,1.53,5.23,5.23H107.88l5.23-5.23,1.54-1.53v-6.32h-7.85Z"/><path class="cls-7" d="M98.96,59.34H46.63c-1.44,0-2.62,1.18-2.62,2.62v36.63h57.56V61.96c0-1.44-1.18-2.62-2.62-2.62Z"/><path class="cls-9" d="M97.56,59.34c.89-1.54,1.4-3.33,1.4-5.23h-5.23c0,2.89-2.34,5.23-5.23,5.23h9.06Z"/><path class="cls-9" d="M48.05,59.34h9.05c-2.89,0-5.23-2.34-5.23-5.23h-5.23c0,1.91,.51,3.69,1.4,5.23h.01Z"/><rect class="cls-9" x="101.57" y="93.37" width="5.23" height="5.22"/><rect class="cls-9" x="38.78" y="93.37" width="5.23" height="5.22"/><polygon class="cls-9" points="32.48 106.44 37.71 111.67 107.88 111.67 113.11 106.44 32.48 106.44"/><path class="cls-3" d="M101.57,61.96c0-1.44-1.18-2.62-2.62-2.62h-1.41c-1.81,3.14-5.18,5.23-9.05,5.23h-31.4c-3.87,0-7.25-2.09-9.05-5.23h-1.41c-1.44,0-2.62,1.18-2.62,2.62v36.63h57.56V61.96Z"/><path class="cls-3" d="M57.1,59.34h23.55V27.95h-7.85v15.7l-6.54-2.62-6.54,2.62v-15.7h-2.62c-2.89,0-5.23,2.34-5.23,5.23v20.93c0,2.89,2.34,5.23,5.23,5.23Z"/><rect class="cls-2" x="41.4" y="101.21" width="5.23" height="5.23"/><rect class="cls-2" x="51.86" y="101.21" width="5.23" height="5.23"/><g><polygon class="cls-8" points="76.45 78.08 69.09 78.08 69.09 83.31 76.45 83.31 72.35 88.05 76.3 91.47 85.64 80.7 76.3 69.92 72.35 73.35 76.45 78.08"/><rect class="cls-8" x="58.63" y="78.08" width="5.23" height="5.23"/></g></g></g></g></svg>