<?xml version="1.0" encoding="utf-8"?>
<!-- Generator: Adobe Illustrator 26.2.1, SVG Export Plug-In . SVG Version: 6.00 Build 0)  -->
<svg version="1.1" id="레이어_1" xmlns="http://www.w3.org/2000/svg" xmlns:xlink="http://www.w3.org/1999/xlink" x="0px"
	 y="0px" viewBox="0 0 147.9 147.9" style="enable-background:new 0 0 147.9 147.9;" xml:space="preserve">
<style type="text/css">
	.st0{fill:#F0F0F0;}
	.st1{fill:#C54838;}
	.st2{fill:#C67E0A;}
	.st3{opacity:0.1;enable-background:new    ;}
	.st4{fill:#C7C7C7;}
	.st5{fill:#E3C52A;}
	.st6{fill:#ADADAD;}
	.st7{fill:#DBDBDB;}
</style>
<g>
	<circle class="st0" cx="73.9" cy="73.9" r="72.8"/>
	<g>
		<polygon class="st1" points="62.9,50.5 61.4,50.5 45.7,50.6 44.2,50.6 31.7,50.6 27.7,104.4 65.4,104.2 69.4,50.5 		"/>
		<polygon class="st2" points="115.3,47.4 112.5,47.4 102.5,47.4 101,47.4 100,47.4 85.2,47.5 83.7,47.5 76.5,47.5 65.6,47.6 
			61.6,104.2 109.4,104 120.8,104 		"/>
		<polygon class="st3" points="109.4,104 120.8,104 115.3,47.4 112.5,47.4 		"/>
		<path class="st4" d="M53.5,35.9c-5.2,0-9.3,4.2-9.3,9.4v5.2h1.5v-5.2c0-4.3,3.5-7.9,7.8-7.9s7.9,3.5,7.9,7.8v5.2h1.5v-5.2
			C62.9,40.1,58.6,35.9,53.5,35.9z"/>
		<path class="st4" d="M102.5,42.2c0-5.2-4.3-9.4-9.4-9.4c-5.2,0-9.4,4.3-9.4,9.4V47c-1.7-2.9-4.7-4.8-8.2-4.8
			c-5.2,0-9.5,4.3-9.5,9.5v8.7c0,0.4,0.3,0.8,0.8,0.8c0.4,0,0.8-0.3,0.8-0.8v-8.7c0-4.4,3.5-8,7.9-8s8,3.5,8,7.9v8.7
			c0,0.4,0.3,0.8,0.8,0.8c0.4,0,0.8-0.3,0.8-0.8v-8.7c0-1.5-0.4-3-1.1-4.2h1.3v-5.3c0-4.3,3.5-7.9,7.8-7.9s7.9,3.5,7.9,7.8v5.3h1.5
			L102.5,42.2z"/>
		<polygon class="st5" points="95.4,104.1 90.8,57 80.1,57.1 56.2,57.2 52,104.3 83.9,104.1 		"/>
		<polygon class="st3" points="88,57 83.9,104.1 95.4,104.1 90.8,57 		"/>
		<path class="st6" d="M80.6,49.7c-0.7,0-1.2,0.5-1.2,1.2s0.5,1.2,1.2,1.2s1.2-0.5,1.2-1.2C81.8,50.3,81.3,49.7,80.6,49.7z"/>
		<path class="st6" d="M97.9,49.7c-0.7,0-1.2,0.5-1.2,1.2s0.5,1.2,1.2,1.2s1.2-0.5,1.2-1.2S98.6,49.7,97.9,49.7z"/>
		<path class="st6" d="M41.1,52.8c-0.6,0-1.2,0.5-1.2,1.2c0,0.6,0.5,1.2,1.2,1.2c0.6,0,1.2-0.5,1.2-1.2S41.8,52.8,41.1,52.8z"/>
		<path class="st6" d="M58.3,52.7c-0.6,0-1.2,0.5-1.2,1.2c0,0.6,0.5,1.2,1.2,1.2c0.6,0,1.2-0.5,1.2-1.2S59,52.7,58.3,52.7z"/>
		<path class="st6" d="M62.9,59.4c-0.7,0-1.2,0.5-1.2,1.2s0.5,1.2,1.2,1.2s1.2-0.5,1.2-1.2S63.6,59.4,62.9,59.4z"/>
		<path class="st6" d="M80.4,59.3c-0.7,0-1.2,0.5-1.2,1.2s0.5,1.2,1.2,1.2s1.2-0.5,1.2-1.2S81.1,59.3,80.4,59.3z"/>
		<path class="st7" d="M98.7,42.2c0-5.2-4.3-9.4-9.4-9.4c-5.2,0-9.4,4.3-9.4,9.4v4.9c-1.6-2.9-4.7-4.9-8.3-4.9
			c-5.2,0-9.5,4.3-9.5,9.5v8.7c0,0.4,0.3,0.8,0.8,0.8c0.4,0,0.8-0.3,0.8-0.8v-8.7c0-4.4,3.5-8,7.9-8s8,3.5,8,7.9v8.7
			c0,0.4,0.3,0.8,0.8,0.8c0.4,0,0.8-0.3,0.8-0.8v-8.7c0-0.1,0-0.2,0-0.3c0.2-0.1,0.3-0.3,0.3-0.6v-8.6c0-4.3,3.5-7.9,7.8-7.9
			s7.9,3.5,7.9,7.8v8.6c0,0.4,0.3,0.8,0.8,0.8c0.4,0,0.8-0.3,0.8-0.8L98.7,42.2z"/>
		<path class="st7" d="M49.6,36c-5.2,0-9.3,4.2-9.3,9.4V54c0,0.4,0.3,0.8,0.8,0.8c0.4,0,0.8-0.3,0.8-0.8v-8.6c0-4.3,3.5-7.9,7.8-7.9
			s7.9,3.5,7.9,7.8v8.6c0,0.4,0.3,0.8,0.8,0.8c0.4,0,0.8-0.3,0.8-0.8v-8.6C59,40.1,54.8,35.9,49.6,36z"/>
	</g>
</g>
</svg>
