<?xml version="1.0" encoding="utf-8"?>
<!-- Generator: Adobe Illustrator 26.2.1, SVG Export Plug-In . SVG Version: 6.00 Build 0)  -->
<svg version="1.1" id="레이어_1" xmlns="http://www.w3.org/2000/svg" xmlns:xlink="http://www.w3.org/1999/xlink" x="0px"
	 y="0px" viewBox="0 0 498.9 708.7" style="enable-background:new 0 0 498.9 708.7;" xml:space="preserve">
<style type="text/css">
	.st0{fill:#053962;}
	.st1{fill:#6794C7;}
	.st2{fill:#F5E168;}
</style>
<g>
	<g>
		<polygon class="st0" points="66.3,363.4 52.8,363.4 52.8,354.9 90.1,354.9 90.1,363.4 76.6,363.4 76.6,398.4 66.3,398.4 		"/>
		<polygon class="st0" points="94.4,354.9 104.8,354.9 104.8,371.2 125,371.2 125,354.9 135.4,354.9 135.4,398.4 125,398.4 
			125,379.6 104.8,379.6 104.8,398.4 94.4,398.4 		"/>
		<polygon class="st0" points="140,354.9 172,354.9 172,363.8 150.4,363.8 150.4,371.9 170.8,371.9 170.8,380.7 150.4,380.7 
			150.4,389.6 173.2,389.6 173.2,398.4 140,398.4 		"/>
		<path class="st0" d="M187.5,372.9h6.1c3.8,0,8.7-0.1,8.7-4.8c0-4.4-4.3-5-8.1-5h-6.8V372.9z M177.1,354.9h18.3
			c9.7,0,17.8,3.1,17.8,13.2c0,6.1-3.5,10.8-10.2,11.9l12,18.4h-12.5l-9.9-17.4h-5.1v17.4h-10.4V354.9z"/>
		<path class="st0" d="M239.2,367.6l-5.7,13.5H245L239.2,367.6z M235.2,354.9h8.6l20.5,43.5h-11.7l-4.1-9.2h-18.3l-3.9,9.2h-11.5
			L235.2,354.9z"/>
		<path class="st1" d="M274.7,373.4h6.9c3.7,0,7.3-1.2,7.3-5.2c0-4.5-4.9-5.1-8.9-5.1h-5.3V373.4z M264.3,355h17.5
			c9.8,0,17.9,2.9,17.9,13.2c0,10.2-7.5,13.3-17.4,13.3h-7.6v16.9h-10.4V355z"/>
		<polygon class="st1" points="303.6,355 335.7,355 335.7,363.8 314,363.8 314,371.9 334.5,371.9 334.5,380.8 314,380.8 314,389.6 
			336.9,389.6 336.9,398.4 303.6,398.4 		"/>
		<path class="st1" d="M352,389.6h5.4c9.7,0,16.9-3.4,16.9-13.3c0-8.5-7.4-12.5-16.2-12.5H352V389.6z M341.6,355h15.6
			c15.2,0,27.9,6,27.9,21.9c0,14.1-12.5,21.6-26.5,21.6h-17V355z"/>
		<rect x="389.7" y="355" class="st1" width="10.4" height="43.5"/>
		<path class="st1" d="M437.7,366.3c-2.1-2.3-5.1-3.6-8.9-3.6c-7.9,0-13.7,5.9-13.7,14c0,8.1,5.8,14,13.3,14c4.2,0,7.6-1.7,9.7-4.7
			l8.7,6c-3.9,5.2-10.6,7.5-17.1,7.5c-14.7,0-25.4-8.9-25.4-22.8c0-13.9,10.7-22.8,25.4-22.8c5.3,0,11.9,1.7,15.9,6.4L437.7,366.3z"
			/>
		<path class="st1" d="M448.3,363.1c0-2.7,2.2-4.9,4.9-4.9c2.7,0,4.9,2.2,4.9,4.9c0,2.7-2.2,4.9-4.9,4.9
			C450.5,368,448.3,365.8,448.3,363.1 M457.4,363.1c0-2.4-1.9-4.3-4.3-4.3c-2.4,0-4.3,1.9-4.3,4.3c0,2.4,1.9,4.3,4.3,4.3
			C455.6,367.4,457.4,365.5,457.4,363.1 M455.6,365.9h-0.8l-1.5-2.5H452v2.5h-0.6v-5.4h2.3c1.4,0,1.9,0.5,1.9,1.4
			c0,1.1-0.7,1.5-1.7,1.5L455.6,365.9z M453,362.8c0.8,0,2,0.1,2-0.9c0-0.7-0.8-0.8-1.4-0.8H452v1.7H453z"/>
		<path class="st2" d="M410.7,323.7c-0.4-8.5-7.6-15.1-16.1-14.7c-8.5,0.4-15.1,7.6-14.7,16.1c0,0.6,0.1,1.3,0.2,1.9
			c9.8,1.7,19.2,3.7,28.1,5.8C409.9,330.2,410.8,327,410.7,323.7"/>
		<path class="st1" d="M35.8,356.1l-0.2-0.7l-0.3-0.8c53.3-21.9,131.4-34.5,214.3-34.5c82.1,0,159.8,12.4,213.1,34.1l-0.5,1.5
			C406.7,337.8,331.3,328,249.6,328C169.2,328,91.3,338.2,35.8,356.1"/>
	</g>
</g>
</svg>
