<?xml version="1.0" encoding="UTF-8"?>
<svg xmlns="http://www.w3.org/2000/svg" xmlns:xlink="http://www.w3.org/1999/xlink" width="212px" height="150px" viewBox="0 0 212 150" version="1.1">
<g id="surface1">
<path style=" stroke:none;fill-rule:nonzero;fill:rgb(0%,0%,0%);fill-opacity:1;" d="M 103.007812 43.828125 C 85.742188 44.160156 70.046875 46.867188 58.257812 51.5625 C 56.34375 52.324219 55.429688 52.730469 53.574219 53.648438 C 46.335938 57.234375 41.808594 61.445312 40.289062 66.023438 C 39.355469 68.84375 39.570312 71.636719 40.945312 74.425781 C 43.34375 79.304688 49.386719 83.792969 58.378906 87.355469 C 68.363281 91.320312 81.445312 93.914062 95.636719 94.746094 C 102.851562 95.171875 110.421875 95.148438 117.300781 94.6875 C 131.96875 93.695312 145.191406 90.902344 155.070312 86.683594 C 163.1875 83.226562 168.613281 79.023438 170.875 74.425781 C 172.5 71.128906 172.5 67.746094 170.875 64.441406 C 168.886719 60.398438 164.425781 56.644531 157.761719 53.402344 C 147.15625 48.246094 131.683594 44.890625 114.582031 44.03125 C 111.355469 43.867188 105.820312 43.773438 103.007812 43.828125 Z M 111.46875 45.847656 C 130.304688 46.492188 147.136719 50.070312 158.125 55.761719 C 165.144531 59.394531 169.308594 63.675781 170.027344 68.015625 C 170.160156 68.800781 170.160156 70.078125 170.027344 70.855469 C 169.128906 76.171875 163.1875 81.300781 153.257812 85.332031 C 143.394531 89.324219 130.167969 91.984375 116.0625 92.8125 C 112.660156 93.007812 111.855469 93.03125 107.421875 93.066406 C 101.835938 93.109375 98.511719 93.011719 93.914062 92.691406 C 72.875 91.203125 55.007812 85.808594 46.59375 78.40625 C 43.863281 75.996094 42.238281 73.445312 41.789062 70.855469 C 41.652344 70.058594 41.652344 68.8125 41.789062 68.015625 C 42.085938 66.289062 42.925781 64.546875 44.285156 62.84375 C 44.816406 62.171875 46.203125 60.773438 46.988281 60.113281 C 52.335938 55.613281 61.261719 51.824219 72.609375 49.238281 C 80.847656 47.363281 90.335938 46.191406 99.988281 45.851562 C 101.988281 45.78125 109.476562 45.78125 111.46875 45.847656 Z M 111.46875 45.847656 "/>
<path style=" stroke:none;fill-rule:nonzero;fill:rgb(0%,0%,0%);fill-opacity:1;" d="M 102.042969 47.757812 C 101.679688 47.769531 100.550781 47.804688 99.535156 47.84375 C 71.898438 48.816406 49.378906 56.257812 44.933594 65.886719 C 44.0625 67.765625 43.917969 69.828125 44.515625 71.738281 C 44.71875 72.410156 45.289062 73.574219 45.734375 74.242188 C 47.058594 76.226562 49.222656 78.1875 51.960938 79.886719 C 61.484375 85.808594 77.972656 89.78125 97.027344 90.757812 C 100.453125 90.925781 103.46875 90.984375 107.449219 90.949219 C 111.128906 90.914062 112.40625 90.878906 115.277344 90.726562 C 134.535156 89.699219 151.355469 85.480469 160.511719 79.386719 C 164.480469 76.734375 166.757812 73.921875 167.40625 70.867188 C 167.59375 70.011719 167.59375 68.691406 167.40625 67.820312 C 166.421875 63.113281 161.308594 58.773438 152.59375 55.238281 C 142.261719 51.042969 128.476562 48.507812 112.40625 47.835938 C 110.957031 47.777344 103.359375 47.722656 102.042969 47.757812 Z M 63.5625 63.847656 L 63.546875 64.734375 L 63.363281 64.453125 C 63.269531 64.300781 63.128906 64.132812 63.0625 64.089844 C 62.960938 64.023438 62.09375 64.003906 58.46875 63.984375 L 53.996094 63.960938 L 53.980469 65.425781 L 53.96875 66.894531 L 60.664062 66.894531 L 60.855469 66.738281 C 60.960938 66.648438 61.09375 66.476562 61.160156 66.355469 L 61.273438 66.140625 L 61.28125 67.875 C 61.28125 68.835938 61.265625 69.617188 61.25 69.617188 C 61.238281 69.617188 61.164062 69.507812 61.097656 69.375 C 61.027344 69.234375 60.886719 69.074219 60.777344 69.011719 C 60.589844 68.898438 60.453125 68.890625 57.277344 68.890625 L 53.96875 68.890625 L 53.96875 72.035156 L 58.515625 72.035156 C 63.613281 72.035156 63.183594 72.074219 63.484375 71.582031 L 63.628906 71.339844 L 63.628906 73.066406 C 63.628906 74.78125 63.628906 74.789062 63.519531 74.578125 C 63.453125 74.460938 63.335938 74.296875 63.242188 74.214844 L 63.082031 74.0625 L 57 74.03125 C 53.652344 74.015625 50.957031 73.996094 51.011719 73.984375 C 51.066406 73.976562 51.210938 73.882812 51.34375 73.765625 L 51.578125 73.558594 L 51.597656 68.164062 C 51.609375 62.8125 51.609375 62.769531 51.488281 62.570312 C 51.421875 62.457031 51.265625 62.285156 51.152344 62.183594 L 50.9375 61.996094 L 56.910156 61.996094 C 62.730469 61.996094 62.886719 61.988281 63.074219 61.875 C 63.183594 61.816406 63.328125 61.640625 63.40625 61.5 L 63.546875 61.238281 L 63.5625 62.097656 C 63.570312 62.570312 63.570312 63.355469 63.5625 63.847656 Z M 146.066406 64.820312 L 146.0625 66.261719 L 145.945312 66.035156 C 145.710938 65.601562 145.964844 65.625 141.886719 65.625 L 138.210938 65.625 L 138.222656 66.785156 L 138.242188 67.953125 L 143.300781 67.953125 L 143.457031 67.765625 C 143.546875 67.664062 143.648438 67.53125 143.691406 67.464844 C 143.746094 67.371094 143.765625 67.65625 143.765625 68.832031 L 143.765625 70.3125 L 143.648438 70.089844 C 143.582031 69.96875 143.457031 69.808594 143.371094 69.742188 C 143.214844 69.617188 143.15625 69.617188 140.710938 69.617188 L 138.210938 69.617188 L 138.210938 72.398438 L 141.925781 72.398438 C 146.0625 72.398438 145.890625 72.417969 146.105469 71.992188 L 146.21875 71.765625 L 146.238281 72.503906 C 146.242188 72.914062 146.242188 73.578125 146.238281 73.984375 L 146.21875 74.726562 L 146.078125 74.472656 C 145.832031 74.003906 146.183594 74.03125 140.585938 74.03125 C 136.066406 74.03125 135.601562 74.019531 135.761719 73.941406 C 136.1875 73.722656 136.15625 74.097656 136.15625 69.019531 C 136.15625 63.957031 136.179688 64.257812 135.769531 64.078125 C 135.613281 64.011719 136.300781 63.996094 140.507812 63.992188 C 145.074219 63.992188 145.449219 63.984375 145.636719 63.882812 C 145.753906 63.828125 145.890625 63.691406 145.941406 63.585938 C 145.996094 63.476562 146.042969 63.386719 146.054688 63.386719 C 146.0625 63.386719 146.066406 64.035156 146.066406 64.820312 Z M 84.308594 63.75 C 85.472656 63.871094 86.578125 64.222656 87.675781 64.820312 C 88.179688 65.09375 88.316406 65.117188 88.621094 64.988281 C 88.734375 64.941406 88.734375 64.941406 88.613281 65.148438 C 88.546875 65.261719 88.234375 65.832031 87.925781 66.410156 L 87.355469 67.46875 L 87.324219 67.199219 C 87.285156 66.851562 87.207031 66.71875 86.921875 66.472656 C 86.617188 66.207031 85.589844 65.714844 84.992188 65.558594 C 84.324219 65.378906 82.992188 65.335938 82.335938 65.46875 C 80.050781 65.925781 78.828125 67.652344 79.265625 69.785156 C 79.410156 70.488281 79.664062 70.972656 80.128906 71.429688 C 80.601562 71.898438 81.199219 72.230469 81.867188 72.40625 C 83.203125 72.742188 85.132812 72.539062 86.238281 71.933594 C 86.878906 71.589844 86.84375 71.671875 86.84375 70.574219 L 86.84375 69.609375 L 84.109375 69.648438 L 83.953125 69.835938 C 83.863281 69.9375 83.761719 70.070312 83.71875 70.136719 C 83.664062 70.226562 83.644531 69.945312 83.644531 68.777344 L 83.640625 67.292969 L 83.816406 67.574219 C 83.929688 67.746094 84.058594 67.867188 84.183594 67.917969 C 84.324219 67.960938 85.175781 67.984375 86.898438 67.984375 C 89.367188 67.984375 89.410156 67.984375 89.230469 68.097656 C 88.792969 68.363281 88.808594 68.28125 88.789062 70.304688 L 88.769531 72.128906 L 88.546875 72.355469 C 87.832031 73.101562 86.335938 73.796875 84.878906 74.070312 C 83.984375 74.238281 82.1875 74.226562 81.421875 74.050781 C 80.214844 73.765625 79.335938 73.292969 78.53125 72.488281 C 77.6875 71.648438 77.316406 70.875 77.167969 69.664062 C 76.960938 67.972656 77.597656 66.328125 78.851562 65.304688 C 80.152344 64.246094 81.390625 63.816406 83.496094 63.703125 C 83.601562 63.695312 83.964844 63.71875 84.308594 63.75 Z M 68.574219 64.179688 C 68.378906 64.304688 68.289062 64.410156 68.289062 64.5 C 68.289062 64.585938 69.226562 65.671875 71.160156 67.820312 L 74.03125 71.015625 L 74.03125 67.761719 C 74.03125 64.167969 74.050781 64.355469 73.644531 64.105469 L 73.457031 63.992188 L 74.90625 63.992188 C 76.339844 63.992188 76.359375 63.992188 76.175781 64.101562 C 75.789062 64.34375 75.8125 63.992188 75.8125 69.011719 C 75.8125 73.511719 75.8125 73.597656 75.933594 73.730469 C 76 73.808594 76.140625 73.90625 76.238281 73.949219 C 76.394531 74.015625 76.1875 74.027344 74.785156 74.027344 C 73.476562 74.027344 73.191406 74.007812 73.335938 73.953125 C 73.675781 73.820312 73.789062 73.730469 73.789062 73.589844 C 73.789062 73.5 73.523438 73.160156 73.023438 72.605469 C 72.59375 72.140625 71.203125 70.589844 69.921875 69.167969 L 67.59375 66.585938 L 67.578125 70.105469 C 67.5625 74.015625 67.535156 73.761719 67.957031 73.949219 C 68.113281 74.015625 67.9375 74.027344 66.65625 74.027344 L 65.175781 74.027344 L 65.402344 73.90625 C 65.527344 73.84375 65.65625 73.734375 65.691406 73.675781 C 65.734375 73.597656 65.75 72.011719 65.75 68.992188 C 65.75 63.929688 65.78125 64.300781 65.359375 64.082031 C 65.1875 63.996094 65.328125 63.992188 67.015625 63.992188 L 68.851562 63.992188 Z M 93.238281 64.113281 C 93.066406 64.203125 92.996094 64.292969 92.953125 64.457031 C 92.910156 64.609375 92.886719 66.054688 92.886719 68.539062 L 92.886719 72.398438 L 95.792969 72.398438 C 97.671875 72.398438 98.734375 72.375 98.816406 72.339844 C 98.875 72.300781 98.984375 72.175781 99.042969 72.046875 L 99.164062 71.824219 L 99.164062 73.246094 C 99.164062 74.484375 99.160156 74.644531 99.085938 74.480469 C 99.039062 74.378906 98.929688 74.238281 98.839844 74.164062 L 98.667969 74.03125 L 94.464844 74.03125 C 90.921875 74.027344 90.289062 74.015625 90.4375 73.949219 C 90.542969 73.90625 90.675781 73.808594 90.742188 73.730469 C 90.863281 73.597656 90.863281 73.5 90.875 69.078125 C 90.886719 65.546875 90.875 64.535156 90.8125 64.414062 C 90.769531 64.335938 90.644531 64.203125 90.535156 64.132812 L 90.328125 63.992188 L 91.894531 63.992188 L 93.460938 63.996094 Z M 106.660156 64.101562 C 106.574219 64.171875 106.527344 64.28125 106.527344 64.390625 C 106.527344 64.492188 107.195312 66.007812 108.128906 68.015625 C 109.007812 69.90625 109.898438 71.8125 110.097656 72.246094 C 110.488281 73.09375 110.628906 73.253906 110.980469 73.265625 C 111.101562 73.269531 111.179688 73.289062 111.15625 73.3125 C 111.125 73.335938 110.472656 73.628906 109.699219 73.960938 C 108.429688 74.511719 108.308594 74.550781 108.441406 74.394531 C 108.738281 74.039062 108.726562 73.964844 108.078125 72.550781 L 107.492188 71.25 L 102.941406 71.25 L 102.398438 72.433594 C 102.101562 73.089844 101.835938 73.679688 101.804688 73.753906 C 101.734375 73.941406 101.800781 74.164062 101.988281 74.394531 L 102.144531 74.582031 L 101.855469 74.460938 C 99.902344 73.679688 99.339844 73.433594 99.523438 73.425781 C 99.792969 73.425781 100.042969 73.289062 100.132812 73.082031 C 100.574219 72.128906 103.859375 64.746094 103.921875 64.574219 C 104.003906 64.34375 104 64.332031 103.84375 64.160156 L 103.679688 63.992188 L 105.238281 63.992188 C 106.765625 63.992188 106.796875 63.992188 106.660156 64.101562 Z M 115.113281 64.117188 C 114.988281 64.179688 114.839844 64.304688 114.785156 64.386719 C 114.703125 64.511719 114.703125 64.554688 114.769531 64.640625 C 114.867188 64.765625 120.226562 70.734375 120.394531 70.917969 C 120.511719 71.039062 120.515625 71.003906 120.492188 67.734375 C 120.472656 64.125 120.492188 64.335938 120.109375 64.101562 C 119.929688 63.992188 119.949219 63.992188 121.378906 63.992188 L 122.832031 63.992188 L 122.644531 64.105469 C 122.230469 64.359375 122.257812 64.027344 122.257812 69.011719 C 122.257812 73.996094 122.230469 73.664062 122.644531 73.917969 L 122.832031 74.03125 L 121.230469 74.03125 C 119.632812 74.03125 119.628906 74.03125 119.871094 73.917969 C 120.148438 73.796875 120.28125 73.65625 120.25 73.523438 C 120.238281 73.476562 119.621094 72.761719 118.871094 71.933594 C 118.121094 71.109375 116.726562 69.554688 115.761719 68.484375 L 114.007812 66.539062 L 113.988281 70.023438 C 113.976562 73.867188 113.953125 73.667969 114.359375 73.910156 L 114.550781 74.03125 L 111.652344 74.03125 L 111.875 73.898438 C 111.996094 73.832031 112.121094 73.707031 112.15625 73.628906 C 112.207031 73.523438 112.226562 72.121094 112.226562 68.992188 C 112.226562 64.035156 112.25 64.359375 111.835938 64.105469 C 111.652344 63.992188 111.65625 63.992188 113.492188 63.992188 L 115.335938 63.996094 Z M 131.394531 64.183594 C 132.300781 64.433594 132.886719 64.765625 133.503906 65.378906 C 134.375 66.253906 134.75 67.167969 134.808594 68.59375 C 134.851562 69.496094 134.765625 70.160156 134.53125 70.832031 C 134.042969 72.210938 132.910156 73.257812 131.414062 73.722656 C 130.542969 73.996094 130.027344 74.03125 126.941406 74.03125 C 124.058594 74.03125 124.039062 74.03125 124.226562 73.917969 C 124.636719 73.664062 124.613281 73.996094 124.613281 69.011719 C 124.613281 64.027344 124.636719 64.359375 124.226562 64.105469 C 124.039062 63.992188 124.050781 63.984375 127.421875 64.011719 L 130.808594 64.027344 Z M 155.949219 64.132812 C 157.191406 64.5 157.820312 65.183594 157.980469 66.339844 C 158.195312 67.953125 157.3125 69.15625 155.640625 69.53125 C 155.335938 69.597656 155.203125 69.652344 155.234375 69.695312 C 155.429688 70.023438 157.632812 73.238281 157.863281 73.53125 C 158.027344 73.734375 158.261719 73.988281 158.390625 74.09375 C 158.941406 74.523438 159.882812 74.847656 160.824219 74.925781 L 161.328125 74.96875 L 160.996094 75.167969 C 159.628906 75.972656 158.09375 75.882812 156.824219 74.921875 C 156.074219 74.359375 155.710938 73.90625 154.273438 71.726562 L 152.882812 69.617188 L 149.933594 69.617188 L 149.933594 71.605469 C 149.933594 73.800781 149.921875 73.734375 150.328125 73.941406 C 150.496094 74.027344 150.382812 74.03125 148.90625 74.03125 C 147.332031 74.027344 147.304688 74.027344 147.511719 73.917969 C 147.890625 73.710938 147.875 73.949219 147.875 69.011719 C 147.875 64.078125 147.890625 64.3125 147.511719 64.105469 C 147.3125 63.996094 147.410156 63.992188 151.445312 64.011719 C 155.199219 64.023438 155.621094 64.035156 155.949219 64.132812 Z M 113.625 78.398438 C 113.644531 79.960938 113.652344 79.996094 113.796875 80.257812 C 114.042969 80.699219 114.199219 80.777344 114.8125 80.777344 C 115.265625 80.777344 115.359375 80.757812 115.535156 80.636719 C 115.921875 80.359375 115.933594 80.285156 115.972656 78.476562 L 116 76.84375 L 116.261719 76.828125 L 116.519531 76.808594 L 116.503906 78.519531 L 116.484375 80.230469 L 116.308594 80.546875 C 115.996094 81.113281 115.542969 81.320312 114.679688 81.277344 C 114.207031 81.261719 114.078125 81.230469 113.84375 81.089844 C 113.6875 81 113.503906 80.847656 113.433594 80.753906 C 113.148438 80.347656 113.117188 80.136719 113.082031 78.527344 C 113.070312 77.683594 113.070312 76.960938 113.089844 76.90625 C 113.113281 76.84375 113.210938 76.816406 113.367188 76.816406 L 113.601562 76.816406 Z M 119.84375 76.953125 C 120.195312 77.105469 120.339844 77.316406 120.371094 77.722656 L 120.394531 78.085938 L 120.148438 78.085938 C 119.929688 78.085938 119.898438 78.066406 119.898438 77.941406 C 119.898438 77.691406 119.777344 77.4375 119.621094 77.363281 C 119.429688 77.28125 118.285156 77.28125 118.03125 77.363281 C 117.785156 77.457031 117.722656 77.578125 117.722656 78.023438 C 117.722656 78.691406 117.816406 78.75 118.933594 78.808594 C 120.117188 78.882812 120.335938 78.996094 120.457031 79.640625 C 120.578125 80.304688 120.414062 80.902344 120.050781 81.144531 C 119.730469 81.355469 118.015625 81.351562 117.609375 81.144531 C 117.355469 81.011719 117.1875 80.636719 117.179688 80.214844 L 117.179688 79.898438 L 117.652344 79.898438 L 117.695312 80.230469 C 117.710938 80.414062 117.785156 80.625 117.84375 80.699219 C 117.949219 80.832031 117.996094 80.835938 118.8125 80.835938 L 119.671875 80.835938 L 119.816406 80.667969 C 119.941406 80.523438 119.960938 80.4375 119.960938 80.042969 C 119.960938 79.390625 119.882812 79.324219 119.046875 79.269531 C 118.054688 79.210938 117.808594 79.167969 117.609375 79.046875 C 117.289062 78.851562 117.210938 78.664062 117.210938 78.085938 C 117.210938 77.308594 117.453125 76.972656 118.09375 76.875 C 118.546875 76.800781 119.605469 76.851562 119.84375 76.953125 Z M 124.035156 78.984375 C 124.515625 80.183594 124.914062 81.179688 124.914062 81.199219 C 124.914062 81.21875 124.789062 81.230469 124.632812 81.21875 L 124.347656 81.199219 L 124.09375 80.566406 L 123.839844 79.929688 L 121.992188 79.929688 L 121.738281 80.566406 L 121.484375 81.199219 L 121.203125 81.21875 C 121.054688 81.230469 120.925781 81.21875 120.925781 81.195312 C 120.925781 81.167969 121.3125 80.207031 121.777344 79.058594 C 122.25 77.910156 122.644531 76.929688 122.660156 76.886719 C 122.679688 76.851562 122.792969 76.816406 122.921875 76.816406 L 123.144531 76.816406 Z M 129.992188 77.660156 C 129.992188 77.898438 129.984375 77.902344 129.78125 77.902344 C 129.582031 77.902344 129.570312 77.890625 129.570312 77.703125 C 129.570312 77.457031 129.597656 77.417969 129.824219 77.417969 C 129.980469 77.417969 129.992188 77.4375 129.992188 77.660156 Z M 142.925781 79.324219 L 142.925781 81.230469 L 142.5 81.230469 L 142.5 79.519531 L 142.496094 77.8125 L 142.019531 78.328125 L 141.539062 78.839844 L 141.273438 78.574219 L 141.808594 78 L 142.332031 77.417969 L 142.925781 77.417969 Z M 146.304688 77.496094 C 146.628906 77.613281 146.757812 77.835938 146.78125 78.34375 C 146.796875 78.851562 146.726562 79.039062 146.441406 79.179688 L 146.242188 79.28125 L 146.425781 79.34375 C 146.71875 79.445312 146.824219 79.675781 146.824219 80.230469 C 146.824219 80.59375 146.792969 80.765625 146.714844 80.886719 C 146.507812 81.207031 146.351562 81.253906 145.53125 81.277344 C 144.273438 81.316406 144.054688 81.167969 144.023438 80.261719 C 143.996094 79.632812 144.046875 79.507812 144.394531 79.347656 C 144.570312 79.269531 144.605469 79.234375 144.519531 79.234375 C 144.296875 79.234375 144.097656 78.984375 144.054688 78.652344 C 143.980469 78.058594 144.167969 77.589844 144.515625 77.484375 C 144.792969 77.40625 146.0625 77.414062 146.304688 77.496094 Z M 149.917969 77.558594 C 150.296875 77.765625 150.328125 77.898438 150.328125 79.386719 C 150.328125 80.867188 150.308594 80.941406 149.917969 81.152344 C 149.757812 81.242188 149.574219 81.261719 148.90625 81.261719 C 147.777344 81.261719 147.542969 81.140625 147.503906 80.550781 L 147.488281 80.292969 L 147.699219 80.292969 C 147.890625 80.292969 147.910156 80.304688 147.945312 80.527344 C 147.964844 80.65625 148.019531 80.78125 148.0625 80.804688 C 148.292969 80.953125 149.609375 80.914062 149.765625 80.757812 C 149.851562 80.671875 149.929688 80.21875 149.929688 79.789062 L 149.933594 79.46875 L 149.753906 79.601562 C 149.386719 79.875 148.050781 79.820312 147.773438 79.519531 C 147.433594 79.148438 147.433594 78.042969 147.777344 77.671875 C 147.972656 77.46875 148.199219 77.425781 149 77.4375 C 149.546875 77.449219 149.773438 77.480469 149.917969 77.558594 Z M 153.378906 78.71875 L 153.378906 80.019531 L 153.652344 80.019531 C 153.910156 80.019531 153.921875 80.027344 153.921875 80.203125 C 153.921875 80.378906 153.910156 80.382812 153.652344 80.382812 L 153.378906 80.382812 L 153.378906 81.230469 L 152.957031 81.230469 L 152.957031 80.382812 L 150.839844 80.382812 L 150.839844 80.109375 C 150.839844 79.851562 150.882812 79.785156 151.796875 78.628906 L 152.746094 77.417969 L 153.378906 77.417969 Z M 128.644531 78.570312 C 128.796875 78.664062 128.902344 78.878906 128.902344 79.082031 C 128.902344 79.203125 128.875 79.234375 128.753906 79.234375 C 128.632812 79.234375 128.589844 79.199219 128.558594 79.050781 C 128.511719 78.804688 128.390625 78.75 127.875 78.75 C 127.285156 78.75 127.210938 78.796875 127.210938 79.199219 C 127.210938 79.398438 127.242188 79.546875 127.296875 79.589844 C 127.339844 79.628906 127.605469 79.675781 127.882812 79.695312 C 128.597656 79.742188 128.777344 79.808594 128.878906 80.054688 C 128.988281 80.316406 128.988281 80.636719 128.875 80.902344 C 128.757812 81.1875 128.492188 81.289062 127.894531 81.289062 C 127.167969 81.289062 126.855469 81.074219 126.847656 80.578125 C 126.847656 80.394531 126.863281 80.378906 127.019531 80.394531 C 127.15625 80.414062 127.183594 80.445312 127.199219 80.625 C 127.222656 80.925781 127.339844 80.988281 127.914062 80.988281 C 128.53125 80.988281 128.601562 80.933594 128.601562 80.480469 C 128.601562 80.285156 128.570312 80.128906 128.523438 80.09375 C 128.480469 80.054688 128.214844 80.007812 127.929688 79.988281 C 127.199219 79.933594 127.035156 79.867188 126.929688 79.609375 C 126.824219 79.355469 126.855469 78.929688 127 78.707031 C 127.050781 78.636719 127.183594 78.542969 127.289062 78.515625 C 127.5625 78.429688 128.480469 78.464844 128.644531 78.570312 Z M 129.992188 79.898438 L 129.992188 81.230469 L 129.570312 81.230469 L 129.570312 78.570312 L 129.992188 78.570312 Z M 131.078125 78.730469 L 131.078125 78.890625 L 131.238281 78.742188 C 131.371094 78.621094 131.464844 78.597656 131.859375 78.582031 C 132.210938 78.5625 132.378906 78.582031 132.519531 78.652344 C 132.878906 78.839844 132.917969 78.957031 132.941406 80.148438 L 132.964844 81.230469 L 132.535156 81.230469 L 132.519531 80.171875 C 132.507812 79.324219 132.480469 79.101562 132.410156 79.023438 C 132.277344 78.894531 131.824219 78.847656 131.515625 78.929688 C 131.132812 79.035156 131.078125 79.199219 131.078125 80.324219 L 131.078125 81.230469 L 130.65625 81.230469 L 130.65625 79.941406 C 130.65625 79.226562 130.675781 78.628906 130.699219 78.609375 C 130.71875 78.585938 130.8125 78.570312 130.910156 78.570312 C 131.054688 78.570312 131.078125 78.59375 131.078125 78.730469 Z M 135.503906 78.714844 C 135.667969 78.824219 135.792969 79.089844 135.792969 79.332031 C 135.792969 79.453125 135.761719 79.476562 135.613281 79.476562 C 135.425781 79.476562 135.40625 79.457031 135.347656 79.160156 C 135.253906 78.742188 134.113281 78.785156 134 79.214844 C 133.972656 79.304688 133.957031 79.667969 133.957031 80.015625 C 133.957031 80.625 133.960938 80.644531 134.125 80.78125 C 134.269531 80.910156 134.347656 80.925781 134.765625 80.925781 C 135.1875 80.925781 135.253906 80.914062 135.335938 80.792969 C 135.390625 80.722656 135.429688 80.570312 135.429688 80.457031 C 135.429688 80.261719 135.441406 80.257812 135.628906 80.273438 C 135.789062 80.285156 135.828125 80.324219 135.84375 80.449219 C 135.871094 80.703125 135.703125 81.03125 135.480469 81.152344 C 135.328125 81.234375 135.148438 81.261719 134.707031 81.261719 C 133.714844 81.261719 133.539062 81.058594 133.535156 79.929688 C 133.527344 79.15625 133.628906 78.871094 133.988281 78.675781 C 134.265625 78.519531 135.25 78.542969 135.503906 78.714844 Z M 138.210938 78.675781 C 138.507812 78.824219 138.632812 79.105469 138.632812 79.609375 L 138.632812 80.019531 L 136.761719 80.019531 L 136.761719 80.351562 C 136.761719 80.84375 136.871094 80.925781 137.492188 80.925781 C 138.070312 80.925781 138.210938 80.867188 138.210938 80.625 C 138.210938 80.457031 138.230469 80.445312 138.421875 80.445312 C 138.621094 80.445312 138.632812 80.457031 138.632812 80.660156 C 138.632812 81.128906 138.179688 81.339844 137.308594 81.277344 C 136.519531 81.21875 136.335938 80.964844 136.335938 79.929688 C 136.335938 79.058594 136.484375 78.71875 136.910156 78.609375 C 137.21875 78.53125 138.003906 78.574219 138.210938 78.675781 Z M 138.210938 78.675781 "/>
<path style=" stroke:none;fill-rule:nonzero;fill:rgb(0%,0%,0%);fill-opacity:1;" d="M 104.441406 67.933594 C 104.03125 68.832031 103.710938 69.582031 103.722656 69.59375 C 103.734375 69.605469 104.410156 69.609375 105.226562 69.605469 L 106.699219 69.585938 L 105.96875 67.964844 C 105.566406 67.078125 105.21875 66.339844 105.207031 66.328125 C 105.195312 66.308594 104.851562 67.035156 104.441406 67.933594 Z M 104.441406 67.933594 "/>
<path style=" stroke:none;fill-rule:nonzero;fill:rgb(0%,0%,0%);fill-opacity:1;" d="M 126.667969 69.019531 L 126.667969 72.410156 L 128.347656 72.386719 C 129.796875 72.363281 130.082031 72.339844 130.480469 72.230469 C 132.09375 71.792969 132.765625 70.816406 132.773438 68.910156 C 132.773438 67.269531 132.300781 66.289062 131.328125 65.921875 C 130.6875 65.679688 130.179688 65.632812 128.378906 65.625 L 126.667969 65.625 Z M 126.667969 69.019531 "/>
<path style=" stroke:none;fill-rule:nonzero;fill:rgb(0%,0%,0%);fill-opacity:1;" d="M 149.933594 66.804688 L 149.933594 67.996094 L 152.429688 67.964844 C 154.207031 67.949219 154.992188 67.917969 155.179688 67.863281 C 155.738281 67.699219 156.03125 67.191406 155.949219 66.5625 C 155.894531 66.15625 155.722656 65.902344 155.417969 65.769531 C 155.1875 65.667969 154.9375 65.65625 152.550781 65.636719 L 149.933594 65.617188 Z M 149.933594 66.804688 "/>
<path style=" stroke:none;fill-rule:nonzero;fill:rgb(0%,0%,0%);fill-opacity:1;" d="M 122.667969 78.1875 C 122.546875 78.515625 122.394531 78.925781 122.324219 79.09375 L 122.195312 79.414062 L 123.628906 79.414062 L 123.289062 78.507812 C 123.101562 78.011719 122.9375 77.601562 122.921875 77.601562 C 122.902344 77.601562 122.789062 77.867188 122.667969 78.1875 Z M 122.667969 78.1875 "/>
<path style=" stroke:none;fill-rule:nonzero;fill:rgb(0%,0%,0%);fill-opacity:1;" d="M 144.804688 77.835938 C 144.539062 77.910156 144.496094 77.980469 144.496094 78.429688 C 144.496094 78.726562 144.519531 78.835938 144.609375 78.925781 C 144.839844 79.15625 145.976562 79.167969 146.207031 78.945312 C 146.429688 78.714844 146.410156 78.023438 146.175781 77.898438 C 146.011719 77.804688 145.074219 77.769531 144.804688 77.835938 Z M 144.804688 77.835938 "/>
<path style=" stroke:none;fill-rule:nonzero;fill:rgb(0%,0%,0%);fill-opacity:1;" d="M 144.769531 79.535156 C 144.503906 79.621094 144.4375 79.753906 144.4375 80.214844 C 144.4375 80.769531 144.507812 80.835938 145.136719 80.886719 C 145.730469 80.925781 146.183594 80.859375 146.289062 80.710938 C 146.339844 80.644531 146.371094 80.429688 146.371094 80.171875 C 146.371094 79.574219 146.308594 79.523438 145.542969 79.5 C 145.214844 79.488281 144.871094 79.507812 144.769531 79.535156 Z M 144.769531 79.535156 "/>
<path style=" stroke:none;fill-rule:nonzero;fill:rgb(0%,0%,0%);fill-opacity:1;" d="M 148.359375 77.824219 C 148.054688 77.871094 147.972656 78.042969 147.972656 78.609375 C 147.972656 79.070312 147.984375 79.136719 148.105469 79.234375 C 148.382812 79.457031 149.492188 79.457031 149.765625 79.234375 C 149.878906 79.144531 149.898438 79.070312 149.894531 78.648438 C 149.894531 78.074219 149.828125 77.925781 149.523438 77.84375 C 149.304688 77.78125 148.683594 77.777344 148.359375 77.824219 Z M 148.359375 77.824219 "/>
<path style=" stroke:none;fill-rule:nonzero;fill:rgb(0%,0%,0%);fill-opacity:1;" d="M 152.054688 78.871094 L 151.191406 79.988281 L 152.050781 80.007812 C 152.527344 80.015625 152.921875 80.015625 152.9375 80.003906 C 152.949219 79.988281 152.949219 79.476562 152.945312 78.863281 L 152.925781 77.753906 Z M 152.054688 78.871094 "/>
<path style=" stroke:none;fill-rule:nonzero;fill:rgb(0%,0%,0%);fill-opacity:1;" d="M 137.09375 78.929688 C 136.851562 79.011719 136.761719 79.148438 136.761719 79.425781 L 136.761719 79.65625 L 138.230469 79.65625 L 138.191406 79.378906 C 138.179688 79.226562 138.121094 79.058594 138.066406 79.003906 C 137.957031 78.890625 137.363281 78.847656 137.09375 78.929688 Z M 137.09375 78.929688 "/>
<path style=" stroke:none;fill-rule:nonzero;fill:rgb(0%,0%,0%);fill-opacity:1;" d="M 55.597656 100.585938 C 55.597656 101.0625 55.617188 101.191406 55.683594 101.191406 C 55.730469 101.191406 55.78125 101.148438 55.804688 101.097656 C 55.828125 101.027344 55.980469 101.007812 56.597656 101.007812 L 57.351562 101.007812 L 57.351562 102.761719 C 57.351562 104.269531 57.339844 104.523438 57.261719 104.550781 C 57.210938 104.578125 57.167969 104.625 57.167969 104.671875 C 57.167969 104.738281 57.308594 104.757812 57.835938 104.757812 C 58.359375 104.757812 58.5 104.738281 58.5 104.671875 C 58.5 104.625 58.457031 104.578125 58.410156 104.550781 C 58.332031 104.523438 58.316406 104.269531 58.316406 102.761719 L 58.316406 101.007812 L 59.074219 101.007812 C 59.691406 101.007812 59.839844 101.027344 59.863281 101.097656 C 59.890625 101.148438 59.9375 101.191406 59.984375 101.191406 C 60.050781 101.191406 60.070312 101.0625 60.070312 100.585938 C 60.070312 100.113281 60.050781 99.980469 59.984375 99.980469 C 59.945312 99.980469 59.890625 100.035156 59.871094 100.101562 C 59.839844 100.214844 59.785156 100.222656 57.835938 100.222656 C 55.882812 100.222656 55.828125 100.214844 55.796875 100.101562 C 55.78125 100.035156 55.726562 99.980469 55.683594 99.980469 C 55.617188 99.980469 55.597656 100.113281 55.597656 100.585938 Z M 55.597656 100.585938 "/>
<path style=" stroke:none;fill-rule:nonzero;fill:rgb(0%,0%,0%);fill-opacity:1;" d="M 60.734375 100.585938 C 60.734375 101.0625 60.753906 101.191406 60.820312 101.191406 C 60.867188 101.191406 60.917969 101.148438 60.941406 101.097656 C 60.964844 101.027344 61.117188 101.007812 61.734375 101.007812 L 62.488281 101.007812 L 62.488281 102.761719 C 62.488281 104.269531 62.476562 104.523438 62.398438 104.550781 C 62.347656 104.578125 62.308594 104.625 62.308594 104.671875 C 62.308594 104.738281 62.445312 104.757812 62.972656 104.757812 C 63.496094 104.757812 63.636719 104.738281 63.636719 104.671875 C 63.636719 104.625 63.59375 104.578125 63.546875 104.550781 C 63.46875 104.523438 63.453125 104.269531 63.453125 102.761719 L 63.453125 101.007812 L 64.210938 101.007812 C 64.828125 101.007812 64.976562 101.027344 65.003906 101.097656 C 65.027344 101.148438 65.074219 101.191406 65.121094 101.191406 C 65.1875 101.191406 65.207031 101.0625 65.207031 100.585938 C 65.207031 100.113281 65.1875 99.980469 65.121094 99.980469 C 65.082031 99.980469 65.027344 100.035156 65.007812 100.101562 C 64.976562 100.214844 64.921875 100.222656 62.972656 100.222656 C 61.019531 100.222656 60.964844 100.214844 60.933594 100.101562 C 60.917969 100.035156 60.863281 99.980469 60.820312 99.980469 C 60.753906 99.980469 60.734375 100.113281 60.734375 100.585938 Z M 60.734375 100.585938 "/>
<path style=" stroke:none;fill-rule:nonzero;fill:rgb(0%,0%,0%);fill-opacity:1;" d="M 54.328125 100.132812 C 54.261719 100.210938 53.96875 100.222656 52.328125 100.222656 C 50.691406 100.222656 50.402344 100.234375 50.402344 100.304688 C 50.402344 100.355469 50.429688 100.414062 50.460938 100.433594 C 50.5 100.457031 50.523438 101.207031 50.523438 102.488281 C 50.523438 103.773438 50.5 104.523438 50.460938 104.546875 C 50.429688 104.566406 50.402344 104.625 50.402344 104.671875 C 50.402344 104.746094 50.699219 104.757812 52.390625 104.757812 C 53.652344 104.757812 54.394531 104.78125 54.421875 104.820312 C 54.4375 104.847656 54.5 104.878906 54.546875 104.878906 C 54.613281 104.878906 54.632812 104.769531 54.632812 104.335938 C 54.632812 103.777344 54.578125 103.675781 54.414062 103.894531 C 54.347656 103.988281 54.191406 104.003906 52.945312 104.019531 L 51.550781 104.039062 L 51.550781 102.75 L 52.46875 102.773438 C 53.132812 102.785156 53.386719 102.808594 53.410156 102.863281 C 53.421875 102.90625 53.472656 102.945312 53.519531 102.945312 C 53.585938 102.945312 53.605469 102.828125 53.605469 102.398438 C 53.605469 101.859375 53.566406 101.769531 53.421875 101.945312 C 53.363281 102.019531 53.175781 102.035156 52.449219 102.035156 L 51.550781 102.035156 L 51.550781 101.007812 L 52.910156 101.007812 C 54.0625 101.007812 54.28125 101.019531 54.304688 101.097656 C 54.328125 101.148438 54.378906 101.191406 54.425781 101.191406 C 54.492188 101.191406 54.511719 101.070312 54.511719 100.613281 C 54.511719 100.046875 54.472656 99.957031 54.328125 100.132812 Z M 54.328125 100.132812 "/>
<path style=" stroke:none;fill-rule:nonzero;fill:rgb(0%,0%,0%);fill-opacity:1;" d="M 70.320312 100.132812 C 70.289062 100.210938 70.011719 100.222656 68.320312 100.222656 C 66.695312 100.222656 66.355469 100.234375 66.355469 100.304688 C 66.355469 100.347656 66.398438 100.421875 66.445312 100.464844 C 66.523438 100.53125 66.535156 100.832031 66.535156 102.53125 C 66.535156 104.242188 66.523438 104.523438 66.445312 104.550781 C 66.398438 104.578125 66.355469 104.625 66.355469 104.671875 C 66.355469 104.746094 66.6875 104.757812 68.375 104.757812 C 69.660156 104.757812 70.410156 104.78125 70.433594 104.820312 C 70.539062 104.980469 70.585938 104.832031 70.585938 104.335938 C 70.585938 104.03125 70.566406 103.789062 70.542969 103.789062 C 70.527344 103.789062 70.453125 103.839844 70.386719 103.894531 C 70.285156 103.988281 70.121094 104.003906 68.898438 104.003906 L 67.535156 104.003906 L 67.535156 102.792969 L 68.421875 102.792969 C 69.050781 102.792969 69.335938 102.816406 69.390625 102.863281 C 69.570312 103.050781 69.621094 102.957031 69.621094 102.398438 C 69.621094 101.976562 69.601562 101.855469 69.535156 101.855469 C 69.484375 101.855469 69.4375 101.898438 69.414062 101.945312 C 69.390625 102.019531 69.21875 102.035156 68.441406 102.035156 L 67.503906 102.035156 L 67.503906 101.007812 L 68.859375 101.007812 C 69.980469 101.007812 70.222656 101.019531 70.285156 101.097656 C 70.328125 101.148438 70.398438 101.191406 70.441406 101.191406 C 70.507812 101.191406 70.527344 101.0625 70.527344 100.613281 C 70.527344 100.160156 70.507812 100.039062 70.441406 100.039062 C 70.394531 100.039062 70.34375 100.082031 70.320312 100.132812 Z M 70.320312 100.132812 "/>
<path style=" stroke:none;fill-rule:nonzero;fill:rgb(0%,0%,0%);fill-opacity:1;" d="M 96.851562 100.132812 C 96.820312 100.210938 96.546875 100.222656 94.886719 100.222656 C 92.933594 100.222656 92.710938 100.246094 92.964844 100.433594 C 93.054688 100.5 93.066406 100.71875 93.066406 102.515625 C 93.066406 104.242188 93.054688 104.523438 92.976562 104.550781 C 92.929688 104.578125 92.886719 104.625 92.886719 104.671875 C 92.886719 104.746094 93.21875 104.757812 94.898438 104.757812 C 96.292969 104.757812 96.929688 104.777344 96.976562 104.824219 C 97.117188 104.964844 97.175781 104.804688 97.175781 104.335938 C 97.175781 104.074219 97.152344 103.839844 97.117188 103.820312 C 97.085938 103.800781 96.984375 103.839844 96.886719 103.910156 C 96.730469 104.027344 96.652344 104.03125 95.394531 104.019531 L 94.0625 104.003906 L 94.0625 102.792969 L 94.996094 102.792969 C 95.691406 102.792969 95.933594 102.808594 95.957031 102.863281 C 95.96875 102.90625 96.015625 102.945312 96.066406 102.945312 C 96.132812 102.945312 96.148438 102.828125 96.148438 102.398438 C 96.148438 101.976562 96.132812 101.855469 96.066406 101.855469 C 96.015625 101.855469 95.96875 101.898438 95.945312 101.945312 C 95.917969 102.019531 95.75 102.035156 94.972656 102.035156 L 94.035156 102.035156 L 94.035156 101.007812 L 95.386719 101.007812 C 96.511719 101.007812 96.757812 101.027344 96.839844 101.097656 C 97.019531 101.28125 97.054688 101.203125 97.054688 100.613281 C 97.054688 100.160156 97.039062 100.039062 96.972656 100.039062 C 96.921875 100.039062 96.875 100.082031 96.851562 100.132812 Z M 96.851562 100.132812 "/>
<path style=" stroke:none;fill-rule:nonzero;fill:rgb(0%,0%,0%);fill-opacity:1;" d="M 102.554688 100.132812 C 102.488281 100.210938 102.191406 100.222656 100.554688 100.222656 C 98.917969 100.222656 98.628906 100.234375 98.628906 100.304688 C 98.628906 100.355469 98.65625 100.414062 98.6875 100.433594 C 98.722656 100.457031 98.746094 101.207031 98.746094 102.488281 C 98.746094 103.773438 98.722656 104.523438 98.6875 104.546875 C 98.65625 104.566406 98.628906 104.625 98.628906 104.671875 C 98.628906 104.746094 98.921875 104.757812 100.617188 104.757812 C 101.878906 104.757812 102.621094 104.78125 102.644531 104.820312 C 102.664062 104.847656 102.722656 104.878906 102.773438 104.878906 C 102.839844 104.878906 102.859375 104.769531 102.859375 104.335938 C 102.859375 103.777344 102.804688 103.675781 102.640625 103.894531 C 102.574219 103.988281 102.417969 104.003906 101.171875 104.019531 L 99.773438 104.039062 L 99.773438 102.75 L 100.695312 102.773438 C 101.351562 102.785156 101.617188 102.816406 101.636719 102.871094 C 101.648438 102.90625 101.710938 102.945312 101.777344 102.945312 C 101.878906 102.945312 101.890625 102.894531 101.890625 102.433594 C 101.890625 101.890625 101.835938 101.777344 101.65625 101.941406 C 101.570312 102.019531 101.390625 102.035156 100.664062 102.035156 L 99.773438 102.035156 L 99.773438 101.007812 L 101.136719 101.007812 C 102.289062 101.007812 102.507812 101.019531 102.53125 101.097656 C 102.554688 101.148438 102.605469 101.191406 102.652344 101.191406 C 102.71875 101.191406 102.738281 101.070312 102.738281 100.613281 C 102.738281 100.046875 102.699219 99.957031 102.554688 100.132812 Z M 102.554688 100.132812 "/>
<path style=" stroke:none;fill-rule:nonzero;fill:rgb(0%,0%,0%);fill-opacity:1;" d="M 141.632812 100.132812 C 141.601562 100.210938 141.328125 100.222656 139.667969 100.222656 C 137.714844 100.222656 137.492188 100.246094 137.746094 100.433594 C 137.835938 100.5 137.847656 100.71875 137.847656 102.503906 C 137.847656 104.207031 137.835938 104.511719 137.757812 104.578125 C 137.710938 104.617188 137.667969 104.671875 137.667969 104.703125 C 137.667969 104.734375 138.566406 104.757812 139.683594 104.757812 C 140.972656 104.757812 141.722656 104.78125 141.746094 104.820312 C 141.765625 104.847656 141.824219 104.878906 141.875 104.878906 C 141.941406 104.878906 141.957031 104.769531 141.957031 104.335938 C 141.957031 103.996094 141.933594 103.789062 141.898438 103.789062 C 141.859375 103.789062 141.757812 103.84375 141.667969 103.910156 C 141.511719 104.027344 141.425781 104.03125 140.175781 104.019531 L 138.84375 104.003906 L 138.84375 102.792969 L 139.777344 102.792969 C 140.472656 102.792969 140.710938 102.808594 140.738281 102.863281 C 140.75 102.90625 140.796875 102.945312 140.847656 102.945312 C 140.914062 102.945312 140.929688 102.828125 140.929688 102.398438 C 140.929688 101.976562 140.914062 101.855469 140.847656 101.855469 C 140.796875 101.855469 140.75 101.898438 140.726562 101.945312 C 140.699219 102.019531 140.53125 102.035156 139.753906 102.035156 L 138.816406 102.035156 L 138.816406 101.007812 L 140.167969 101.007812 C 141.292969 101.007812 141.539062 101.027344 141.621094 101.097656 C 141.800781 101.28125 141.835938 101.203125 141.835938 100.613281 C 141.835938 100.160156 141.820312 100.039062 141.753906 100.039062 C 141.703125 100.039062 141.65625 100.082031 141.632812 100.132812 Z M 141.632812 100.132812 "/>
<path style=" stroke:none;fill-rule:nonzero;fill:rgb(0%,0%,0%);fill-opacity:1;" d="M 165.828125 100.3125 C 165.828125 100.511719 165.839844 100.523438 166.039062 100.523438 L 166.253906 100.523438 L 166.253906 101.855469 L 166.734375 101.855469 L 166.734375 100.523438 L 166.945312 100.523438 C 167.144531 100.523438 167.160156 100.511719 167.160156 100.3125 L 167.160156 100.101562 L 165.828125 100.101562 Z M 165.828125 100.3125 "/>
<path style=" stroke:none;fill-rule:nonzero;fill:rgb(0%,0%,0%);fill-opacity:1;" d="M 167.339844 100.976562 L 167.339844 101.855469 L 167.703125 101.855469 L 167.703125 101.269531 C 167.703125 100.941406 167.726562 100.707031 167.75 100.734375 C 167.78125 100.773438 167.867188 101.03125 167.945312 101.324219 C 168.078125 101.832031 168.089844 101.855469 168.253906 101.855469 C 168.402344 101.855469 168.425781 101.824219 168.511719 101.535156 C 168.5625 101.363281 168.632812 101.097656 168.679688 100.949219 L 168.761719 100.675781 L 168.777344 101.261719 L 168.796875 101.855469 L 169.152344 101.855469 L 169.152344 100.09375 L 168.839844 100.113281 L 168.523438 100.132812 L 168.398438 100.609375 C 168.324219 100.875 168.253906 101.070312 168.234375 101.03125 C 168.214844 101.003906 168.148438 100.777344 168.089844 100.535156 L 167.980469 100.101562 L 167.339844 100.101562 Z M 167.339844 100.976562 "/>
<path style=" stroke:none;fill-rule:nonzero;fill:rgb(0%,0%,0%);fill-opacity:1;" d="M 82.761719 100.226562 C 82.238281 100.304688 81.699219 100.589844 81.488281 100.894531 C 81.347656 101.09375 81.3125 101.226562 81.292969 101.546875 C 81.246094 102.398438 81.664062 102.648438 83.730469 102.972656 C 84.363281 103.070312 84.625 103.191406 84.65625 103.414062 C 84.746094 104.007812 83.511719 104.242188 82.382812 103.851562 C 81.996094 103.710938 81.765625 103.523438 81.765625 103.332031 C 81.765625 103.257812 81.730469 103.183594 81.683594 103.167969 C 81.621094 103.144531 81.53125 103.289062 81.375 103.667969 C 81.148438 104.203125 81.132812 104.425781 81.3125 104.359375 C 81.363281 104.339844 81.511719 104.363281 81.640625 104.414062 C 82.5625 104.789062 83.785156 104.878906 84.570312 104.636719 C 85.078125 104.480469 85.539062 104.0625 85.609375 103.707031 C 85.671875 103.367188 85.605469 102.894531 85.472656 102.714844 C 85.257812 102.429688 84.648438 102.167969 83.941406 102.058594 C 82.5625 101.855469 82.25 101.746094 82.25 101.480469 C 82.25 101.28125 82.359375 101.148438 82.613281 101.042969 C 83.265625 100.785156 84.847656 101.085938 84.949219 101.492188 C 84.976562 101.589844 85.144531 101.710938 85.179688 101.660156 C 85.1875 101.648438 85.300781 101.429688 85.433594 101.175781 C 85.609375 100.832031 85.65625 100.695312 85.609375 100.652344 C 85.566406 100.613281 85.5 100.613281 85.453125 100.644531 C 85.398438 100.675781 85.289062 100.664062 85.15625 100.601562 C 84.363281 100.257812 83.476562 100.117188 82.761719 100.226562 Z M 82.761719 100.226562 "/>
<path style=" stroke:none;fill-rule:nonzero;fill:rgb(0%,0%,0%);fill-opacity:1;" d="M 144.648438 100.222656 C 143.339844 100.425781 142.707031 101.648438 143.535156 102.363281 C 143.863281 102.640625 144.152344 102.730469 145.179688 102.890625 C 145.648438 102.957031 146.144531 103.066406 146.285156 103.125 C 146.714844 103.3125 146.664062 103.65625 146.175781 103.898438 C 145.644531 104.164062 144.527344 104.050781 143.910156 103.667969 C 143.753906 103.578125 143.710938 103.507812 143.710938 103.367188 C 143.710938 103.226562 143.679688 103.183594 143.59375 103.183594 C 143.445312 103.183594 142.992188 104.261719 143.113281 104.339844 C 143.15625 104.363281 143.214844 104.371094 143.238281 104.359375 C 143.261719 104.339844 143.546875 104.414062 143.863281 104.515625 C 144.570312 104.738281 145.160156 104.804688 145.863281 104.746094 C 147.023438 104.644531 147.679688 104.019531 147.554688 103.15625 C 147.492188 102.773438 147.199219 102.449219 146.742188 102.273438 C 146.558594 102.207031 146.007812 102.085938 145.523438 102.007812 C 144.5625 101.855469 144.230469 101.746094 144.183594 101.570312 C 144.140625 101.402344 144.230469 101.207031 144.410156 101.09375 C 144.609375 100.960938 145.433594 100.90625 145.886719 101.003906 C 146.339844 101.097656 146.835938 101.335938 146.878906 101.480469 C 146.96875 101.753906 147.089844 101.671875 147.335938 101.203125 C 147.585938 100.722656 147.613281 100.53125 147.414062 100.640625 C 147.335938 100.675781 147.203125 100.652344 146.945312 100.546875 C 146.183594 100.234375 145.34375 100.117188 144.648438 100.222656 Z M 144.648438 100.222656 "/>
<path style=" stroke:none;fill-rule:nonzero;fill:rgb(0%,0%,0%);fill-opacity:1;" d="M 154.316406 100.226562 C 153.148438 100.410156 152.425781 100.941406 152.164062 101.804688 C 151.832031 102.902344 152.261719 103.953125 153.242188 104.449219 C 153.875 104.769531 155.1875 104.867188 156.097656 104.667969 C 156.886719 104.492188 157.476562 104.148438 157.246094 104.003906 C 157.210938 103.984375 157.1875 103.6875 157.1875 103.335938 C 157.1875 102.984375 157.210938 102.691406 157.246094 102.671875 C 157.285156 102.652344 157.308594 102.59375 157.308594 102.542969 C 157.308594 102.472656 157.132812 102.460938 156.261719 102.460938 C 155.433594 102.460938 155.191406 102.441406 155.097656 102.367188 C 154.867188 102.195312 154.832031 102.246094 154.832031 102.792969 C 154.832031 103.191406 154.847656 103.304688 154.914062 103.304688 C 154.957031 103.304688 155.03125 103.265625 155.070312 103.214844 C 155.132812 103.144531 155.289062 103.125 155.773438 103.125 L 156.402344 103.125 L 156.402344 103.453125 C 156.402344 103.808594 156.382812 103.828125 155.816406 103.972656 C 155.46875 104.054688 154.492188 104.070312 154.195312 103.984375 C 153.796875 103.867188 153.402344 103.585938 153.222656 103.265625 C 153.070312 103.015625 153.046875 102.914062 153.054688 102.519531 C 153.054688 101.566406 153.644531 101.019531 154.75 100.960938 C 155.523438 100.917969 156.402344 101.230469 156.402344 101.558594 C 156.402344 101.820312 156.589844 101.644531 156.855469 101.121094 L 157.136719 100.574219 L 156.964844 100.609375 C 156.84375 100.640625 156.671875 100.609375 156.457031 100.519531 C 155.710938 100.222656 154.988281 100.117188 154.316406 100.226562 Z M 154.316406 100.226562 "/>
<path style=" stroke:none;fill-rule:nonzero;fill:rgb(0%,0%,0%);fill-opacity:1;" d="M 43.996094 100.304688 C 43.996094 100.355469 44.050781 100.425781 44.117188 100.464844 C 44.230469 100.523438 44.238281 100.589844 44.238281 102.527344 C 44.238281 104.472656 44.230469 104.527344 44.117188 104.558594 C 44.050781 104.578125 43.996094 104.632812 43.996094 104.679688 C 43.996094 104.753906 44.273438 104.765625 45.917969 104.746094 C 47.609375 104.726562 47.863281 104.714844 48.074219 104.617188 C 48.734375 104.324219 48.992188 103.707031 48.714844 103.09375 C 48.605469 102.851562 48.21875 102.460938 48.09375 102.460938 C 48.054688 102.460938 48.136719 102.355469 48.273438 102.230469 C 48.832031 101.714844 48.855469 101.0625 48.328125 100.601562 C 47.964844 100.289062 47.816406 100.265625 45.828125 100.238281 C 44.207031 100.214844 43.996094 100.222656 43.996094 100.304688 Z M 47.464844 101.074219 C 47.761719 101.214844 47.808594 101.660156 47.550781 101.898438 C 47.441406 101.992188 47.289062 102.007812 46.316406 102.023438 L 45.203125 102.046875 L 45.203125 101.007812 L 46.261719 101.007812 C 46.914062 101.007812 47.367188 101.03125 47.464844 101.074219 Z M 47.507812 102.894531 C 47.917969 103.070312 47.964844 103.601562 47.601562 103.875 C 47.445312 103.996094 47.355469 104.003906 46.335938 104.003906 L 45.234375 104.003906 L 45.214844 103.464844 C 45.203125 103.167969 45.214844 102.882812 45.234375 102.835938 C 45.28125 102.707031 47.1875 102.761719 47.507812 102.894531 Z M 47.507812 102.894531 "/>
<path style=" stroke:none;fill-rule:nonzero;fill:rgb(0%,0%,0%);fill-opacity:1;" d="M 72.035156 100.304688 C 72.035156 100.359375 72.078125 100.421875 72.128906 100.441406 C 72.207031 100.46875 72.21875 100.761719 72.21875 102.496094 C 72.21875 104.238281 72.207031 104.523438 72.128906 104.550781 C 72.078125 104.578125 72.035156 104.625 72.035156 104.671875 C 72.035156 104.738281 72.175781 104.757812 72.730469 104.757812 C 73.3125 104.757812 73.425781 104.738281 73.425781 104.667969 C 73.425781 104.617188 73.382812 104.578125 73.335938 104.578125 C 73.207031 104.578125 73.179688 104.382812 73.195312 103.640625 L 73.214844 102.972656 L 73.921875 102.957031 L 74.636719 102.9375 L 75.117188 103.675781 C 75.578125 104.371094 75.675781 104.578125 75.542969 104.578125 C 75.511719 104.578125 75.480469 104.617188 75.480469 104.667969 C 75.480469 104.746094 75.609375 104.757812 76.265625 104.757812 C 77.117188 104.757812 77.214844 104.714844 76.859375 104.484375 C 76.703125 104.390625 75.675781 102.996094 75.664062 102.878906 C 75.664062 102.859375 75.765625 102.808594 75.890625 102.773438 C 76.199219 102.675781 76.5625 102.363281 76.695312 102.074219 C 76.917969 101.582031 76.785156 100.960938 76.394531 100.628906 C 76.011719 100.3125 75.734375 100.269531 73.808594 100.238281 C 72.195312 100.210938 72.035156 100.214844 72.035156 100.304688 Z M 75.644531 101.164062 C 75.789062 101.273438 75.8125 101.335938 75.8125 101.582031 C 75.8125 102.097656 75.511719 102.210938 74.140625 102.21875 L 73.246094 102.21875 L 73.246094 100.996094 L 74.355469 101.019531 C 75.378906 101.039062 75.488281 101.050781 75.644531 101.164062 Z M 75.644531 101.164062 "/>
<path style=" stroke:none;fill-rule:nonzero;fill:rgb(0%,0%,0%);fill-opacity:1;" d="M 87.144531 100.304688 C 87.144531 100.355469 87.199219 100.414062 87.265625 100.433594 C 87.378906 100.46875 87.386719 100.523438 87.386719 102.503906 C 87.386719 104.472656 87.378906 104.527344 87.265625 104.558594 C 87.199219 104.578125 87.144531 104.632812 87.144531 104.671875 C 87.144531 104.746094 87.5 104.757812 89.289062 104.757812 C 90.679688 104.757812 91.4375 104.78125 91.4375 104.820312 C 91.4375 104.847656 91.476562 104.878906 91.527344 104.878906 C 91.597656 104.878906 91.617188 104.777344 91.617188 104.335938 C 91.617188 103.777344 91.5625 103.675781 91.398438 103.894531 C 91.332031 103.988281 91.1875 104.003906 89.851562 104.003906 L 88.382812 104.003906 L 88.367188 102.296875 C 88.351562 100.644531 88.351562 100.578125 88.472656 100.480469 C 88.726562 100.265625 88.636719 100.222656 87.871094 100.222656 C 87.285156 100.222656 87.144531 100.238281 87.144531 100.304688 Z M 87.144531 100.304688 "/>
<path style=" stroke:none;fill-rule:nonzero;fill:rgb(0%,0%,0%);fill-opacity:1;" d="M 104.1875 100.300781 C 104.1875 100.355469 104.242188 100.414062 104.308594 100.433594 C 104.421875 100.46875 104.429688 100.523438 104.429688 102.503906 C 104.429688 104.472656 104.421875 104.527344 104.308594 104.558594 C 104.242188 104.578125 104.1875 104.632812 104.1875 104.671875 C 104.1875 104.738281 104.332031 104.757812 104.914062 104.757812 C 105.515625 104.757812 105.636719 104.738281 105.636719 104.667969 C 105.636719 104.617188 105.601562 104.578125 105.554688 104.578125 C 105.417969 104.578125 105.394531 104.429688 105.394531 103.632812 L 105.394531 102.882812 L 106.472656 102.882812 C 107.976562 102.882812 108.398438 102.761719 108.6875 102.273438 C 108.785156 102.109375 108.808594 101.957031 108.808594 101.582031 C 108.804688 100.894531 108.609375 100.578125 108.054688 100.367188 C 107.660156 100.214844 104.1875 100.160156 104.1875 100.300781 Z M 107.578125 101.097656 C 107.898438 101.269531 107.914062 101.886719 107.601562 102.023438 C 107.5 102.074219 107.082031 102.097656 106.421875 102.097656 L 105.394531 102.097656 L 105.394531 101.007812 L 106.394531 101.007812 C 107.179688 101.007812 107.433594 101.027344 107.578125 101.097656 Z M 107.578125 101.097656 "/>
<path style=" stroke:none;fill-rule:nonzero;fill:rgb(0%,0%,0%);fill-opacity:1;" d="M 116.199219 100.257812 C 116.121094 100.332031 116.148438 100.390625 116.273438 100.433594 C 116.386719 100.46875 116.394531 100.523438 116.394531 102.503906 C 116.394531 104.472656 116.386719 104.527344 116.273438 104.558594 C 116.207031 104.578125 116.152344 104.632812 116.152344 104.679688 C 116.152344 104.753906 116.429688 104.765625 118.074219 104.746094 L 119.992188 104.726562 L 120.328125 104.570312 C 120.78125 104.359375 120.945312 104.117188 120.976562 103.628906 C 121 103.304688 120.980469 103.210938 120.84375 102.980469 C 120.757812 102.835938 120.589844 102.652344 120.472656 102.582031 C 120.359375 102.507812 120.261719 102.433594 120.261719 102.421875 C 120.261719 102.410156 120.363281 102.300781 120.496094 102.1875 C 120.800781 101.914062 120.890625 101.691406 120.855469 101.292969 C 120.816406 100.863281 120.636719 100.609375 120.207031 100.410156 C 119.871094 100.253906 119.871094 100.253906 118.054688 100.234375 C 117.058594 100.222656 116.226562 100.234375 116.199219 100.257812 Z M 119.75 101.160156 C 119.90625 101.316406 119.949219 101.59375 119.839844 101.792969 C 119.738281 101.980469 119.433594 102.035156 118.414062 102.035156 L 117.421875 102.035156 L 117.421875 101.007812 L 118.507812 101.007812 C 119.589844 101.007812 119.605469 101.007812 119.75 101.160156 Z M 119.386719 102.824219 C 119.832031 102.894531 120.019531 103.070312 120.019531 103.421875 C 120.019531 103.921875 119.707031 104.03125 118.292969 104.03125 L 117.421875 104.03125 L 117.421875 102.761719 L 118.226562 102.761719 C 118.660156 102.761719 119.1875 102.785156 119.386719 102.824219 Z M 119.386719 102.824219 "/>
<path style=" stroke:none;fill-rule:nonzero;fill:rgb(0%,0%,0%);fill-opacity:1;" d="M 121.996094 100.265625 C 121.917969 100.335938 121.953125 100.390625 122.125 100.457031 C 122.226562 100.5 122.621094 100.953125 123.179688 101.667969 L 124.070312 102.808594 L 124.070312 103.664062 C 124.070312 104.371094 124.050781 104.527344 123.980469 104.550781 C 123.929688 104.578125 123.886719 104.625 123.886719 104.671875 C 123.886719 104.738281 124.027344 104.757812 124.582031 104.757812 C 125.140625 104.757812 125.277344 104.738281 125.277344 104.671875 C 125.277344 104.625 125.234375 104.578125 125.1875 104.550781 C 125.113281 104.527344 125.097656 104.371094 125.097656 103.6875 L 125.097656 102.851562 L 125.972656 101.722656 C 126.457031 101.097656 126.914062 100.542969 127 100.488281 C 127.085938 100.433594 127.152344 100.347656 127.152344 100.304688 C 127.152344 100.238281 127 100.222656 126.394531 100.222656 C 125.621094 100.222656 125.574219 100.238281 125.714844 100.457031 C 125.796875 100.589844 125.785156 100.601562 125.113281 101.539062 L 124.660156 102.15625 L 124.117188 101.449219 C 123.453125 100.578125 123.441406 100.558594 123.554688 100.464844 C 123.605469 100.421875 123.648438 100.347656 123.648438 100.304688 C 123.648438 100.238281 123.484375 100.222656 122.84375 100.222656 C 122.394531 100.222656 122.015625 100.238281 121.996094 100.265625 Z M 121.996094 100.265625 "/>
<path style=" stroke:none;fill-rule:nonzero;fill:rgb(0%,0%,0%);fill-opacity:1;" d="M 131.261719 100.300781 C 131.261719 100.34375 131.316406 100.410156 131.382812 100.453125 C 131.496094 100.523438 131.503906 100.589844 131.503906 102.527344 C 131.503906 104.472656 131.496094 104.527344 131.382812 104.558594 C 131.316406 104.578125 131.261719 104.632812 131.261719 104.679688 C 131.261719 104.753906 131.515625 104.765625 133.03125 104.746094 C 135.050781 104.714844 135.152344 104.699219 135.671875 104.230469 C 136.234375 103.730469 136.484375 102.945312 136.355469 102.101562 C 136.191406 101.070312 135.5625 100.433594 134.546875 100.28125 C 133.90625 100.191406 131.261719 100.203125 131.261719 100.300781 Z M 134.664062 101.09375 C 134.964844 101.203125 135.121094 101.347656 135.253906 101.644531 C 135.496094 102.195312 135.449219 103.058594 135.152344 103.507812 C 134.894531 103.90625 134.621094 103.984375 133.472656 103.988281 L 132.5 104.003906 L 132.480469 102.503906 L 132.46875 101.007812 L 133.449219 101.007812 C 134.121094 101.015625 134.507812 101.039062 134.664062 101.09375 Z M 134.664062 101.09375 "/>
<path style=" stroke:none;fill-rule:nonzero;fill:rgb(0%,0%,0%);fill-opacity:1;" d="M 149.210938 100.304688 C 149.210938 100.355469 149.265625 100.414062 149.332031 100.433594 C 149.398438 100.453125 149.464844 100.53125 149.480469 100.601562 C 149.5 100.675781 149.507812 101.578125 149.5 102.609375 L 149.480469 104.484375 L 149.347656 104.546875 C 149.269531 104.578125 149.210938 104.636719 149.210938 104.679688 C 149.210938 104.738281 149.402344 104.757812 149.996094 104.757812 C 150.636719 104.757812 150.78125 104.738281 150.78125 104.671875 C 150.78125 104.625 150.71875 104.578125 150.648438 104.566406 L 150.507812 104.546875 L 150.492188 102.507812 L 150.480469 100.464844 L 150.628906 100.425781 C 150.714844 100.410156 150.773438 100.359375 150.761719 100.320312 C 150.75 100.277344 150.480469 100.246094 149.976562 100.234375 C 149.335938 100.222656 149.210938 100.234375 149.210938 100.304688 Z M 149.210938 100.304688 "/>
<path style=" stroke:none;fill-rule:nonzero;fill:rgb(0%,0%,0%);fill-opacity:1;" d="M 158.820312 100.3125 C 158.820312 100.367188 158.859375 100.421875 158.910156 100.441406 C 158.988281 100.46875 159 100.761719 159 102.496094 C 159 104.238281 158.988281 104.523438 158.910156 104.550781 C 158.859375 104.578125 158.820312 104.625 158.820312 104.671875 C 158.820312 104.738281 158.945312 104.757812 159.421875 104.757812 C 160.027344 104.757812 160.148438 104.710938 159.9375 104.550781 C 159.859375 104.496094 159.847656 104.269531 159.859375 102.972656 L 159.875 101.460938 L 161.285156 102.957031 C 162.53125 104.28125 162.6875 104.472656 162.648438 104.605469 L 162.613281 104.757812 L 163.285156 104.757812 C 163.816406 104.757812 163.957031 104.738281 163.957031 104.671875 C 163.957031 104.625 163.914062 104.578125 163.863281 104.550781 C 163.785156 104.523438 163.773438 104.242188 163.773438 102.53125 C 163.773438 100.832031 163.785156 100.53125 163.863281 100.464844 C 163.914062 100.421875 163.957031 100.347656 163.957031 100.304688 C 163.957031 100.238281 163.824219 100.222656 163.351562 100.222656 C 162.863281 100.222656 162.746094 100.238281 162.746094 100.3125 C 162.746094 100.355469 162.789062 100.421875 162.835938 100.453125 C 162.917969 100.492188 162.929688 100.699219 162.917969 101.914062 L 162.898438 103.332031 L 161.597656 101.957031 C 160.570312 100.863281 160.300781 100.542969 160.300781 100.414062 L 160.300781 100.253906 L 159.5625 100.234375 C 158.921875 100.222656 158.820312 100.234375 158.820312 100.3125 Z M 158.820312 100.3125 "/>
<path style=" stroke:none;fill-rule:nonzero;fill:rgb(0%,0%,0%);fill-opacity:1;" d="M 110.316406 103.421875 C 110.25 103.453125 110.117188 103.558594 110.03125 103.667969 C 109.667969 104.09375 109.921875 104.679688 110.488281 104.738281 C 110.71875 104.769531 110.773438 104.792969 110.773438 104.890625 C 110.773438 105.164062 110.34375 105.671875 109.945312 105.871094 C 109.800781 105.945312 109.746094 106.011719 109.746094 106.125 C 109.746094 106.257812 109.765625 106.269531 109.886719 106.238281 C 110.382812 106.089844 110.949219 105.574219 111.183594 105.066406 C 111.449219 104.492188 111.359375 103.753906 110.984375 103.511719 C 110.808594 103.398438 110.476562 103.355469 110.316406 103.421875 Z M 110.316406 103.421875 "/>
<path style=" stroke:none;fill-rule:nonzero;fill:rgb(0%,0%,0%);fill-opacity:1;" d="M 166.089844 103.453125 C 165.460938 103.734375 165.582031 104.710938 166.253906 104.757812 C 166.585938 104.789062 166.691406 104.753906 166.898438 104.546875 C 167.097656 104.347656 167.109375 104.308594 167.078125 104.054688 C 167.027344 103.542969 166.542969 103.253906 166.089844 103.453125 Z M 166.089844 103.453125 "/>
</g>
</svg>
