<?xml version="1.0" encoding="UTF-8"?><svg id="_레이어_2" xmlns="http://www.w3.org/2000/svg" viewBox="0 0 209.11 54.6"><defs><style>.cls-1{fill:#282828;}.cls-2{opacity:.7;}</style></defs><g id="_레이어_1-2"><g><g><path class="cls-1" d="M5.21,19.81c.22,.18,.49,.42,.83,.72,.34,.3,.72,.6,1.16,.89,.65,.43,1.29,.77,1.93,1.01,.64,.24,1.3,.36,2,.36,.65,0,1.19-.07,1.63-.22,.44-.15,.79-.34,1.04-.58,.25-.24,.44-.52,.54-.84,.11-.32,.16-.66,.16-1.01,0-.39-.15-.75-.45-1.06-.3-.31-.67-.59-1.1-.83-.43-.24-.89-.45-1.36-.62s-.88-.32-1.22-.43c-1.53-.53-2.86-1.11-4.01-1.73-1.15-.62-2.1-1.3-2.87-2.06-.76-.76-1.34-1.59-1.72-2.5s-.57-1.92-.57-3.04c0-1.18,.24-2.26,.72-3.23s1.16-1.79,2.04-2.48c.88-.69,1.95-1.22,3.2-1.59,1.25-.38,2.64-.56,4.18-.56,1.16,0,2.27,.13,3.33,.39,1.06,.26,2.11,.68,3.14,1.25,.43,.25,.84,.52,1.23,.79,.39,.27,.73,.54,1.02,.79s.53,.5,.7,.73,.26,.43,.26,.59-.04,.32-.12,.46c-.08,.14-.21,.3-.37,.48l-2.92,3.11c-.22,.22-.43,.32-.65,.32-.18,0-.34-.05-.49-.15s-.31-.23-.49-.38l-.17-.15c-.25-.22-.54-.44-.85-.67-.31-.23-.65-.44-1-.62s-.73-.34-1.13-.46c-.4-.12-.8-.18-1.2-.18s-.81,.04-1.18,.1c-.37,.07-.69,.18-.97,.33-.28,.15-.5,.35-.67,.6-.17,.25-.25,.55-.25,.91s.09,.67,.27,.93c.18,.26,.45,.5,.8,.73s.8,.43,1.33,.63,1.14,.41,1.84,.64c1.35,.45,2.59,.91,3.73,1.4s2.12,1.07,2.95,1.74c.83,.67,1.47,1.47,1.94,2.4,.46,.93,.7,2.06,.7,3.38,0,1.4-.29,2.67-.86,3.81s-1.36,2.11-2.36,2.91c-1,.8-2.17,1.42-3.52,1.86-1.35,.44-2.8,.66-4.36,.66-1.46,0-2.9-.26-4.32-.79-1.41-.52-2.73-1.23-3.95-2.11-.51-.37-.94-.73-1.29-1.09-.35-.36-.63-.64-.83-.86l-.06-.06s-.03-.04-.04-.05-.03-.02-.04-.03c-.01-.03-.03-.04-.04-.05-.01,0-.03-.02-.04-.03-.29-.32-.44-.58-.44-.77,0-.22,.15-.46,.44-.73l3.3-3.15c.27-.19,.48-.29,.65-.29,.11,0,.24,.04,.36,.12,.13,.08,.28,.19,.46,.34Z"/><path class="cls-1" d="M27.33,1.45c.03-.23,.11-.43,.27-.59,.15-.17,.37-.25,.65-.25h6.61c.47,0,.78,.24,.92,.73l5.2,17.34L46.2,1.34c.18-.48,.5-.73,.97-.73h6.53c.23,0,.44,.08,.62,.24,.18,.16,.29,.36,.31,.6,.45,4.48,.9,8.93,1.37,13.34,.46,4.41,.92,8.86,1.37,13.34v.1c0,.5-.28,.75-.84,.75h-5.41c-.58,0-.89-.28-.92-.84l-1.66-14.76-4.3,14.86c-.03,.13-.12,.28-.28,.46-.16,.18-.32,.27-.47,.27h-5.02c-.15,0-.32-.09-.49-.26s-.26-.33-.28-.47l-4.3-14.82-1.66,14.73c-.03,.56-.34,.84-.94,.84h-5.41c-.55,0-.82-.28-.82-.84L27.33,1.45Z"/><path class="cls-1" d="M69.6,1.36c.01-.08,.05-.16,.12-.25,.07-.09,.16-.17,.26-.25,.1-.08,.21-.14,.32-.18,.12-.04,.22-.07,.33-.07h4.89c.22,0,.4,.07,.55,.2,.15,.13,.27,.25,.34,.35l.48,1.09,10.03,25.86c.1,.25,.08,.46-.06,.62-.14,.16-.38,.24-.73,.24h-5.48c-.29,0-.52-.05-.68-.16-.16-.11-.28-.29-.37-.54-.25-.65-.5-1.3-.75-1.94-.24-.64-.48-1.29-.73-1.94h-10.14c-.24,.65-.49,1.3-.74,1.94-.25,.64-.49,1.29-.74,1.94-.17,.47-.49,.71-.97,.71h-5.63c-.24,0-.44-.06-.6-.19-.16-.13-.19-.32-.09-.57L69.6,1.36Zm3.48,8.17c-.24,.65-.49,1.35-.74,2.1-.25,.75-.49,1.51-.74,2.27s-.49,1.52-.74,2.26-.49,1.44-.74,2.09h5.86l-2.92-8.73Z"/><path class="cls-1" d="M89.81,1.49c0-.27,.07-.48,.21-.64,.14-.16,.35-.24,.63-.24h12.34c1.31,0,2.54,.25,3.69,.74,1.15,.49,2.15,1.16,3,2,.85,.84,1.52,1.82,2.01,2.95s.74,2.33,.74,3.6c0,.87-.12,1.69-.35,2.47s-.56,1.51-.98,2.2-.92,1.3-1.5,1.85c-.58,.55-1.21,1.03-1.9,1.42l4.91,9.24c.09,.18,.2,.39,.34,.63,.14,.24,.21,.45,.21,.63,0,.2-.07,.36-.2,.47-.13,.11-.32,.16-.54,.16h-6.55c-.22,0-.41-.06-.58-.19-.17-.13-.28-.3-.33-.52l-4.64-8.73h-3.09v8.61c0,.55-.29,.82-.88,.82h-5.67c-.25,0-.46-.07-.61-.2-.15-.13-.23-.34-.23-.62V1.49Zm14.96,8.48c0-.38-.07-.76-.21-1.15-.14-.38-.34-.73-.59-1.05-.25-.32-.56-.59-.92-.8-.36-.22-.75-.36-1.18-.42-.36-.03-.69-.05-1-.07-.31-.02-.65-.03-1.02-.03h-2.64v7.01h3.51c.23,0,.43,0,.61-.02,.18-.01,.38-.03,.59-.06,.45-.05,.85-.18,1.2-.39s.66-.47,.9-.78c.24-.31,.43-.66,.55-1.05,.13-.39,.19-.79,.19-1.19Z"/><path class="cls-1" d="M114.14,1.45c0-.25,.09-.46,.26-.61,.17-.15,.38-.23,.64-.23h20.55c.23,0,.43,.07,.61,.21,.18,.14,.28,.35,.31,.63V6.19c0,.23-.08,.45-.24,.66-.16,.21-.38,.31-.68,.31h-6.59V28.08c0,.23-.08,.44-.25,.62s-.38,.28-.65,.28h-5.6c-.22,0-.42-.09-.61-.26-.19-.17-.29-.38-.29-.64V7.16h-6.57c-.25,0-.47-.08-.64-.25s-.26-.41-.26-.72V1.45Z"/><path class="cls-1" d="M172.83,2.67c.22,.13,.38,.29,.48,.5,.1,.2,.08,.45-.06,.73l-3.23,4.58c-.14,.22-.29,.34-.45,.37s-.35-.02-.58-.16c-.62-.47-1.31-.83-2.06-1.09-.75-.25-1.55-.38-2.39-.38-1.04,0-2.01,.2-2.88,.59-.88,.39-1.64,.94-2.27,1.62s-1.13,1.49-1.49,2.41-.54,1.9-.54,2.94,.18,2.02,.54,2.93,.85,1.71,1.49,2.39,1.39,1.22,2.27,1.61c.88,.39,1.84,.59,2.88,.59,.84,0,1.64-.13,2.41-.39,.76-.26,1.46-.63,2.08-1.1,.23-.14,.42-.2,.57-.17,.15,.03,.31,.14,.46,.34l3.27,4.7c.14,.28,.16,.52,.06,.71-.1,.19-.26,.35-.48,.48-1.2,.8-2.49,1.42-3.87,1.86s-2.84,.66-4.36,.66c-1.35,0-2.65-.17-3.89-.52s-2.4-.83-3.49-1.47c-1.08-.64-2.07-1.4-2.95-2.28-.89-.88-1.65-1.87-2.28-2.94s-1.13-2.24-1.47-3.48-.52-2.54-.52-3.89,.17-2.65,.52-3.89c.34-1.24,.83-2.41,1.47-3.5,.64-1.09,1.4-2.08,2.28-2.97,.88-.89,1.87-1.65,2.95-2.28,1.08-.63,2.25-1.12,3.49-1.47s2.54-.53,3.89-.53c1.53,0,2.97,.21,4.33,.64,1.36,.43,2.63,1.04,3.83,1.84Z"/><path class="cls-1" d="M175.6,1.45c0-.25,.09-.46,.26-.61,.17-.15,.39-.23,.64-.23h20.55c.23,0,.43,.07,.61,.21,.18,.14,.28,.35,.3,.63V6.19c0,.23-.08,.45-.24,.66-.16,.21-.39,.31-.68,.31h-6.59V28.08c0,.23-.08,.44-.25,.62s-.38,.28-.65,.28h-5.6c-.22,0-.42-.09-.61-.26-.19-.17-.29-.38-.29-.64V7.16h-6.57c-.25,0-.47-.08-.64-.25s-.26-.41-.26-.72V1.45Z"/><path class="cls-1" d="M201.71,1.45c0-.23,.07-.43,.21-.59,.14-.17,.35-.25,.63-.25h5.62c.19,0,.39,.08,.61,.23,.22,.15,.33,.36,.33,.61V28.13c0,.56-.31,.84-.94,.84h-5.62c-.56,0-.84-.28-.84-.84V1.45Z"/></g><g class="cls-2"><path class="cls-1" d="M20.95,51.25c-.04,.14-.09,.25-.14,.32-.05,.07-.15,.11-.29,.11h-1.08c-.3,0-.45-.14-.45-.43v-10.89c0-.12,.04-.23,.13-.31,.08-.08,.18-.12,.29-.12h1.18c.14,0,.25,.04,.33,.12s.12,.18,.12,.3v3.27c.34-.35,.74-.63,1.18-.84s.95-.31,1.53-.31c.64,0,1.24,.12,1.79,.37,.55,.24,1.04,.58,1.45,1,.41,.42,.73,.92,.97,1.49,.23,.57,.35,1.18,.35,1.83s-.12,1.25-.35,1.82c-.23,.57-.56,1.06-.97,1.49-.41,.42-.89,.76-1.45,1-.55,.24-1.15,.37-1.79,.37-.28,0-.55-.03-.81-.09-.26-.06-.5-.15-.73-.25-.23-.11-.45-.23-.65-.38s-.39-.3-.55-.47l-.06,.61Zm5.36-4.09c0-.38-.07-.73-.2-1.08-.13-.34-.32-.64-.56-.9-.24-.26-.52-.47-.84-.62s-.67-.23-1.05-.23-.74,.08-1.07,.23c-.34,.15-.63,.36-.88,.62-.25,.26-.45,.56-.59,.9-.14,.34-.21,.7-.21,1.08v.05c0,.38,.08,.73,.23,1.06,.15,.33,.34,.62,.59,.87,.25,.25,.54,.45,.87,.59,.33,.15,.69,.22,1.07,.22s.73-.07,1.05-.22,.6-.35,.84-.6,.42-.55,.56-.89c.13-.34,.2-.7,.2-1.08Z"/><path class="cls-1" d="M32.81,54.29c-.04,.1-.1,.18-.16,.23-.07,.05-.15,.08-.26,.08h-1.34c-.13,0-.22-.02-.28-.07-.05-.05-.07-.1-.07-.17,0-.03,0-.08,.02-.14s.02-.1,.03-.11l1.25-3.2-3.18-7.75s0-.02,0-.02v-.06c-.02-.05-.04-.11-.04-.18,0-.08,.03-.14,.08-.19,.06-.05,.15-.07,.26-.07h1.29c.2,0,.34,.1,.42,.3l.13,.33c.1,.27,.2,.56,.32,.89,.12,.33,.24,.67,.37,1.02,.13,.35,.26,.71,.39,1.06,.13,.35,.25,.69,.37,1,.12,.31,.22,.59,.32,.84,.09,.25,.17,.45,.23,.59l2.11-5.74c.04-.1,.1-.18,.16-.23s.16-.08,.26-.08h1.34c.13,0,.22,.02,.27,.07,.05,.05,.08,.1,.08,.17,0,.03,0,.08-.02,.14-.01,.06-.02,.1-.03,.11l-4.33,11.18Z"/><path class="cls-1" d="M43.21,51.42c.05-.1,.1-.19,.16-.29,.05-.1,.12-.2,.19-.3l4.32-6.44c-.74-1.11-1.46-2.2-2.18-3.28-.72-1.08-1.45-2.17-2.18-3.28-.04-.05-.07-.1-.09-.14s-.04-.09-.04-.14c.01-.05,.05-.08,.11-.07,.06,0,.12-.01,.19-.04h3.34c.24,0,.42,.12,.56,.36l2.35,3.53,2.38-3.53c.13-.24,.32-.36,.56-.36h3.19c.07,0,.14,0,.2,0,.06,0,.11,.01,.16,.03s.07,.05,.07,.09c0,.08-.04,.16-.11,.25l-4.41,6.59,4.5,6.71c.06,.09,.11,.17,.15,.24s.05,.14,.04,.19c0,.1-.06,.14-.17,.14h-3.43c-.11,0-.21-.03-.3-.1-.09-.06-.16-.15-.21-.26l-2.61-3.86-2.58,3.86c-.05,.11-.12,.2-.21,.26-.09,.06-.19,.1-.3,.1h-3.44c-.05,0-.1-.01-.13-.04-.04-.03-.06-.07-.06-.12,0-.03,0-.06,.02-.09Z"/><path class="cls-1" d="M68.13,38.47c.11,.06,.19,.15,.24,.25,.05,.1,.04,.22-.03,.37l-1.62,2.3c-.07,.11-.15,.17-.22,.19-.08,.02-.18-.01-.29-.08-.31-.24-.66-.42-1.04-.55-.38-.13-.78-.19-1.2-.19-.52,0-1.01,.1-1.45,.3-.44,.2-.82,.47-1.14,.81-.32,.35-.57,.75-.75,1.21-.18,.46-.27,.95-.27,1.48s.09,1.01,.27,1.47,.43,.86,.75,1.2c.32,.34,.7,.61,1.14,.81,.44,.2,.92,.3,1.45,.3,.42,0,.83-.07,1.21-.2,.38-.13,.73-.31,1.05-.55,.12-.07,.21-.1,.29-.09,.08,.01,.15,.07,.23,.17l1.64,2.36c.07,.14,.08,.26,.03,.35-.05,.1-.13,.18-.24,.24-.6,.4-1.25,.71-1.94,.93-.69,.22-1.42,.33-2.19,.33-.68,0-1.33-.09-1.95-.26-.62-.17-1.21-.42-1.75-.74-.54-.32-1.04-.7-1.48-1.15s-.83-.94-1.15-1.48c-.32-.54-.57-1.12-.74-1.75-.17-.62-.26-1.27-.26-1.95s.09-1.33,.26-1.95,.42-1.21,.74-1.75c.32-.55,.7-1.04,1.15-1.49s.94-.83,1.48-1.15c.54-.32,1.13-.56,1.75-.74,.62-.18,1.27-.26,1.95-.26,.77,0,1.49,.11,2.17,.32,.68,.21,1.32,.52,1.92,.92Z"/><path class="cls-1" d="M74.37,37.81s.03-.08,.06-.12,.08-.09,.13-.12c.05-.04,.11-.07,.16-.09s.11-.03,.16-.03h2.46c.11,0,.2,.03,.28,.1,.08,.07,.13,.13,.17,.18l.24,.55,5.03,12.98c.05,.13,.04,.23-.03,.31-.07,.08-.19,.12-.37,.12h-2.75c-.15,0-.26-.03-.34-.08-.08-.05-.14-.15-.19-.27-.13-.33-.25-.65-.37-.97-.12-.32-.24-.65-.36-.97h-5.09c-.12,.33-.25,.65-.37,.97-.12,.32-.25,.65-.37,.97-.08,.24-.25,.36-.49,.36h-2.83c-.12,0-.22-.03-.3-.1-.08-.06-.09-.16-.04-.29l5.21-13.48Zm1.75,4.1c-.12,.33-.25,.68-.37,1.06-.12,.38-.25,.76-.37,1.14-.12,.38-.25,.76-.37,1.14-.12,.37-.25,.72-.37,1.05h2.94l-1.47-4.38Z"/><path class="cls-1" d="M84.16,37.85c0-.12,.04-.21,.12-.3,.08-.08,.18-.12,.32-.12h2.84c.11,0,.21,.04,.3,.12,.09,.08,.14,.18,.14,.31v10.43h5.27c.12,0,.21,.04,.3,.11,.08,.08,.12,.18,.12,.32v2.52c0,.11-.04,.21-.11,.3-.07,.09-.18,.14-.31,.14h-8.56c-.28,0-.42-.14-.42-.42v-13.41Z"/><path class="cls-1" d="M94.99,37.85c0-.12,.04-.21,.11-.3,.08-.08,.18-.12,.32-.12h2.84c.11,0,.21,.04,.3,.12,.09,.08,.14,.18,.14,.31v10.43h5.27c.11,0,.21,.04,.3,.11,.08,.08,.12,.18,.12,.32v2.52c0,.11-.04,.21-.11,.3-.07,.09-.18,.14-.31,.14h-8.56c-.28,0-.42-.14-.42-.42v-13.41Z"/><path class="cls-1" d="M110.1,42.69l2.32-4.96c.04-.08,.07-.13,.1-.17,.03-.04,.05-.06,.08-.08,.03-.02,.05-.03,.08-.03,.03,0,.06-.01,.1-.02h3.69s.08,.01,.11,.04c.03,.03,.04,.06,.04,.1,0,.07-.04,.15-.13,.24l-4.55,8.05v5.36c0,.3-.15,.45-.44,.45h-2.87c-.13,0-.23-.04-.3-.12s-.11-.19-.11-.33v-5.38l-4.54-8.03c-.08-.08-.12-.16-.12-.24,0-.04,.01-.07,.04-.1,.03-.03,.06-.04,.11-.04h3.69s.08,.02,.11,.02c.03,0,.05,.01,.08,.03,.03,.02,.05,.04,.08,.08s.06,.09,.11,.17l2.33,4.96Z"/><path class="cls-1" d="M123.44,37.86c0-.12,.04-.21,.11-.3s.18-.12,.31-.12h2.83c.1,0,.2,.04,.3,.11,.1,.08,.16,.18,.16,.31v5.23c.7-.89,1.38-1.78,2.05-2.65,.67-.87,1.35-1.75,2.04-2.65,.07-.11,.16-.2,.27-.26,.11-.07,.22-.1,.33-.1h3.64c.15,0,.23,.05,.23,.14,0,.06-.04,.14-.11,.23l-4.52,5.96,5,7.52c.07,.11,.11,.2,.11,.26,0,.1-.07,.14-.21,.14h-3.62c-.11,0-.22-.03-.32-.1-.11-.06-.19-.15-.26-.26-.34-.46-.65-.9-.92-1.32-.28-.42-.55-.84-.81-1.26-.26-.42-.53-.84-.8-1.27s-.56-.88-.88-1.35l-1.22,1.4v3.74c0,.28-.15,.42-.46,.42h-2.82c-.29,0-.43-.14-.43-.42v-13.4Z"/><path class="cls-1" d="M136.98,44.57c0-.68,.09-1.33,.26-1.95,.17-.62,.42-1.21,.74-1.75,.32-.55,.7-1.04,1.15-1.49s.94-.83,1.48-1.15,1.13-.56,1.75-.74c.62-.18,1.27-.26,1.95-.26s1.32,.09,1.95,.26,1.21,.42,1.76,.74,1.04,.7,1.49,1.15c.45,.45,.83,.94,1.15,1.49,.32,.55,.56,1.13,.74,1.75s.26,1.27,.26,1.95-.09,1.33-.26,1.95c-.18,.62-.42,1.21-.74,1.75-.32,.54-.7,1.03-1.15,1.48-.45,.44-.94,.83-1.49,1.15-.54,.32-1.13,.57-1.76,.74-.63,.17-1.28,.26-1.95,.26s-1.33-.09-1.95-.26c-.62-.17-1.21-.42-1.75-.74-.54-.32-1.04-.7-1.48-1.15s-.83-.94-1.15-1.48c-.32-.54-.57-1.12-.74-1.75-.17-.62-.26-1.27-.26-1.95Zm3.71,0c0,.53,.09,1.03,.27,1.49,.18,.46,.43,.86,.75,1.2s.7,.61,1.14,.81,.93,.29,1.46,.29,1.02-.1,1.46-.29c.44-.2,.83-.46,1.15-.81,.32-.34,.57-.74,.75-1.2,.18-.46,.27-.96,.27-1.49s-.09-1.02-.27-1.48c-.18-.46-.43-.87-.75-1.21-.32-.34-.71-.62-1.15-.81-.44-.2-.93-.3-1.46-.3s-1.01,.1-1.46,.3-.82,.47-1.14,.81c-.32,.35-.57,.75-.75,1.21-.18,.46-.27,.96-.27,1.48Z"/><path class="cls-1" d="M153.53,37.88c0-.13,.04-.24,.11-.32,.07-.08,.18-.12,.32-.12h6.19c.66,0,1.28,.12,1.85,.37,.58,.25,1.08,.58,1.5,1,.43,.42,.77,.92,1.01,1.48s.37,1.17,.37,1.81c0,.43-.06,.85-.18,1.24-.12,.39-.28,.76-.49,1.1s-.46,.65-.75,.93c-.29,.28-.61,.52-.95,.71l2.46,4.64c.04,.09,.1,.19,.17,.32,.07,.12,.11,.23,.11,.32,0,.1-.03,.18-.1,.23-.07,.05-.16,.08-.27,.08h-3.29c-.11,0-.21-.03-.29-.1-.09-.06-.14-.15-.17-.26l-2.33-4.38h-1.55v4.33c0,.27-.15,.41-.44,.41h-2.85c-.13,0-.23-.03-.31-.1-.08-.07-.12-.17-.12-.31v-13.39Zm7.51,4.26c0-.19-.04-.38-.11-.58-.07-.19-.17-.37-.3-.53s-.28-.29-.46-.4c-.18-.11-.38-.18-.59-.21-.18-.01-.35-.02-.5-.03-.16,0-.33-.01-.51-.01h-1.32v3.52h1.76c.12,0,.22,0,.31,0,.09,0,.19-.02,.3-.03,.22-.03,.42-.09,.6-.2s.33-.24,.45-.39c.12-.16,.21-.33,.28-.53,.06-.2,.1-.39,.1-.6Z"/><path class="cls-1" d="M166.52,37.88c0-.13,.04-.24,.11-.32,.07-.08,.18-.12,.31-.12h9.51c.14,0,.25,.04,.33,.12,.08,.08,.12,.19,.12,.33v2.37c0,.11-.04,.21-.12,.31-.08,.1-.19,.15-.33,.15h-6.21v2.38h4.79c.12,0,.22,.03,.3,.09,.08,.06,.12,.15,.12,.29v2.07c0,.09-.04,.18-.11,.26s-.17,.12-.31,.12h-4.8v2.46h6.44c.29,0,.43,.15,.43,.44v2.41c0,.06-.03,.12-.08,.17-.03,.18-.16,.27-.39,.27h-9.7c-.13,0-.23-.03-.31-.1-.08-.07-.12-.17-.12-.31v-13.39Z"/><path class="cls-1" d="M183.06,37.81s.03-.08,.06-.12,.08-.09,.13-.12c.05-.04,.11-.07,.16-.09s.11-.03,.16-.03h2.46c.11,0,.2,.03,.28,.1,.08,.07,.13,.13,.17,.18l.24,.55,5.03,12.98c.05,.13,.04,.23-.03,.31-.07,.08-.19,.12-.37,.12h-2.75c-.15,0-.26-.03-.34-.08-.08-.05-.14-.15-.19-.27-.13-.33-.25-.65-.37-.97-.12-.32-.24-.65-.36-.97h-5.09c-.12,.33-.25,.65-.37,.97-.12,.32-.25,.65-.37,.97-.08,.24-.25,.36-.49,.36h-2.83c-.12,0-.22-.03-.3-.1-.08-.06-.09-.16-.04-.29l5.21-13.48Zm1.75,4.1c-.12,.33-.25,.68-.37,1.06-.12,.38-.25,.76-.37,1.14-.12,.38-.25,.76-.37,1.14-.12,.37-.25,.72-.37,1.05h2.94l-1.47-4.38Z"/></g></g></g></svg>