<?xml version="1.0" encoding="utf-8"?>
<!-- Generator: Adobe Illustrator 26.2.1, SVG Export Plug-In . SVG Version: 6.00 Build 0)  -->
<svg version="1.1" id="레이어_1" xmlns="http://www.w3.org/2000/svg" xmlns:xlink="http://www.w3.org/1999/xlink" x="0px"
	 y="0px" viewBox="0 0 147.9 147.9" style="enable-background:new 0 0 147.9 147.9;" xml:space="preserve">
<style type="text/css">
	.st0{fill:#F0F0F0;}
	.st1{fill-rule:evenodd;clip-rule:evenodd;fill:#E3C52A;}
	.st2{fill-rule:evenodd;clip-rule:evenodd;fill:#AA8E17;}
	.st3{fill:#E3C52A;}
</style>
<g>
	<circle class="st0" cx="73.9" cy="73.9" r="72.8"/>
	<g>
		<path class="st1" d="M54.6,29.1c-0.3,0.3-0.6,0.6-0.8,0.9c-1.8,1.8-2.8,3.6-3,5.5l-3.1,21.7L35.3,59c-1.4,0.2-2.7,0.9-4,2.2
			c-0.2,0.2-0.5,0.4-0.7,0.6l10.7,13.4l12.3,9.6c0.3-0.2,0.6-0.5,0.9-0.8c1-1,1.5-2.3,1.8-3.9l1.8-12.5l21.6-3.1
			c2.3-0.3,4.1-1.1,5.4-2.5c0.4-0.4,0.8-0.9,1.1-1.3l-14.8-17L54.6,29.1z"/>
		<path class="st2" d="M86.2,60.8L54.6,29.1c1.3-1.1,2.8-1.8,4.7-2.1c1.9-0.3,3.5,0.2,4.8,1.5l22.5,23.2c1.3,0.9,1.9,2.5,1.5,4.8
			C87.9,58,87.3,59.4,86.2,60.8z"/>
		<path class="st2" d="M53.5,84.9l-23-23c-0.8,0.9-1.3,2-1.5,3.4s0.2,2.6,1.1,3.5l16.8,16.4c0.7,1,1.8,1.4,3.5,1.1
			C51.5,86.1,52.5,85.7,53.5,84.9z"/>
		<path class="st3" d="M106.5,120.9c-1.2,0-2.4-0.5-3.3-1.4L40.4,56.8c-1.8-1.8-1.8-4.8,0-6.7c1.8-1.8,4.8-1.8,6.7,0l62.7,62.7
			c1.8,1.8,1.8,4.8,0,6.7C108.9,120.5,107.7,120.9,106.5,120.9z"/>
	</g>
</g>
</svg>
