<?xml version="1.0" encoding="UTF-8"?><svg id="_레이어_2" xmlns="http://www.w3.org/2000/svg" xmlns:xlink="http://www.w3.org/1999/xlink" viewBox="0 0 162.81 162.81"><defs><style>.cls-1{fill:none;}.cls-2{clip-path:url(#clippath);}.cls-3{fill:#cc4617;}.cls-4{fill:url(#_무제_그라디언트_20);}.cls-5{fill:url(#_무제_그라디언트_27);}.cls-6{fill:url(#_무제_그라디언트_13);}</style><linearGradient id="_무제_그라디언트_27" x1="81.41" y1="149.56" x2="81.41" y2="12.57" gradientUnits="userSpaceOnUse"><stop offset="0" stop-color="#ef4c25"/><stop offset=".15" stop-color="#ef5323"/><stop offset=".37" stop-color="#f0691f"/><stop offset=".65" stop-color="#f18d18"/><stop offset=".97" stop-color="#f3be0f"/><stop offset="1" stop-color="#f4c40e"/></linearGradient><clipPath id="clippath"><rect class="cls-1" x="59.86" y="42.43" width="76.06" height="38.97"/></clipPath><linearGradient id="_무제_그라디언트_20" x1="11.98" y1="90.87" x2="138.35" y2="90.87" gradientUnits="userSpaceOnUse"><stop offset="0" stop-color="#200897"/><stop offset=".43" stop-color="#4f2cbd"/><stop offset="1" stop-color="#8a59ee"/></linearGradient><linearGradient id="_무제_그라디언트_13" x1="81.41" y1="136.53" x2="81.41" y2="31.34" gradientUnits="userSpaceOnUse"><stop offset="0" stop-color="#046ddd"/><stop offset=".21" stop-color="#1780e2"/><stop offset=".63" stop-color="#48b2f0"/><stop offset="1" stop-color="#79e4ff"/></linearGradient></defs><g id="_레이어_1-2"><g><path class="cls-5" d="M122.38,0H40.43C18.1,0,0,18.1,0,40.43v42.28L37.18,43.95l17.25,55.4,5.43,24.81,3.41,2.64,8.68,4.19h9.45l30.55-2.64,15.04,2.09-34.81,32.38h30.19c22.33,0,40.43-18.1,40.43-40.43V40.43C162.81,18.1,144.71,0,122.38,0Z"/><path class="cls-3" d="M111.96,128.34l-30.55,2.64h-9.45l-8.68-4.19-3.41-2.64-5.43-24.81-17.25-55.4L0,82.71v39.68c0,22.33,18.1,40.43,40.43,40.43h51.76l34.81-32.38-15.04-2.09Z"/><g class="cls-2"><path class="cls-4" d="M138.35,114.85l-6.56,8.47c-.4-9.11-8.02-16.41-17.37-16.41-6.66,0-10.88,3.63-13.42,6.3-4.92,4.88-11.16,7.93-17.9,8.91-5.43,11.71-26.15,13.85-26.15,13.85,6.97-4.42,8.07-11.41,7.75-16.57-9.44-4.51-16.37-13.61-17.82-24.24-.05-.45-.47-4.47-.08-8.1,1.76-13.83,12.51-25.07,26.15-27.33,1.86-.31,3.73-.46,5.54-.46,8.48,0,16.43,3.25,22.35,9.1,2.65,2.78,6.94,6.47,13.59,6.47,4.84,0,9.23-1.96,12.39-5.12h0s.04-.04,.06-.06c.79-.8,2.1-2.12,3.17-3.41,2.61-3.23,5.58-7.42,5.58-7.42l-3.85-2.21c-.27-4.37-2.18-8.51-5.27-11.27-12.68-13.27-29.73-20.58-48.01-20.58-2.6,0-5.26,.15-7.89,.46-28.13,3.26-51.69,24.99-57.26,52.71-.01,.04-.04,.2-.05,.24-.18,.93-.54,2.87-.85,5.52-.54,4.62-.87,11.55,.58,18.19,4.95,28.81,28.63,51.28,57.58,54.63,2.6,.3,5.26,.46,7.9,.46h0c17.51,0,33.77-6.61,45.91-18.51,.64-.59,1.4-1.34,2.27-2.27,.42-.41,.81-.83,1.18-1.28,.08-.09,.15-.16,.23-.25,10.05-11.24,10.25-19.82,10.25-19.82Z"/></g><path class="cls-6" d="M121.81,96.65c-6.33,0-10.34,3.45-12.76,5.99-4.68,4.64-10.61,7.54-17.01,8.46-5.16,11.12-24.85,13.16-24.85,13.16,6.62-4.2,7.67-10.84,7.37-15.75-8.97-4.29-15.56-12.93-16.93-23.04-.05-.43-.44-4.25-.07-7.7,1.67-13.14,11.89-23.82,24.85-25.97,1.77-.29,3.54-.44,5.26-.44,8.06,0,15.62,3.09,21.23,8.65,2.51,2.64,6.59,6.15,12.91,6.15,9.12,0,16.54-7.31,16.54-16.3,0-4.52-1.89-8.89-5.06-11.72-12.05-12.61-28.25-19.55-45.63-19.55-2.47,0-4.99,.15-7.5,.44-26.73,3.1-49.12,23.74-54.41,50.09-.01,.04-.04,.19-.05,.23-.17,.88-.51,2.73-.8,5.25-.51,4.39-.82,10.97,.55,17.28,4.7,27.38,27.2,48.73,54.72,51.92,2.48,.29,5,.44,7.5,.44h0c17.41,0,33.53-6.86,45.22-19.18,3.46-3.08,5.45-7.49,5.45-12.1,0-8.99-7.42-16.3-16.54-16.3Z"/></g></g></svg>