<?xml version="1.0" encoding="UTF-8"?><svg id="_레이어_2" xmlns="http://www.w3.org/2000/svg" viewBox="0 0 48.57 56.64"><defs><style>.cls-1{fill:#022347;}</style></defs><g id="_레이어_1-2"><path class="cls-1" d="M11.44,56.64c-.09,0-.23-.05-.37-.09-.31-.1-.52-.43-.52-.8v-7.46c0-.31-.25-.57-.57-.57H3.43c-1.86,0-3.43-1.57-3.43-3.43V24.65c0-1.86,1.57-3.43,3.43-3.43H31.2c1.86,0,3.43,1.57,3.43,3.43v19.64c0,1.89-1.57,3.43-3.49,3.43h-10.18c-.15,0-.29,.06-.4,.17l-8.49,8.49c-.17,.17-.38,.26-.63,.26ZM3.43,22.99c-.91,0-1.66,.74-1.66,1.66v19.64c0,.91,.74,1.66,1.66,1.66H11.5c.48,0,.89,.41,.89,.89v5.4c0,.23,.14,.44,.35,.52,.07,.03,.14,.04,.22,.04,.15,0,.29-.06,.4-.17l6.43-6.42c.14-.14,.43-.26,.63-.26h10.79c.91,0,1.66-.74,1.66-1.66V24.65c0-.91-.74-1.66-1.66-1.66H3.43Z"/><path class="cls-1" d="M8.46,29.96c-.48,0-.89-.41-.89-.89s.41-.89,.89-.89H26.17c.48,0,.89,.41,.89,.89s-.41,.89-.89,.89H8.46Z"/><path class="cls-1" d="M8.46,35.78c-.48,0-.89-.41-.89-.89s.41-.89,.89-.89H26.17c.48,0,.89,.41,.89,.89s-.41,.89-.89,.89H8.46Z"/><path class="cls-1" d="M8.46,41.6c-.48,0-.89-.41-.89-.89s.41-.89,.89-.89h9.7c.48,0,.89,.41,.89,.89s-.41,.89-.89,.89H8.46Z"/><path class="cls-1" d="M40.65,24.2c-.25,0-.46-.08-.63-.26l-5.52-5.52c-.1-.11-.25-.17-.4-.17h-6.61c-1.46,0-2.65-1.16-2.65-2.58V2.58c0-1.43,1.19-2.58,2.65-2.58h18.49c1.45,0,2.58,1.14,2.58,2.58V15.68c0,1.45-1.14,2.58-2.58,2.58h-3.88c-.31,0-.57,.25-.57,.57v4.49c0,.33-.24,.67-.57,.82-.1,.03-.23,.07-.32,.07ZM27.5,1.77c-.44,0-.81,.37-.81,.81V15.68c0,.43,.38,.81,.81,.81h7.21c.25,0,.46,.08,.63,.26l3.45,3.46c.11,.11,.25,.17,.4,.17,.07,0,.15-.02,.22-.04,.21-.09,.35-.29,.35-.52v-2.42c0-.48,.41-.89,.89-.89h5.33c.44,0,.81-.37,.81-.81V2.58c0-.44-.37-.81-.81-.81H27.5Z"/><path class="cls-1" d="M30.53,7.59c-.48,0-.89-.41-.89-.89s.41-.89,.89-.89h12.37c.48,0,.89,.41,.89,.89s-.41,.89-.89,.89h-12.37Z"/><path class="cls-1" d="M30.53,12.81c-.5,0-.89-.39-.89-.89s.41-.89,.89-.89h7.7c.48,0,.89,.41,.89,.89s-.41,.89-.89,.89h-7.7Z"/></g></svg>