<?xml version="1.0" encoding="UTF-8"?><svg id="_레이어_2" xmlns="http://www.w3.org/2000/svg" viewBox="0 0 145.59 145.59"><defs><style>.cls-1{fill:#f0f0f0;}.cls-2,.cls-3{fill:#fffffe;}.cls-4{fill:#ffd740;}.cls-5{fill:#cfd8dc;}.cls-6{fill:#c6ae97;}.cls-7{fill:#2979ff;}.cls-3{opacity:.15;}.cls-8{fill:#333;opacity:.2;}</style></defs><g id="_레이어_1-2"><g><circle class="cls-1" cx="72.79" cy="72.79" r="72.79"/><g><path class="cls-6" d="M88.99,29.46h-15.7l-7.05,4.22-6.03-4.22h-2.62c-2.89,0-5.23,2.34-5.23,5.23v20.93s-4.63,5.11-1.74,5.11l17.27,9.59,29.3-5.65c2.89,0-2.97-9.05-2.97-9.05v-20.93c0-2.89-2.34-5.23-5.23-5.23Z"/><polygon class="cls-4" points="66.76 42.54 73.3 45.15 73.3 29.46 60.22 29.46 60.22 45.15 66.76 42.54"/><path class="cls-5" d="M107.31,100.09V63.47c0-4.32-3.53-7.85-7.85-7.85h-5.23c0,2.89-2.34,5.23-5.23,5.23l-17.96,8.91-13.43-8.91c-2.89,0-5.23-2.34-5.23-5.23h-5.23c-4.32,0-7.85,3.53-7.85,7.85v36.63h-7.85v6.32l1.54,1.53,5.23,5.23H108.38l5.23-5.23,1.54-1.53v-6.32h-7.85Z"/><path class="cls-7" d="M99.46,60.85H47.13c-1.44,0-2.62,1.18-2.62,2.62v36.63h57.56V63.47c0-1.44-1.18-2.62-2.62-2.62Z"/><path class="cls-8" d="M98.06,60.85c.89-1.54,1.4-3.33,1.4-5.23h-5.23c0,2.89-2.34,5.23-5.23,5.23h9.06Z"/><path class="cls-8" d="M48.55,60.85h9.05c-2.89,0-5.23-2.34-5.23-5.23h-5.23c0,1.91,.51,3.69,1.4,5.23h.01Z"/><rect class="cls-8" x="102.08" y="94.88" width="5.23" height="5.22"/><rect class="cls-8" x="39.29" y="94.88" width="5.23" height="5.22"/><polygon class="cls-8" points="32.98 107.94 38.21 113.18 108.38 113.18 113.61 107.94 32.98 107.94"/><path class="cls-3" d="M102.08,63.47c0-1.44-1.18-2.62-2.62-2.62h-1.41c-1.81,3.14-5.18,5.23-9.05,5.23h-31.4c-3.87,0-7.25-2.09-9.05-5.23h-1.41c-1.44,0-2.62,1.18-2.62,2.62v36.63h57.56V63.47Z"/><path class="cls-3" d="M57.6,60.85h23.55V29.46h-7.85v15.7l-6.54-2.62-6.54,2.62v-15.7h-2.62c-2.89,0-5.23,2.34-5.23,5.23v20.93c0,2.89,2.34,5.23,5.23,5.23Z"/><rect class="cls-2" x="41.9" y="102.71" width="5.23" height="5.23"/><rect class="cls-2" x="52.37" y="102.71" width="5.23" height="5.23"/><polygon class="cls-2" points="62.83 86.52 62.83 79.16 57.6 79.16 57.6 86.52 52.87 82.42 49.44 86.37 60.22 95.71 70.99 86.37 67.57 82.42 62.83 86.52"/><polygon class="cls-2" points="86.38 67.85 75.6 77.19 79.03 81.14 83.76 77.04 83.76 84.4 88.99 84.4 88.99 77.04 93.73 81.14 97.15 77.19 86.38 67.85"/><rect class="cls-2" x="57.6" y="68.7" width="5.23" height="5.23"/><rect class="cls-2" x="83.76" y="89.63" width="5.23" height="5.23"/></g></g></g></svg>