<?xml version="1.0" encoding="utf-8"?>
<!-- Generator: Adobe Illustrator 26.2.1, SVG Export Plug-In . SVG Version: 6.00 Build 0)  -->
<svg version="1.1" id="레이어_1" xmlns="http://www.w3.org/2000/svg" xmlns:xlink="http://www.w3.org/1999/xlink" x="0px"
	 y="0px" viewBox="0 0 147.9 147.9" style="enable-background:new 0 0 147.9 147.9;" xml:space="preserve">
<style type="text/css">
	.st0{fill:#F0F0F0;}
	.st1{fill:#C6AE97;}
	.st2{fill:#FFD740;}
	.st3{fill:#CFD8DC;}
	.st4{fill:#2979FF;}
	.st5{opacity:0.2;fill:#333333;enable-background:new    ;}
	.st6{opacity:0.15;fill:#FFFFFE;enable-background:new    ;}
	.st7{fill:#FFFFFE;}
	.st8{fill:#393939;}
</style>
<g>
	<circle class="st0" cx="73.9" cy="73.9" r="72.8"/>
	<g>
		<path class="st1" d="M91.5,27h-8.8h-8.8L66,31.8L59.3,27h-2.9c-3.2,0-5.9,2.6-5.9,5.9v23.5c0,0-5.2,5.7-2,5.7l19.4,10.7l32.8-6.3
			c3.2,0-3.3-10.1-3.3-10.1V32.9C97.4,29.7,94.8,27,91.5,27z"/>
		<polygon class="st2" points="66.6,41.7 73.9,44.6 73.9,27 59.3,27 59.3,44.6 		"/>
		<path class="st3" d="M112.1,106.2v-5.8V65.1c0-4.8-4-8.8-8.8-8.8h-5.9c0,3.2-2.6,5.9-5.9,5.9l-20.1,10l-15.1-10
			c-3.2,0-5.9-2.6-5.9-5.9h-5.9c-4.8,0-8.8,4-8.8,8.8v35.2v5.8H27v7.1l1.7,1.7l5.9,5.9h78.6l5.9-5.9l1.7-1.7v-7.1L112.1,106.2
			L112.1,106.2z"/>
		<path class="st4" d="M103.3,62.2h-1.6l0,0H91.5h-8.8H56.3H46.2l0,0h-1.6c-1.6,0-2.9,1.3-2.9,2.9v35.2v5.8h64.5v-5.8V65.1
			C106.2,63.5,104.9,62.2,103.3,62.2z"/>
		<path class="st5" d="M101.7,62.2c1-1.7,1.6-3.7,1.6-5.9h-5.9c0,3.2-2.6,5.9-5.9,5.9H101.7L101.7,62.2z"/>
		<path class="st5" d="M46.2,62.2h10.1c-3.2,0-5.9-2.6-5.9-5.9h-5.9C44.6,58.5,45.2,60.5,46.2,62.2L46.2,62.2z"/>
		<rect x="106.2" y="100.3" class="st5" width="5.9" height="5.8"/>
		<rect x="35.8" y="100.3" class="st5" width="5.9" height="5.8"/>
		<polygon class="st5" points="28.8,115 34.6,120.8 113.3,120.8 119.1,115 		"/>
		<path class="st6" d="M106.2,65.1c0-1.6-1.3-2.9-2.9-2.9h-1.6l0,0c-2,3.5-5.8,5.9-10.1,5.9H56.3c-4.3,0-8.1-2.3-10.1-5.9l0,0h-1.6
			c-1.6,0-2.9,1.3-2.9,2.9v35.2v5.8h64.5v-5.8V65.1z"/>
		<path class="st6" d="M56.3,62.2h26.4V27h-8.8v17.6l-7.3-2.9l-7.3,2.9V27h-2.9c-3.2,0-5.9,2.6-5.9,5.9v23.5
			C50.5,59.6,53.1,62.2,56.3,62.2z"/>
		<rect x="38.8" y="109.1" class="st7" width="5.9" height="5.9"/>
		<rect x="50.5" y="109.1" class="st7" width="5.9" height="5.9"/>
		<g>
			<g>
				<polygon class="st8" points="78,83.2 69.8,83.2 69.8,89.1 78,89.1 73.4,94.4 77.9,98.2 88.3,86.1 77.9,74.1 73.4,77.9 				"/>
				<rect x="58.1" y="83.2" class="st8" width="5.9" height="5.9"/>
			</g>
		</g>
	</g>
</g>
</svg>
