<?xml version="1.0" encoding="UTF-8"?><svg id="_레이어_2" xmlns="http://www.w3.org/2000/svg" viewBox="0 0 39.86 42.25"><defs><style>.cls-1{fill:#022347;}</style></defs><g id="_레이어_1-2"><path class="cls-1" d="M37.9,40.22c-.15,.16-.37,.26-.58,.26H2.54c-.21,0-.43-.09-.58-.25-.09-.09-.19-.25-.18-.46L3.42,10.18c.03-.46,.35-.81,.76-.81h7.71v2.17c-.84,.35-1.44,1.18-1.44,2.15,0,1.28,1.04,2.33,2.33,2.33s2.33-1.04,2.33-2.33c0-.97-.6-1.8-1.44-2.15v-2.17h12.52v2.17c-.84,.35-1.44,1.18-1.44,2.15,0,1.28,1.04,2.33,2.33,2.33s2.33-1.04,2.33-2.33c0-.97-.6-1.8-1.44-2.15v-2.17h7.71c.45,0,.74,.41,.76,.81l1.65,29.59c.01,.21-.11,.38-.18,.45ZM19.93,1.77c3.3,0,6.02,2.57,6.24,5.82H13.68c.23-3.25,2.94-5.82,6.24-5.82Zm18.28,8.3c-.08-1.39-1.19-2.49-2.53-2.49h-7.72c-.23-4.22-3.74-7.59-8.02-7.59s-7.79,3.37-8.02,7.59H4.18c-1.34,0-2.46,1.09-2.53,2.49L0,39.66c-.04,.65,.2,1.28,.66,1.77,.49,.51,1.17,.81,1.87,.81H37.32c.7,0,1.38-.3,1.87-.81,.47-.49,.7-1.12,.66-1.77l-1.65-29.59Z"/></g></svg>