<?xml version="1.0" encoding="UTF-8"?><svg id="_레이어_2" xmlns="http://www.w3.org/2000/svg" viewBox="0 0 33.75 45.18"><defs><style>.cls-1{fill:#022347;}</style></defs><g id="_레이어_1-2"><g><path class="cls-1" d="M30.58,38.98h-6.11v-12.64h6.11v12.64Zm-3.06,4.79c-1.69,0-3.06-1.37-3.06-3.06v-.32h6.11v.32c0,1.68-1.37,3.06-3.06,3.06ZM26.64,1.41h1.75l.5,4.32-1.38,1.08-1.37-1.08,.5-4.32Zm6.4,23.51h-4.82V8.05l1.85-1.45c.19-.15,.3-.39,.27-.64l-.62-5.34C29.69,.27,29.38,0,29.03,0h-3.01c-.36,0-.66,.27-.7,.62l-.62,5.34c-.03,.24,.07,.49,.27,.64l1.85,1.45V24.92h-4.82c-.39,0-.71,.32-.71,.71s.32,.71,.71,.71h1.05v14.38c0,2.46,2,4.47,4.47,4.47s4.47-2,4.47-4.47v-14.38h1.05c.39,0,.71-.32,.71-.71s-.32-.71-.71-.71Z"/><path class="cls-1" d="M26.15,27.88c-.39,0-.71,.32-.71,.71v8.47c0,.39,.32,.71,.71,.71s.71-.32,.71-.71v-8.47c0-.39-.32-.71-.71-.71Z"/><path class="cls-1" d="M28.89,37.76c.39,0,.71-.32,.71-.71v-8.47c0-.39-.32-.71-.71-.71s-.71,.32-.71,.71v8.47c0,.39,.32,.71,.71,.71Z"/><path class="cls-1" d="M10.95,31.4c2.53,1.08,4.17,3.56,4.17,6.31,0,2.21-1.04,4.23-2.78,5.51v-3.9c0-.25-.13-.47-.34-.6l-3.37-2.07c-.11-.07-.24-.1-.37-.1s-.26,.03-.37,.1l-3.38,2.07c-.21,.13-.34,.36-.34,.6v3.9c-1.74-1.28-2.77-3.3-2.77-5.51,0-2.75,1.64-5.23,4.17-6.31,.26-.11,.43-.37,.43-.65V14.43c0-.28-.17-.54-.43-.65-2.53-1.08-4.17-3.56-4.17-6.31,0-2.21,1.04-4.23,2.78-5.51v3.9c0,.25,.13,.47,.34,.6l3.37,2.07c.23,.14,.51,.14,.74,0l3.38-2.07c.21-.13,.34-.36,.34-.6V1.96c1.74,1.28,2.77,3.3,2.77,5.51,0,2.75-1.64,5.23-4.17,6.31-.26,.11-.43,.37-.43,.65V30.75c0,.28,.17,.54,.43,.65ZM16.54,7.47c0-3.15-1.75-5.99-4.58-7.4-.22-.11-.48-.1-.69,.03-.21,.13-.33,.36-.33,.6V5.47l-2.67,1.64-2.66-1.63V.71c0-.24-.13-.47-.33-.6-.21-.13-.47-.14-.69-.03C1.76,1.49,0,4.32,0,7.47s1.79,6.02,4.6,7.41v15.42c-2.81,1.39-4.6,4.24-4.6,7.41s1.75,5.99,4.58,7.4c.1,.05,.21,.07,.32,.07,.13,0,.26-.04,.37-.11,.21-.13,.33-.36,.33-.6v-4.77l2.67-1.63,2.66,1.63v4.77c0,.24,.13,.47,.33,.6,.21,.13,.47,.14,.69,.03,2.83-1.41,4.59-4.25,4.59-7.4s-1.79-6.02-4.6-7.41V14.88c2.81-1.39,4.6-4.24,4.6-7.41Z"/><path class="cls-1" d="M8.27,15.89c-.39,0-.71,.32-.71,.71v11.98c0,.39,.32,.71,.71,.71s.71-.32,.71-.71v-11.98c0-.39-.32-.71-.71-.71Z"/></g></g></svg>