<?xml version="1.0" encoding="UTF-8"?><svg id="_레이어_2" xmlns="http://www.w3.org/2000/svg" viewBox="0 0 47.66 44.6"><defs><style>.cls-1{fill:#022347;}</style></defs><g id="_레이어_1-2"><path class="cls-1" d="M22.14,42.38s-.1,0-.15-.01c-.08-.02-.12-.03-.16-.04L.56,33.68c-.34-.14-.56-.46-.56-.83V8.42c0-.07,.01-.12,.02-.16,.02-.09,.04-.15,.08-.21,.05-.09,.08-.13,.11-.17,.08-.08,.11-.11,.14-.14,.11-.08,.16-.1,.21-.12L21.84,.05c.1-.03,.2-.05,.3-.05s.2,.02,.3,.05l21.27,7.56c.06,.03,.1,.05,.15,.07,.11,.08,.15,.11,.18,.14,.08,.09,.1,.13,.13,.17,.06,.11,.08,.17,.1,.24,.02,.08,.02,.13,.02,.18V25.99c0,.49-.4,.9-.89,.9s-.9-.4-.9-.9V9.99s-.02-.09-.06-.12c-.02-.02-.05-.02-.08-.02-.02,0-.04,0-.05,.01l-19.17,7.79c-.05,.02-.09,.07-.09,.13v22.16s.02,.09,.06,.12c.02,.02,.05,.02,.08,.02,.02,0,.04,0,.05-.01l5-2.03c.11-.04,.22-.07,.34-.07s.24,.02,.35,.07c.22,.09,.39,.27,.48,.49,.19,.46-.04,.98-.49,1.17l-6.48,2.63-.13,.03c-.05,0-.1,.01-.15,.01ZM1.93,9.85s-.06,0-.08,.02c-.04,.03-.06,.07-.06,.12v22.16c0,.06,.03,.11,.09,.13l19.17,7.79s.04,.01,.05,.01c.03,0,.06,0,.08-.02,.04-.03,.06-.07,.06-.12V17.78c0-.06-.03-.11-.09-.13L1.99,9.86s-.04-.01-.05-.01Zm8.94-4l-7.11,2.53c-.06,.02-.09,.07-.09,.13,0,.06,.03,.11,.09,.13l18.33,7.45s.04,.01,.05,.01,.04,0,.05-.01l7.27-2.95c.05-.02,.09-.07,.09-.13,0-.06-.04-.11-.09-.13L10.97,5.86s-.03,0-.05,0c-.02,0-.03,0-.05,0Zm4.58-1.63l-1.56,.56c-.06,.02-.09,.07-.09,.13,0,.06,.04,.11,.09,.13l18.3,6.95s.03,0,.05,0c.02,0,.04,0,.05-.01l1.97-.8c.05-.02,.09-.08,.09-.13,0-.06-.04-.11-.09-.13L15.55,4.23s-.03,0-.05,0-.03,0-.05,0Zm6.64-2.36l-3.55,1.26c-.06,.02-.09,.07-.09,.13s.04,.11,.09,.13l18.5,6.63s.03,0,.05,0c.02,0,.04,0,.05-.01l3.39-1.38c.05-.02,.09-.08,.09-.13,0-.06-.04-.11-.09-.13L22.19,1.86s-.03,0-.05,0-.03,0-.05,0Z"/><path class="cls-1" d="M32.25,14.43c-.57,0-1.04,.47-1.04,1.04v3.5c0,.35,.17,.67,.46,.87,.17,.11,.37,.17,.57,.17,.14,0,.28-.03,.4-.08l4.83-2.04c.38-.16,.63-.54,.63-.96v-3.54c0-.57-.47-1.04-1.04-1.04s-1.04,.47-1.04,1.04v2.85l-2.75,1.17v-1.93c0-.57-.47-1.04-1.04-1.04Z"/><path class="cls-1" d="M32.25,19.87c-.18,0-.35-.05-.5-.15-.25-.17-.4-.45-.4-.75v-3.5c0-.49,.4-.9,.9-.9s.9,.4,.9,.9v1.93s.02,.09,.06,.12c.02,.02,.05,.02,.08,.02,.02,0,.04,0,.06-.01l2.75-1.17c.05-.02,.09-.07,.09-.13v-2.85c0-.49,.4-.9,.9-.9s.9,.4,.9,.9v3.54c0,.36-.21,.68-.55,.83l-4.83,2.04c-.11,.05-.23,.07-.35,.07Z"/><path class="cls-1" d="M12.56,30.67l5.13,1.98v2.07l-5.13-1.98v-2.08Zm-1.41,3.75l7.2,2.79c.12,.05,.25,.07,.37,.07,.21,0,.41-.06,.59-.18,.28-.19,.45-.51,.45-.86v-4.3c0-.43-.27-.81-.66-.97l-7.2-2.79c-.32-.12-.68-.08-.96,.11-.28,.19-.45,.51-.45,.86v4.3c0,.43,.27,.81,.66,.97Z"/><path class="cls-1" d="M18.72,37.14c-.11,0-.22-.02-.32-.06l-7.2-2.79c-.34-.13-.57-.47-.57-.84v-4.3c0-.3,.15-.57,.39-.74,.15-.1,.33-.16,.51-.16,.11,0,.22,.02,.32,.06l7.2,2.79c.34,.13,.57,.47,.57,.84v4.3c0,.3-.15,.57-.39,.74-.15,.1-.33,.16-.51,.16Zm-6.17-6.61s-.06,0-.08,.02c-.04,.03-.06,.07-.06,.12v2.08c0,.06,.04,.11,.09,.13l5.13,1.98s.03,0,.05,0c.03,0,.06,0,.08-.02,.04-.03,.06-.07,.06-.12v-2.07c0-.06-.04-.11-.09-.13l-5.13-1.98s-.03,0-.05,0Z"/><path class="cls-1" d="M38.72,42.52c-3.79,0-6.87-3.08-6.87-6.87s3.08-6.87,6.87-6.87,6.87,3.08,6.87,6.87-3.08,6.87-6.87,6.87Zm0-15.81c-4.93,0-8.94,4.01-8.94,8.94s4.01,8.94,8.94,8.94,8.94-4.01,8.94-8.94-4.01-8.94-8.94-8.94Z"/><path class="cls-1" d="M38.72,44.46c-4.85,0-8.8-3.95-8.8-8.8s3.95-8.8,8.8-8.8,8.8,3.95,8.8,8.8-3.95,8.8-8.8,8.8Zm0-15.81c-3.87,0-7.01,3.15-7.01,7.01s3.14,7.01,7.01,7.01,7.01-3.14,7.01-7.01-3.14-7.01-7.01-7.01Z"/><path class="cls-1" d="M40.24,35.61l1.89-2.52c.08-.11,.14-.24,.16-.38,.02-.14,.02-.27,0-.41-.03-.13-.08-.25-.16-.37-.08-.12-.18-.21-.3-.3-.27-.17-.56-.25-.84-.23-.31,.02-.57,.17-.76,.43l-1.51,2.1-1.48-2.09c-.19-.26-.44-.42-.75-.46-.31-.04-.61,.04-.89,.25-.1,.07-.19,.17-.27,.28-.08,.11-.14,.24-.17,.36-.04,.14-.04,.28-.02,.42,.03,.15,.09,.3,.19,.42l1.88,2.49-1.94,2.63c-.08,.11-.14,.24-.16,.38-.03,.14-.02,.29,.02,.43,.04,.13,.1,.25,.18,.37,.09,.12,.2,.23,.34,.31,.25,.15,.54,.21,.84,.16,.32-.05,.58-.21,.75-.47l1.48-2.16,1.47,2.11c.18,.26,.42,.43,.73,.51,.09,.02,.19,.04,.28,.04,.22,0,.43-.06,.63-.19,.29-.19,.46-.43,.51-.72,.05-.29-.02-.57-.21-.83l-1.88-2.57Z"/><path class="cls-1" d="M41.2,39.79c-.08,0-.16-.01-.25-.03-.27-.07-.49-.22-.65-.45l-1.47-2.11s-.07-.06-.12-.06h0s-.09,.02-.12,.06l-1.48,2.16c-.15,.23-.38,.37-.66,.41-.06,0-.12,.01-.18,.01-.2,0-.39-.05-.57-.16-.12-.07-.22-.17-.3-.27-.07-.1-.12-.22-.16-.33-.03-.12-.04-.24-.02-.36,.02-.12,.07-.23,.14-.33l1.94-2.63c.04-.05,.04-.12,0-.17l-1.88-2.49c-.08-.11-.14-.23-.16-.36-.02-.13-.02-.25,.01-.36,.03-.11,.08-.22,.15-.32,.07-.1,.15-.18,.24-.24,.21-.15,.43-.23,.65-.23,.04,0,.09,0,.13,0,.27,.04,.49,.17,.66,.4l1.48,2.09s.07,.06,.12,.06h0s.09-.02,.11-.06l1.51-2.1c.17-.23,.39-.35,.66-.37h.01c.29,0,.52,.07,.74,.21,.1,.07,.19,.15,.26,.25,.07,.1,.11,.21,.14,.32,.03,.11,.03,.23,0,.35-.02,.12-.07,.23-.14,.33l-1.89,2.52s-.04,.12,0,.17l1.88,2.57c.16,.23,.22,.47,.18,.72-.04,.25-.19,.46-.44,.63-.18,.11-.36,.17-.55,.17Z"/></g></svg>