<?xml version="1.0" encoding="UTF-8"?><svg id="_레이어_2" xmlns="http://www.w3.org/2000/svg" viewBox="0 0 233.58 233.58"><defs><style>.cls-1{opacity:.1;}.cls-1,.cls-2{fill:#050505;}.cls-2{opacity:.25;}</style></defs><g id="_레이어_1-2"><g><circle class="cls-1" cx="116.79" cy="116.79" r="116.79"/><path class="cls-2" d="M162.43,126.95h-7.96l.81-13.18c2.92-.13,5.81-.79,8.54-1.98l-1.39,15.16Zm-2.67,28.96h-7.07s1.25-20.27,1.25-20.27h7.69l-1.87,20.27Zm-13.99-28.96h-7.97l.56-18.13h1.27c2.16,1.67,4.53,2.92,7.03,3.74l-.88,14.38Zm-1.78,28.95h-7.08s.62-20.26,.62-20.26h7.7l-1.24,20.26Zm-14.88-28.95h-7.97v-18.13h8.53l-.56,18.13Zm-.89,28.94h-7.09s0-20.25,0-20.25h7.7l-.62,20.25Zm-15.78-28.94h-7.97l-.56-18.13h8.53v18.13Zm0,28.92h-7.08s-.63-20.23-.63-20.23h7.71v20.23Zm-22.86-.02l-1.24-20.21h7.7l.62,20.22h-7.08Zm-2.65-43.29c2.49-.83,4.86-2.07,7.02-3.74h1.27l.56,18.13h-7.97l-.88-14.38Zm-13.12,43.28l-1.85-20.2h7.68l1.24,20.2h-7.07Zm-4.05-44.06c2.72,1.19,5.62,1.85,8.53,1.98l.81,13.19h-7.95l-1.39-15.17Zm107.87-17.11s.03-.08,.03-.12h-12.19c-.59,1.38-1.43,2.67-2.55,3.79-2.37,2.36-5.46,3.54-8.56,3.54s-6.21-1.19-8.58-3.56l-3.76-3.77h-50.46l-3.79,3.78c-2.37,2.36-5.46,3.54-8.56,3.54s-6.21-1.19-8.58-3.56c-1.12-1.11-1.94-2.4-2.53-3.77h-12.19s.02,.08,.03,.12c-3.38,.57-5.96,3.48-5.96,7.02,0,3.94,3.19,7.13,7.14,7.13h3.65l.07,.76c-.15,.51-.21,1.06-.16,1.63l4.85,49.39c.02,.18,.06,.35,.1,.53,.02,.09,.03,.18,.05,.27,.05,.16,.12,.31,.18,.46,.04,.1,.07,.19,.11,.28,.07,.13,.16,.26,.25,.38,.06,.09,.11,.2,.18,.29,.11,.15,.24,.27,.37,.4,.06,.06,.1,.12,.16,.18,.19,.17,.4,.33,.63,.47,.04,.02,.09,.04,.13,.06,.18,.11,.37,.21,.57,.29,.49,.19,1.02,.3,1.58,.3l46.93,.04s0,0,.01,0c0,0,0,0,0,0h15.59s.03,.02,.05,.02c0,0,0,0,0,0l15.63,.02h15.65s0,.01,0,.01h0c.56,0,1.09-.11,1.58-.3,.49-.19,.94-.47,1.33-.83,.11-.09,.19-.21,.29-.32,.08-.08,.16-.16,.24-.26,.1-.13,.18-.28,.27-.42,.05-.08,.11-.16,.15-.24,.06-.12,.11-.25,.16-.38,.05-.12,.11-.24,.14-.37,.03-.11,.04-.22,.06-.33,.04-.16,.08-.31,.1-.47l4.85-49.57c.05-.55,0-1.08-.15-1.58l.07-.71h3.64c3.94,0,7.14-3.2,7.14-7.13,0-3.54-2.58-6.45-5.96-7.02Zm-101.5-1.84c-1.7-1.7-1.69-4.45,0-6.15l29.86-29.8c1.7-1.7,4.45-1.69,6.14,0,1.7,1.7,1.69,4.45,0,6.14l-29.86,29.8c-.85,.85-1.96,1.27-3.07,1.27-1.12,0-2.23-.43-3.08-1.28Zm45.36-29.87c-1.7-1.7-1.69-4.45,0-6.14,1.69-1.7,4.44-1.69,6.14,0l29.8,29.87c1.7,1.7,1.69,4.45,0,6.14-.84,.84-1.96,1.27-3.07,1.27s-2.23-.42-3.07-1.27l-29.8-29.87Z"/></g></g></svg>