<?xml version="1.0" encoding="UTF-8"?><svg id="_레이어_2" xmlns="http://www.w3.org/2000/svg" viewBox="0 0 43.11 44.06"><defs><style>.cls-1{fill:#fff;}</style></defs><g id="_레이어_1-2"><g><path class="cls-1" d="M40.6,15.31c-.6-.55-1.22-.89-1.77-1.08,.17,1.05,.28,2.16,.34,3.3,.89,1.08,1.37,2.92,1.37,5.39s-.46,4.23-1.31,5.32v2.37c0,.26-.01,.55-.02,.84,.46-.2,.93-.49,1.4-.92,1.66-1.52,2.5-4.07,2.5-7.6s-.85-6.08-2.5-7.62Z"/><path class="cls-1" d="M4.26,14.24c-.55,.2-1.17,.53-1.77,1.08-1.65,1.53-2.49,4.08-2.49,7.62s.84,6.08,2.5,7.6c.51,.48,1.05,.78,1.54,.99-.11-.29-.17-.59-.17-.91v-2.37c-.85-1.08-1.31-2.9-1.31-5.32s.47-4.31,1.37-5.39c.05-1.15,.16-2.25,.32-3.3Z"/><path class="cls-1" d="M31.36,26.99v-8.13c0-1.27,.83-2.35,1.81-2.35h2.07c.1,1.03,.13,2.07,.13,3.08v9.76h-2.1c-1.03-.01-1.92-1.09-1.92-2.36Zm-4.31,13.18c-.29,.57-.78,1.01-1.39,1.21-.25,.08-.5,.12-.77,.12-1.03,0-1.94-.66-2.28-1.64-.42-1.26,.26-2.61,1.51-3.03,.25-.08,.5-.12,.77-.12,1.03,0,1.94,.66,2.28,1.64,.2,.6,.17,1.25-.12,1.82ZM9.93,16.5c.98,0,1.81,1.08,1.81,2.35v8.13c0,1.27-.89,2.35-1.94,2.35h-2.08v-9.76c0-1.01,.04-2.04,.13-3.08h2.08ZM21.55,0C10.98,0,5.15,6.96,5.15,19.58v11.04c0,.71,.57,1.28,1.28,1.28,.02,0,.05-.01,.07-.01s.05,.01,.07,.01h3.22c2.48,0,4.5-2.2,4.5-4.92v-8.13c0-2.71-1.96-4.91-4.37-4.91h-1.71c1.15-6,4.62-11.38,13.34-11.38s12.18,5.38,13.34,11.38h-1.72c-2.42,0-4.37,2.2-4.37,4.91v8.13c0,2.71,2.02,4.92,4.5,4.92h2.02c-.23,1.8-1.23,4.42-5.78,5.46-.73-1.93-2.56-3.22-4.63-3.22-.54,0-1.07,.08-1.58,.26-2.6,.87-4,3.69-3.13,6.27,.68,2.02,2.57,3.39,4.71,3.39,.54,0,1.07-.08,1.58-.26,1.26-.42,2.28-1.31,2.86-2.49,.22-.44,.37-.91,.46-1.39,6.61-1.38,8.15-5.64,8.15-9.32v-11.04c-.01-12.61-5.83-19.57-16.4-19.57Z"/></g></g></svg>