<?xml version="1.0" encoding="UTF-8"?><svg id="_레이어_2" xmlns="http://www.w3.org/2000/svg" xmlns:xlink="http://www.w3.org/1999/xlink" viewBox="0 0 145.59 145.59"><defs><style>.cls-1{fill:none;}.cls-2{fill:url(#Unnamed_Pattern);}.cls-3{mask:url(#mask);}.cls-4{fill:#f0f0f0;}.cls-5{fill:#e3c52a;}.cls-6{fill:#393939;opacity:.34;}.cls-7{fill:url(#_무제_그라디언트_2);}.cls-8{fill:url(#_무제_그라디언트_3);}</style><linearGradient id="_무제_그라디언트_3" x1="100.58" y1="-15329.82" x2="222.12" y2="-15540.32" gradientTransform="translate(376.07 -14815.77) scale(1 -1)" gradientUnits="userSpaceOnUse"><stop offset="0" stop-color="#262626"/><stop offset=".31" stop-color="#262626"/><stop offset=".38" stop-color="#000"/><stop offset="1" stop-color="#000"/></linearGradient><mask id="mask" y="-799.37" width="799.37" height="799.37" maskUnits="userSpaceOnUse"><rect class="cls-8" width="799.37" height="799.37"/></mask><linearGradient id="_무제_그라디언트_2" x1="100.58" y1="-15329.82" x2="222.12" y2="-15540.32" gradientTransform="translate(376.07 -14815.77) scale(1 -1)" gradientUnits="userSpaceOnUse"><stop offset="0" stop-color="#000"/><stop offset=".31" stop-color="#000"/><stop offset=".38" stop-color="#f7f9fc"/><stop offset="1" stop-color="#f7f9fc"/></linearGradient><pattern id="Unnamed_Pattern" x="0" y="0" width="799.37" height="799.37" patternTransform="translate(-1745.67 -626.87) scale(.41 -.41)" patternUnits="userSpaceOnUse" viewBox="0 0 799.37 799.37"><g><rect class="cls-1" width="799.37" height="799.37"/><g class="cls-3"><rect class="cls-7" width="799.37" height="799.37"/></g></g></pattern></defs><g id="_레이어_1-2"><g><circle class="cls-4" cx="72.79" cy="72.79" r="72.79"/><g><path class="cls-5" d="M122.32,74.82l-4.24-2.15s-3.59,.43-6.7-.43c-1.86-.52-3.55-1.88-4.85-3.6v-25.88c0-3.73-2.02-6.77-4.84-8.41-.16-.1-1.8-1.16-4.9-2.59-2.7-1.24-5.97-1.27-8.91,.42l-45.3,25.92c-6.33,4.13-9.87,7.97-9.8,16.98v27.74c0,3.25,1.52,5.97,3.78,7.7,2.83,2.17,4.7,2.66,4.85,2.7,.36,.23,.74,.43,1.13,.61,2.7,1.23,5.96,1.26,8.89-.43l45.3-25.92c2.86-1.65,16.3,2.45,25.59-12.66Z"/><path class="cls-6" d="M118.08,72.67s-3.59,.43-6.7-.43c-1.86-.52-3.55-1.88-4.85-3.6v1.86c-.02,7.58,15.79,4.32,15.79,4.32l-4.24-2.15Z"/><path class="cls-5" d="M87.88,32.18l-45.3,25.92c-6.33,4.13-9.87,7.97-9.8,16.98v27.74c0,3.25,1.52,5.97,3.78,7.7,2.83,2.17,4.7,2.66,4.85,2.7-2.68-1.67-4.57-4.63-4.57-8.25v-31.38c0-7.01,3.74-9.85,9.81-13.35l45.3-25.92c3.25-1.88,6.91-1.64,9.75,.01-.15-.1-1.8-1.16-4.9-2.59-2.7-1.24-5.97-1.27-8.91,.42Z"/><path class="cls-2" d="M36.84,104.98v-31.38c0-7.01,3.74-9.85,9.81-13.35l45.3-25.92c3.25-1.88,6.91-1.64,9.75,.01-.15-.1-1.8-1.16-4.9-2.59-2.7-1.24-5.97-1.27-8.91,.42l-45.3,25.92c-6.33,4.13-9.87,7.97-9.8,16.98v27.74c0,3.25,1.52,5.97,3.78,7.7,2.83,2.17,4.7,2.66,4.85,2.7-2.68-1.67-4.57-4.63-4.57-8.25Z"/><path class="cls-4" d="M90.54,53.42c-14.56,8.41-22.26,12.84-36.82,21.25-2.63,1.52-2.63,5.46,0,3.94,14.56-8.41,22.26-12.84,36.82-21.25,2.63-1.52,2.63-5.46,0-3.94Z"/><path class="cls-4" d="M90.54,61.91c-14.56,8.41-22.26,12.84-36.82,21.25-2.63,1.52-2.63,5.46,0,3.94,14.56-8.41,22.26-12.84,36.82-21.25,2.63-1.52,2.63-5.46,0-3.94Z"/><path class="cls-4" d="M90.54,70.41c-14.56,8.41-22.26,12.84-36.82,21.25-2.63,1.52-2.63,5.46,0,3.94,14.56-8.41,22.26-12.84,36.82-21.25,2.63-1.52,2.63-5.46,0-3.94Z"/></g></g></g></svg>