<?xml version="1.0" encoding="UTF-8"?><svg id="_레이어_2" xmlns="http://www.w3.org/2000/svg" viewBox="0 0 53.63 58.38"><defs><style>.cls-1{fill:#fff;}</style></defs><g id="_레이어_1-2"><path class="cls-1" d="M52.86,46.22l-8.78-10.15c-2.84-3.24-5.06,.79-7.36,1.88-3.25,1.61-9.12-5.42-11-7.65l-.03-.09-.03-.09c-.34-.4-.8-.86-1.33-1.5-2.41-2.87-6.4-7.98-4.69-10.51,1.52-2.16,5.69-3.78,2.94-7.05L13.68,1.15c-1.21-1.44-3.39-1.52-4.82-.31C6.47,2.88,3.63,4.77,1.83,7.33c-3.48,4.87-1.29,11.31,.79,16.24,2.7,6.16,6.79,11.85,11.18,16.93l.03,.09,.03,.09c1.55,1.83,3.27,3.61,5,5.38,3.09,3.06,6.48,5.8,10.15,8.15,4.53,2.77,10.6,5.84,15.93,3.11,2.79-1.46,5.11-3.99,7.49-6.03,1.44-1.51,1.61-3.72,.43-5.07Z"/></g></svg>