<?xml version="1.0" encoding="utf-8"?>
<!-- Generator: Adobe Illustrator 26.2.1, SVG Export Plug-In . SVG Version: 6.00 Build 0)  -->
<svg version="1.1" id="레이어_1" xmlns="http://www.w3.org/2000/svg" xmlns:xlink="http://www.w3.org/1999/xlink" x="0px"
	 y="0px" viewBox="0 0 147.9 147.9" style="enable-background:new 0 0 147.9 147.9;" xml:space="preserve">
<style type="text/css">
	.st0{fill:#F0F0F0;}
	.st1{fill:#C6AE97;}
	.st2{fill:#FFD740;}
	.st3{fill:#CFD8DC;}
	.st4{fill:#2979FF;}
	.st5{opacity:0.2;fill:#333333;enable-background:new    ;}
	.st6{opacity:0.15;fill:#FFFFFE;enable-background:new    ;}
	.st7{fill:#FFFFFE;}
</style>
<g>
	<circle class="st0" cx="73.9" cy="73.9" r="72.8"/>
	<g>
		<path class="st1" d="M90.7,23.3h-8.6h-8.6l-7.7,4.6l-6.6-4.6h-2.9c-3.2,0-5.7,2.6-5.7,5.7v22.9c0,0-5.1,5.6-1.9,5.6L67.6,68
			l32.1-6.2c3.2,0-3.3-9.9-3.3-9.9V29C96.4,25.8,93.9,23.3,90.7,23.3z"/>
		<polygon class="st2" points="66.3,37.6 73.5,40.5 73.5,23.3 59.2,23.3 59.2,40.5 		"/>
		<path class="st3" d="M110.7,100.6v-5.7V60.5c0-4.7-3.9-8.6-8.6-8.6h-5.7c0,3.2-2.6,5.7-5.7,5.7L71,67.4l-14.7-9.8
			c-3.2,0-5.7-2.6-5.7-5.7h-5.7c-4.7,0-8.6,3.9-8.6,8.6v34.4v5.7h-8.6v6.9l1.7,1.7l5.7,5.7h76.8l5.7-5.7l1.7-1.7v-6.9H110.7z"/>
		<path class="st4" d="M102.1,57.7h-1.5l0,0h-9.9h-8.6H56.3h-9.9l0,0h-1.5c-1.6,0-2.9,1.3-2.9,2.9V95v5.7h63V95V60.5
			C105,58.9,103.7,57.7,102.1,57.7z"/>
		<path class="st5" d="M100.6,57.7c1-1.7,1.5-3.6,1.5-5.7h-5.7c0,3.2-2.6,5.7-5.7,5.7H100.6L100.6,57.7z"/>
		<path class="st5" d="M46.4,57.7h9.9c-3.2,0-5.7-2.6-5.7-5.7h-5.7C44.9,54,45.4,56,46.4,57.7L46.4,57.7z"/>
		<rect x="105" y="94.9" class="st5" width="5.7" height="5.7"/>
		<rect x="36.3" y="94.9" class="st5" width="5.7" height="5.7"/>
		<polygon class="st5" points="29.4,109.2 35.1,114.9 111.9,114.9 117.6,109.2 		"/>
		<path class="st6" d="M105,60.5c0-1.6-1.3-2.9-2.9-2.9h-1.5l0,0c-2,3.4-5.7,5.7-9.9,5.7H56.3c-4.2,0-7.9-2.3-9.9-5.7l0,0h-1.5
			c-1.6,0-2.9,1.3-2.9,2.9v34.4v5.7h63v-5.7V60.5z"/>
		<path class="st6" d="M56.3,57.7h25.8V23.3h-8.6v17.2l-7.2-2.9l-7.2,2.9V23.3h-2.9c-3.2,0-5.7,2.6-5.7,5.7v22.9
			C50.6,55.1,53.2,57.7,56.3,57.7z"/>
		<rect x="39.1" y="103.5" class="st7" width="5.7" height="5.7"/>
		<rect x="50.6" y="103.5" class="st7" width="5.7" height="5.7"/>
		<polygon class="st7" points="62,85.7 62,77.7 56.3,77.7 56.3,85.7 51.1,81.3 47.4,85.6 59.2,95.8 71,85.6 67.2,81.3 		"/>
		<polygon class="st7" points="87.8,65.3 76,75.5 79.8,79.9 85,75.4 85,83.4 90.7,83.4 90.7,75.4 95.9,79.9 99.6,75.5 		"/>
		<rect x="56.3" y="66.2" class="st7" width="5.7" height="5.7"/>
		<rect x="85" y="89.2" class="st7" width="5.7" height="5.7"/>
	</g>
</g>
</svg>
