<?xml version="1.0" encoding="UTF-8"?><svg id="_레이어_2" xmlns="http://www.w3.org/2000/svg" viewBox="0 0 43.97 39.91"><defs><style>.cls-1{fill:#022347;}</style></defs><g id="_레이어_1-2"><path class="cls-1" d="M14.23,39.91c-.31,0-.61-.12-.83-.34L.34,26.49c-.22-.22-.34-.51-.34-.83s.12-.6,.34-.83L13.4,11.77c.23-.22,.53-.34,.83-.34,.64,0,1.16,.53,1.16,1.17v5.61c0,.31,.25,.57,.57,.57h13.72c.68,0,1.2,.52,1.2,1.16v3.17c0,.23,.14,.44,.35,.52,.07,.03,.14,.04,.22,.04,.15,0,.29-.06,.4-.17l8.89-8.88c.11-.11,.17-.25,.17-.4s-.06-.29-.17-.4L31.85,4.95c-.11-.11-.25-.17-.4-.17-.07,0-.15,.01-.22,.04-.21,.09-.35,.29-.35,.52v3.12c0,.69-.52,1.21-1.16,1.21h-8.55c-.64,0-1.16-.52-1.16-1.16s.52-1.17,1.16-1.17h6.82c.31,0,.57-.25,.57-.57V1.17c0-.64,.52-1.17,1.16-1.17,.32,0,.62,.12,.82,.33l13.07,13.07c.23,.23,.36,.52,.36,.83s-.12,.6-.35,.82l-13.07,13.07c-.22,.22-.52,.34-.83,.34s-.61-.12-.83-.34c-.21-.22-.33-.53-.33-.83v-5.61c0-.31-.25-.57-.57-.57H14.23c-.65,0-1.16-.52-1.16-1.17v-3.16c0-.23-.14-.44-.35-.52-.07-.03-.14-.04-.22-.04-.15,0-.29,.06-.4,.17L3.22,25.27c-.11,.11-.17,.25-.17,.4s.06,.29,.17,.4l8.89,8.88c.11,.11,.25,.17,.4,.17,.07,0,.15-.01,.22-.04,.21-.09,.35-.29,.35-.52v-3.16c0-.66,.51-1.17,1.16-1.17h8.55c.65,0,1.18,.53,1.18,1.17s-.53,1.16-1.18,1.16h-6.82c-.31,0-.57,.25-.57,.57v5.57c0,.37-.12,.66-.33,.87-.22,.22-.52,.34-.83,.34Z"/></g></svg>