<?xml version="1.0" encoding="UTF-8"?><svg id="_레이어_2" xmlns="http://www.w3.org/2000/svg" viewBox="0 0 36.47 37.22"><defs><style>.cls-1{fill:#fff;}</style></defs><g id="_레이어_1-2"><path class="cls-1" d="M4.38,4c-5.69,5.48-5.86,14.57-.38,20.26,4.89,5.08,12.64,5.74,18.3,1.94l9.87,10.25c.96,.99,2.53,1.02,3.53,.07,.99-.96,1.02-2.54,.07-3.53l-9.87-10.25c4.01-5.51,3.63-13.28-1.26-18.36C19.16-1.31,10.07-1.48,4.38,4ZM21.95,22.24c-4.37,4.21-11.35,4.08-15.55-.29-4.21-4.37-4.08-11.35,.29-15.55,4.37-4.21,11.35-4.08,15.55,.29,4.21,4.37,4.08,11.35-.29,15.55Z"/></g></svg>