<?xml version="1.0" encoding="UTF-8"?><svg id="_레이어_2" xmlns="http://www.w3.org/2000/svg" viewBox="0 0 62.79 64.19"><defs><style>.cls-1{fill:#393939;}</style></defs><g id="_레이어_1-2"><g><path class="cls-1" d="M59.15,22.31c-.87-.8-1.78-1.29-2.58-1.57,.24,1.53,.4,3.14,.49,4.81,1.29,1.57,1.99,4.26,1.99,7.85s-.66,6.16-1.9,7.74v3.45c0,.38-.02,.8-.03,1.22,.66-.3,1.36-.72,2.04-1.34,2.42-2.22,3.65-5.93,3.65-11.08s-1.24-8.86-3.65-11.09Z"/><path class="cls-1" d="M6.21,20.74c-.8,.3-1.71,.77-2.58,1.57-2.41,2.23-3.63,5.95-3.63,11.09s1.22,8.86,3.65,11.08c.75,.7,1.53,1.13,2.25,1.45-.16-.42-.24-.85-.24-1.33v-3.45c-1.24-1.57-1.9-4.22-1.9-7.74s.68-6.28,1.99-7.85c.07-1.67,.23-3.28,.47-4.81Z"/><path class="cls-1" d="M45.68,39.31v-11.84c0-1.85,1.2-3.42,2.63-3.42h3.02c.14,1.5,.19,3.02,.19,4.48v14.22h-3.05c-1.5-.02-2.79-1.59-2.79-3.44Zm-6.28,19.2c-.42,.84-1.13,1.47-2.02,1.76-.37,.12-.73,.17-1.12,.17-1.5,0-2.83-.96-3.31-2.39-.61-1.83,.38-3.8,2.2-4.41,.37-.12,.73-.17,1.12-.17,1.5,0,2.83,.96,3.31,2.39,.3,.87,.24,1.81-.17,2.65ZM14.46,24.03c1.43,0,2.63,1.57,2.63,3.42v11.84c0,1.85-1.29,3.42-2.83,3.42h-3.03v-14.22c0-1.47,.05-2.97,.19-4.48h3.03v.02ZM31.4,0C15.99,0,7.5,10.13,7.5,28.52v16.08c0,1.03,.84,1.87,1.87,1.87,.03,0,.07-.02,.1-.02s.07,.02,.1,.02h4.69c3.61,0,6.56-3.21,6.56-7.17v-11.84c0-3.94-2.86-7.15-6.37-7.15h-2.49C13.64,11.56,18.7,3.73,31.4,3.73s17.74,7.83,19.43,16.57h-2.51c-3.52,0-6.37,3.21-6.37,7.15v11.84c0,3.94,2.95,7.17,6.56,7.17h2.95c-.33,2.62-1.8,6.44-8.42,7.95-1.06-2.81-3.73-4.69-6.75-4.69-.78,0-1.55,.12-2.3,.38-3.78,1.27-5.83,5.37-4.55,9.14,.99,2.95,3.75,4.94,6.85,4.94,.78,0,1.55-.12,2.3-.38,1.83-.61,3.31-1.9,4.17-3.63,.31-.65,.54-1.33,.66-2.02,9.63-2.01,11.88-8.22,11.88-13.57V28.5c-.02-18.37-8.49-28.5-23.9-28.5Z"/></g></g></svg>